<svg fill="none" height="100%" width="100%" viewBox="0 0 1560 1560" xmlns:xlink="http://www.w3.org/1999/xlink" xmlns="http://www.w3.org/2000/svg"><defs><linearGradient id="i0" gradientUnits="userSpaceOnUse" spreadMethod="pad" x2="88.466" y2="-47.782" x1="-134.636" y1="31.07"><stop offset="0%" stop-color="#b08821" /><stop offset="50.2%" stop-color="#b38020" /><stop offset="100%" stop-color="#b5ac1f" /></linearGradient></defs><g id="i1"><g transform="translate(752.223,815.556)"><animateTransform repeatCount="indefinite" type="translate" attributeName="transform" dur="4.033s" begin="0s" calcMode="spline" values="752.223 815.556; 752.223 777.556; 752.223 815.556; 752.223 815.556" keyTimes="0; 0.495868; 0.991736; 1" keySplines="0.333 0 0.667 1; 0.333 0 0.667 1; 0 0 1 1" fill="freeze" /><g transform="scale(4.248,4.248) translate(-444.917,-226.729)"><g id="i2" transform="matrix(1,0,0,1,444.917,231.31)"><g id="i3" fill="#000000"><path fill-rule="evenodd" d="M34.846,-81.001C34.846,-81.001,-143.3,16.512,-143.3,16.512C-148.422,19.469,-146.761,26.059,-146.903,29.659C-147.028,32.825,-145.181,35.863,-141.28,38.116C-141.28,38.116,-67.372,80.787,-67.372,80.787C-59.035,85.6,-44.473,84.996,-34.845,79.439C-34.845,79.439,138.945,-20.899,138.945,-20.899C148.572,-26.458,149.618,-34.866,141.281,-39.679C141.281,-39.679,67.372,-82.35,67.372,-82.35C63.595,-84.531,58.54,-85.6,53.245,-85.6C46.853,-85.6,40.111,-84.042,34.846,-81.001Z" /></g></g><g id="i4" transform="matrix(1,0,0,1,444.917,223.711)"><g id="i3" fill="#d9983b"><path fill-rule="evenodd" d="M34.846,-81.002C34.846,-81.002,-138.946,19.337,-138.946,19.337C-148.572,24.895,-149.618,33.301,-141.28,38.116C-141.28,38.116,-67.372,80.787,-67.372,80.787C-59.035,85.6,-44.473,84.996,-34.845,79.438C-34.845,79.438,138.945,-20.9,138.945,-20.9C148.572,-26.458,149.618,-34.865,141.281,-39.679C141.281,-39.679,67.372,-82.35,67.372,-82.35C63.595,-84.531,58.54,-85.6,53.245,-85.6C46.853,-85.6,40.111,-84.042,34.846,-81.002Z" /></g></g><g id="i5" transform="matrix(1,0,0,1,444.917,249.761)"><g id="i3" fill="#e0c43d"><path fill-rule="evenodd" d="M-141.281,11.234C-141.281,11.234,-67.372,53.905,-67.372,53.905C-59.035,58.718,-44.473,58.115,-34.846,52.557C-34.846,52.557,138.945,-47.782,138.945,-47.782C144.013,-50.707,146.699,-54.422,146.895,-57.987C147.104,-54.176,144.408,-50.104,138.945,-46.95C138.945,-46.95,-34.846,53.388,-34.846,53.388C-44.473,58.946,-59.035,59.55,-67.372,54.737C-67.372,54.737,-141.281,12.065,-141.281,12.065C-145.23,9.786,-147.07,6.699,-146.895,3.492C-146.734,6.397,-144.887,9.152,-141.281,11.234Z" /></g></g><g id="i6" transform="matrix(1,0,0,1,444.917,223.615)"><g id="i3" fill="#000000"><path fill-rule="evenodd" d="M37.01,-79.778C37.01,-79.778,-136.992,20.682,-136.992,20.682C-145.431,25.554,-146.347,32.924,-139.039,37.144C-139.039,37.144,-65.523,79.588,-65.523,79.588C-58.214,83.808,-45.448,83.278,-37.01,78.406C-37.01,78.406,136.992,-22.053,136.992,-22.053C145.431,-26.926,146.348,-34.296,139.039,-38.515C139.039,-38.515,65.522,-80.96,65.522,-80.96C62.211,-82.872,57.78,-83.809,53.138,-83.809C47.535,-83.809,41.625,-82.443,37.01,-79.778Z" /></g></g><g id="i7" transform="matrix(1,0,0,1,444.917,222.93)"><g id="i3" fill="#3d0d0d"><path fill-rule="evenodd" d="" /></g><path d="M-133.619,22.815C-133.619,22.815,39.518,-77.146,39.518,-77.146C46.582,-81.225,57.268,-81.666,63.385,-78.135C63.385,-78.135,135.333,-36.596,135.333,-36.596C141.45,-33.064,140.683,-26.894,133.619,-22.816C133.619,-22.816,-39.517,77.144,-39.517,77.144C-46.582,81.222,-57.266,81.666,-63.385,78.133C-63.385,78.133,-135.332,36.594,-135.332,36.594C-141.45,33.062,-140.683,26.893,-133.619,22.815Z" fill="#3d0d0d" /></g><g id="i8" transform="matrix(1,0,0,1,444.917,222.929)"><g id="i3" fill="#3d065f"><path fill-rule="evenodd" d="" /></g><path d="M62.757,-76.81C56.991,-80.139,47.673,-80.155,41.944,-76.848C41.944,-76.848,-133.103,24.215,-133.103,24.215C-138.833,27.524,-138.804,32.904,-133.038,36.232C-133.038,36.232,-62.757,76.809,-62.757,76.809C-56.991,80.138,-47.672,80.155,-41.942,76.847C-41.942,76.847,133.104,-24.216,133.104,-24.216C138.833,-27.524,138.804,-32.904,133.038,-36.233C133.038,-36.233,62.757,-76.81,62.757,-76.81Z" fill="#3d065f" /></g><g id="i9" transform="matrix(1,0,0,1,444.917,222.928)"><g id="i3" fill="url(#i0)"><path fill-rule="evenodd" d="M42.655,-75.613C42.655,-75.613,-132.39,25.451,-132.39,25.451C-134.691,26.778,-135.957,28.461,-135.957,30.19C-135.957,31.94,-134.667,33.647,-132.325,34.999C-132.325,34.999,-62.044,75.577,-62.044,75.577C-59.457,77.071,-55.993,77.892,-52.291,77.892C-48.623,77.892,-45.2,77.083,-42.656,75.613C-42.656,75.613,132.392,-25.449,132.392,-25.449C134.69,-26.776,135.957,-28.459,135.957,-30.189C135.957,-31.939,134.668,-33.647,132.326,-34.999C132.326,-34.999,62.044,-75.574,62.044,-75.574C59.456,-77.069,55.992,-77.893,52.289,-77.893C48.622,-77.893,45.201,-77.082,42.655,-75.613Z" /></g></g><g id="i10" transform="matrix(1,0,0,1,529.135,230.172)"><g id="i3" fill="#3d065f"><path fill-rule="evenodd" d="" /></g><path d="M-62.685,40.57C-62.685,40.57,54.728,-27.52,54.728,-27.52C59.682,-30.38,62.365,-33.995,62.664,-37.487C62.673,-37.603,62.681,-39.011,62.686,-40.57C62.687,-40.541,62.686,-33.318,62.664,-33.054C62.365,-29.563,59.682,-25.948,54.728,-23.087C54.728,-23.087,-62.685,40.57,-62.685,40.57Z" fill="#3d065f" /></g><g id="i3" transform="matrix(1,0,0,1,340.448,287.134)"><g id="i3" fill="#000000"><path fill-rule="evenodd" d="" /></g><path d="M-6.615,-2.055C-6.615,-2.055,6.614,5.582,6.614,5.582C6.614,3.166,5.144,0.358,3.331,-0.689C3.331,-0.689,-3.333,-4.536,-3.333,-4.536C-5.145,-5.582,-6.615,-4.472,-6.615,-2.055Z" fill="#000000" /></g><g id="i11" transform="matrix(1,0,0,1,555.067,222.737)"><g id="i3" fill="#d07bff"><path fill-rule="evenodd" d="M4.027,-4.934C4.027,-4.934,-4.028,-0.283,-4.028,-0.283C-5.034,0.298,-5.849,1.855,-5.849,3.196C-5.849,4.537,-5.034,5.152,-4.028,4.573C-4.028,4.573,4.027,-0.078,4.027,-0.078C5.034,-0.66,5.849,-2.218,5.849,-3.557C5.849,-4.555,5.397,-5.152,4.75,-5.152C4.529,-5.152,4.284,-5.082,4.027,-4.934Z" /></g></g><g id="i12" transform="matrix(1,0,0,1,555.067,222.556)"><g id="i3" fill="#000000"><path fill-rule="evenodd" d="M4.266,-4.342C4.266,-4.342,-3.791,0.31,-3.791,0.31C-4.649,0.805,-5.374,2.21,-5.374,3.377C-5.374,3.894,-5.21,4.496,-4.75,4.496C-4.609,4.496,-4.441,4.443,-4.266,4.342C-4.266,4.342,3.792,-0.309,3.792,-0.309C4.648,-0.804,5.374,-2.21,5.374,-3.376C5.374,-3.893,5.21,-4.496,4.751,-4.496C4.609,-4.496,4.441,-4.442,4.266,-4.342Z" /></g></g><g id="i13" transform="matrix(1,0,0,1,540.685,231.041)"><g id="i3" fill="#d07bff"><path fill-rule="evenodd" d="M4.029,-4.934C4.029,-4.934,-4.029,-0.283,-4.029,-0.283C-5.034,0.297,-5.849,1.854,-5.849,3.195C-5.849,4.536,-5.034,5.153,-4.029,4.572C-4.029,4.572,4.029,-0.079,4.029,-0.079C5.035,-0.66,5.849,-2.217,5.849,-3.558C5.849,-4.556,5.396,-5.153,4.751,-5.153C4.529,-5.153,4.286,-5.083,4.029,-4.934Z" /></g></g><g id="i14" transform="matrix(1,0,0,1,540.686,230.859)"><g id="i3" fill="#000000"><path fill-rule="evenodd" d="M4.264,-4.341C4.264,-4.341,-3.793,0.31,-3.793,0.31C-4.651,0.805,-5.374,2.209,-5.374,3.376C-5.374,3.893,-5.211,4.497,-4.752,4.497C-4.611,4.497,-4.443,4.444,-4.267,4.342C-4.267,4.342,3.79,-0.309,3.79,-0.309C4.648,-0.805,5.373,-2.209,5.373,-3.376C5.373,-3.893,5.21,-4.497,4.749,-4.497C4.608,-4.497,4.44,-4.443,4.264,-4.341Z" /></g></g></g></g></g><g id="i1"><g transform="translate(752.223,815.556)"><animateTransform repeatCount="indefinite" type="translate" attributeName="transform" dur="4.033s" begin="0s" calcMode="spline" values="752.223 815.556; 752.223 777.556; 752.223 815.556; 752.223 815.556" keyTimes="0; 0.495868; 0.991736; 1" keySplines="0.333 0 0.667 1; 0.333 0 0.667 1; 0 0 1 1" fill="freeze" /><g transform="scale(4.248,4.248) translate(-444.917,-226.729)"><g id="i15"><g transform="translate(433.488,265.294)"><animateTransform repeatCount="indefinite" type="translate" attributeName="transform" dur="4.033s" begin="0s" calcMode="spline" values="433.488 265.294; 426.659 271.873; 419.13 265.765; 426.299 259.007; 433.488 265.294; 433.488 265.294" keyTimes="0; 0.247934; 0.495868; 0.743802; 0.991736; 1" keySplines="0 0 1 1; 0 0 1 1; 0 0 1 1; 0 0 1 1; 0 0 1 1" fill="freeze" /><g transform="scale(1,1) translate(-425.706,-260.384)"><g id="i13" transform="matrix(1,0,0,1,425.706,260.922)"><g id="i3" fill="#000000"><path fill-rule="evenodd" d="M-22.829,-13.498C-26.724,-11.248,-27.149,-7.846,-23.775,-5.899C-23.775,-5.899,9.667,13.409,9.667,13.409C13.041,15.358,18.933,15.113,22.829,12.863C26.725,10.614,27.149,7.212,23.775,5.263C23.775,5.263,-9.667,-14.043,-9.667,-14.043C-11.196,-14.926,-13.241,-15.359,-15.384,-15.358C-17.971,-15.358,-20.699,-14.728,-22.829,-13.498Z" /></g></g><g id="i14" transform="matrix(1,0,0,1,425.706,260.162)"><g id="i3" fill="#ffd10f"><path fill-rule="evenodd" d="" /></g><path d="M9.667,13.726C9.667,13.726,-23.774,-5.581,-23.774,-5.581C-27.148,-7.529,-26.725,-10.931,-22.829,-13.18C-18.934,-15.429,-13.04,-15.674,-9.666,-13.726C-9.666,-13.726,23.774,5.581,23.774,5.581C27.148,7.529,26.726,10.931,22.83,13.181C18.934,15.43,13.041,15.674,9.667,13.726Z" fill="#ffd10f" /></g><g><g id="i10" transform="translate(426.597,260.528)"><animateTransform repeatCount="indefinite" type="translate" attributeName="transform" dur="4.033s" begin="0s" calcMode="spline" values="426.597 260.528; 416.593 254.82; 426.597 260.528; 416.593 254.82; 426.597 260.528; 426.597 260.528" keyTimes="0; 0.247934; 0.495868; 0.743802; 0.991736; 1" keySplines="0.167 0.167 0.667 1; 0.333 0 0.833 0.833; 0.167 0.167 0.667 1; 0.333 0 0.833 0.833; 0 0 1 1" fill="freeze" /><g id="i3" fill="#ebdef3"><path fill-rule="evenodd" d="" /></g><path d="M6.362,3.673C6.362,3.673,5.483,0.734,5.483,0.734C5.483,0.734,4.076,1.546,4.076,1.546C4.076,1.546,-4.963,-3.673,-4.963,-3.673C-4.963,-3.673,-6.362,-2.865,-6.362,-2.865C-6.362,-2.865,2.677,2.354,2.677,2.354C2.677,2.354,1.271,3.166,1.271,3.166C1.271,3.166,6.362,3.673,6.362,3.673Z" fill="#ebdef3" /></g></g><g id="i3" transform="matrix(1,0,0,1,439.749,267.633)"><g id="i3" fill="#ebdef3"><path fill-rule="evenodd" d="" /></g><path d="M3.834,-2.174C1.706,-3.403,-1.732,-3.41,-3.847,-2.189C-5.867,-1.023,-5.942,0.84,-4.091,2.074C-4.091,2.074,-5.973,3.161,-5.973,3.161C-5.973,3.161,-2.177,2.896,-2.177,2.896C-0.182,3.409,2.23,3.199,3.858,2.26C5.973,1.039,5.962,-0.945,3.834,-2.174Z" fill="#ebdef3" /></g></g></g></g></g></g></g><g id="i1"><g transform="translate(752.223,815.556)"><animateTransform repeatCount="indefinite" type="translate" attributeName="transform" dur="4.033s" begin="0s" calcMode="spline" values="752.223 815.556; 752.223 777.556; 752.223 815.556; 752.223 815.556" keyTimes="0; 0.495868; 0.991736; 1" keySplines="0.333 0 0.667 1; 0.333 0 0.667 1; 0 0 1 1" fill="freeze" /><g transform="scale(4.248,4.248) translate(-444.917,-226.729)"><g id="i16"><g transform="translate(551.885,150.873)"><animateTransform repeatCount="indefinite" type="translate" attributeName="transform" dur="4.033s" begin="0s" calcMode="spline" values="551.885 150.873; 568.362 168.055; 551.885 150.873; 551.885 150.873" keyTimes="0; 0.495868; 1; 1" keySplines="0.167 0.001 0.833 0.958; 0.167 0.043 0.833 0.903; 0 0 1 1" fill="freeze" /><g transform="scale(1,1) translate(-550.944,-144.753)"><g id="i14" transform="matrix(1,0,0,1,550.944,144.753)"><g id="i3" fill="#ffd10f"><path fill-rule="evenodd" d="M-32.941,-21.205C-32.941,-21.205,-33.132,-21.149,-33.132,-21.149C-40.611,-16.83,-41.423,-10.298,-34.946,-6.558C-34.946,-6.558,19.397,24.777,19.397,24.777C19.397,24.777,33.131,16.902,33.131,16.902C40.611,12.584,41.423,6.05,34.945,2.31C34.945,2.31,-7.669,-22.252,-7.669,-22.252C-10.604,-23.947,-14.531,-24.777,-18.646,-24.777C-23.612,-24.777,-28.851,-23.567,-32.941,-21.205Z" /></g></g><g id="i10" transform="matrix(1,0,0,1,550.945,150.487)"><g id="i3" fill="#6335a0"><path fill-rule="evenodd" d="" /></g><path d="M33.13,10.293C33.13,10.293,19.396,18.168,19.396,18.168C19.396,18.168,-34.947,-13.166,-34.947,-13.166C-37.691,-14.75,-39.112,-16.837,-39.288,-19.043C-39.464,-16.519,-38.052,-14.084,-34.947,-12.291C-34.947,-12.291,19.396,19.043,19.396,19.043C19.396,19.043,33.13,11.168,33.13,11.168C37.442,8.678,39.524,5.455,39.285,2.453C39.094,5.196,37.025,8.044,33.13,10.293Z" fill="#6335a0" /></g><g id="i3" transform="matrix(1,0,0,1,553.595,142.465)"><g id="i3" fill="#ffffff"><path fill-rule="evenodd" d="" /></g><path d="M-13.849,-9.676C-13.849,-9.676,-12.365,-11.579,-12.365,-11.579C-12.365,-11.579,-15.66,-10.722,-15.66,-10.722C-15.66,-10.722,-18.302,-12.132,-18.302,-12.132C-18.302,-12.132,-17.932,-10.057,-17.932,-10.057C-17.932,-10.057,-21.013,-9.046,-21.013,-9.046C-21.013,-9.046,-17.525,-8.6,-17.525,-8.6C-17.525,-8.6,-16.751,-6.585,-16.751,-6.585C-16.751,-6.585,-15.001,-8.364,-15.001,-8.364C-15.001,-8.364,-11.407,-8.15,-11.407,-8.15C-11.407,-8.15,-13.849,-9.676,-13.849,-9.676Z" fill="#ffffff" /><path d="M-5.743,-4.997C-5.743,-4.997,-4.26,-6.899,-4.26,-6.899C-4.26,-6.899,-7.555,-6.042,-7.555,-6.042C-7.555,-6.042,-10.198,-7.453,-10.198,-7.453C-10.198,-7.453,-9.826,-5.377,-9.826,-5.377C-9.826,-5.377,-12.908,-4.367,-12.908,-4.367C-12.908,-4.367,-9.419,-3.92,-9.419,-3.92C-9.419,-3.92,-8.646,-1.906,-8.646,-1.906C-8.646,-1.906,-6.896,-3.685,-6.896,-3.685C-6.896,-3.685,-3.301,-3.471,-3.301,-3.471C-3.301,-3.471,-5.743,-4.997,-5.743,-4.997Z" fill="#ffffff" /><path d="M2.361,-0.317C2.361,-0.317,3.845,-2.22,3.845,-2.22C3.845,-2.22,0.55,-1.363,0.55,-1.363C0.55,-1.363,-2.092,-2.773,-2.092,-2.773C-2.092,-2.773,-1.722,-0.698,-1.722,-0.698C-1.722,-0.698,-4.803,0.313,-4.803,0.313C-4.803,0.313,-1.315,0.759,-1.315,0.759C-1.315,0.759,-0.541,2.773,-0.541,2.773C-0.541,2.773,1.209,0.995,1.209,0.995C1.209,0.995,4.803,1.209,4.803,1.209C4.803,1.209,2.361,-0.317,2.361,-0.317Z" fill="#ffffff" /><path d="M10.467,4.362C10.467,4.362,11.95,2.46,11.95,2.46C11.95,2.46,8.655,3.317,8.655,3.317C8.655,3.317,6.013,1.906,6.013,1.906C6.013,1.906,6.383,3.982,6.383,3.982C6.383,3.982,3.302,4.992,3.302,4.992C3.302,4.992,6.791,5.439,6.791,5.439C6.791,5.439,7.564,7.453,7.564,7.453C7.564,7.453,9.314,5.674,9.314,5.674C9.314,5.674,12.909,5.888,12.909,5.888C12.909,5.888,10.467,4.362,10.467,4.362Z" fill="#ffffff" /><path d="M18.571,9.042C18.571,9.042,20.055,7.139,20.055,7.139C20.055,7.139,16.76,7.996,16.76,7.996C16.76,7.996,14.118,6.586,14.118,6.586C14.118,6.586,14.488,8.661,14.488,8.661C14.488,8.661,11.407,9.672,11.407,9.672C11.407,9.672,14.895,10.118,14.895,10.118C14.895,10.118,15.669,12.132,15.669,12.132C15.669,12.132,17.419,10.354,17.419,10.354C17.419,10.354,21.013,10.567,21.013,10.567C21.013,10.567,18.571,9.042,18.571,9.042Z" fill="#ffffff" /></g></g></g></g></g></g></g><g id="i1"><g transform="translate(752.223,815.556)"><animateTransform repeatCount="indefinite" type="translate" attributeName="transform" dur="4.033s" begin="0s" calcMode="spline" values="752.223 815.556; 752.223 777.556; 752.223 815.556; 752.223 815.556" keyTimes="0; 0.495868; 0.991736; 1" keySplines="0.333 0 0.667 1; 0.333 0 0.667 1; 0 0 1 1" fill="freeze" /><g transform="scale(4.248,4.248) translate(-444.917,-226.729)"><g id="i17"><g transform="translate(511.634,150.9)"><animateTransform repeatCount="indefinite" type="translate" attributeName="transform" dur="4.033s" begin="0s" calcMode="spline" values="511.634 150.9; 504.804 157.479; 497.276 151.371; 504.444 144.614; 511.634 150.9; 511.634 150.9" keyTimes="0; 0.247934; 0.495868; 0.743802; 0.991736; 1" keySplines="0 0 1 1; 0 0 1 1; 0 0 1 1; 0 0 1 1; 0 0 1 1" fill="freeze" /><g transform="scale(1,1) translate(-510.692,-144.78)"><g id="i12" transform="matrix(1,0,0,1,510.693,144.78)"><g id="i3" fill="#ffad0f"><path fill-rule="evenodd" d="M-42.164,-30.552C-42.164,-30.552,-49.241,-26.467,-49.241,-26.467C-56.721,-22.148,-57.534,-15.616,-51.057,-11.876C-51.057,-11.876,28.62,34.125,28.62,34.125C28.62,34.125,49.24,22.221,49.24,22.221C56.721,17.902,57.533,11.37,51.055,7.629C51.055,7.629,-16.892,-31.6,-16.892,-31.6C-19.827,-33.295,-23.753,-34.125,-27.867,-34.125C-32.834,-34.125,-38.073,-32.914,-42.164,-30.552Z" /></g></g><g id="i13" transform="matrix(1,0,0,1,510.695,152.529)"><g id="i3" fill="#ea6add"><path fill-rule="evenodd" d="" /></g><path d="M49.239,13.596C49.239,13.596,28.619,25.502,28.619,25.502C28.619,25.502,-51.058,-20.499,-51.058,-20.499C-53.801,-22.083,-55.223,-24.17,-55.399,-26.376C-55.574,-23.852,-54.162,-21.417,-51.058,-19.624C-51.058,-19.624,28.619,26.377,28.619,26.377C28.619,26.377,49.239,14.471,49.239,14.471C53.551,11.981,55.633,8.759,55.393,5.757C55.203,8.5,53.134,11.347,49.239,13.596Z" fill="#ea6add" /></g><g id="i14" transform="matrix(1,0,0,1,482.842,125.607)"><g id="i3" fill="#ffffff"><path fill-rule="evenodd" d="" /></g><path d="M11.436,6.603C5.16,10.227,-5.049,10.208,-11.365,6.561C-17.681,2.915,-17.713,-2.979,-11.436,-6.603C-5.16,-10.227,5.048,-10.208,11.365,-6.562C17.681,-2.915,17.713,2.979,11.436,6.603Z" fill="#ffffff" /></g><g id="i10" transform="matrix(1,0,0,1,482.605,126.212)"><g id="i3" fill="#ffad0f"><path fill-rule="evenodd" d="M1.466,-4.218C1.145,-4.316,0.661,-4.25,0.299,-4.041C-0.054,-3.837,0.035,-3.462,0.257,-3.245C-0.019,-2.853,-0.147,-2.419,-0.148,-2.012C-0.149,-1.695,-0.586,-1.432,-1.133,-1.439C-2.037,-1.453,-2.939,-1.609,-3.743,-1.895C-4.808,-2.273,-6.216,-2.198,-7.134,-1.669C-7.134,-1.669,-8.725,-0.749,-8.725,-0.749C-9.033,-0.571,-9.032,-0.282,-8.721,-0.102C-8.721,-0.102,-0.2,4.817,-0.2,4.817C0.11,4.996,0.61,4.997,0.919,4.82C0.919,4.82,2.51,3.9,2.51,3.9C3.428,3.37,3.558,2.557,2.903,1.942C2.408,1.478,2.14,0.958,2.116,0.436C2.102,0.12,2.558,-0.132,3.106,-0.132C3.813,-0.133,4.563,-0.207,5.244,-0.365C5.619,-0.238,6.267,-0.187,6.621,-0.391C6.981,-0.599,7.097,-0.88,6.928,-1.066C8.361,-1.977,9.033,-3.068,6.984,-4.252C6.064,-4.783,5.176,-4.997,4.334,-4.997C3.3,-4.997,2.337,-4.675,1.466,-4.218Z" /></g></g><g id="i3" transform="matrix(1,0,0,1,521.549,147.464)"><g id="i3" fill="#ffffff"><path fill-rule="evenodd" d="" /></g><path d="M20.753,4.705C20.753,4.705,12.368,-0.136,12.368,-0.136C12.368,-0.136,10.41,0.994,10.41,0.994C10.41,0.994,18.797,5.836,18.797,5.836C18.797,5.836,20.753,4.705,20.753,4.705Z" fill="#ffffff" /><path d="M16.943,7.722C16.943,7.722,6.941,1.947,6.941,1.947C6.941,1.947,4.983,3.078,4.983,3.078C4.983,3.078,14.985,8.852,14.985,8.852C14.985,8.852,16.943,7.722,16.943,7.722Z" fill="#ffffff" /><path d="M29.24,9.605C29.24,9.605,22.37,5.638,22.37,5.638C22.37,5.638,20.412,6.769,20.412,6.769C20.412,6.769,27.282,10.735,27.282,10.735C27.282,10.735,29.24,9.605,29.24,9.605Z" fill="#ffffff" /><path d="M-5.817,-10.635C-5.817,-10.635,-15.87,-16.376,-15.87,-16.376C-15.87,-16.376,-17.827,-15.246,-17.827,-15.246C-17.827,-15.246,-7.775,-9.505,-7.775,-9.505C-7.775,-9.505,-5.817,-10.635,-5.817,-10.635Z" fill="#ffffff" /><path d="M-7.102,-6.16C-7.102,-6.16,-20.388,-13.768,-20.388,-13.768C-20.388,-13.768,-22.345,-12.638,-22.345,-12.638C-22.345,-12.638,-9.059,-5.03,-9.059,-5.03C-9.059,-5.03,-7.102,-6.16,-7.102,-6.16Z" fill="#ffffff" /><path d="M18.56,8.655C18.56,8.655,16.602,9.785,16.602,9.785C16.602,9.785,19.228,11.302,19.228,11.302C19.228,11.302,21.185,10.171,21.185,10.171C21.185,10.171,18.56,8.655,18.56,8.655Z" fill="#ffffff" /><path d="M6.711,-3.402C6.711,-3.402,-4.2,-9.702,-4.2,-9.702C-4.2,-9.702,-6.156,-8.571,-6.156,-8.571C-6.156,-8.571,4.753,-2.272,4.753,-2.272C4.753,-2.272,6.711,-3.402,6.711,-3.402Z" fill="#ffffff" /><path d="M10.753,-1.069C10.753,-1.069,8.327,-2.469,8.327,-2.469C8.327,-2.469,6.37,-1.339,6.37,-1.339C6.37,-1.339,8.794,0.061,8.794,0.061C8.794,0.061,10.753,-1.069,10.753,-1.069Z" fill="#ffffff" /><path d="M5.326,1.014C5.326,1.014,0.071,-2.019,0.071,-2.019C0.071,-2.019,-1.885,-0.889,-1.885,-0.889C-1.885,-0.889,3.367,2.144,3.367,2.144C3.367,2.144,5.326,1.014,5.326,1.014Z" fill="#ffffff" /><path d="M-5.486,-5.227C-5.486,-5.227,-7.443,-4.097,-7.443,-4.097C-7.443,-4.097,-3.503,-1.822,-3.503,-1.822C-3.503,-1.822,-1.544,-2.952,-1.544,-2.952C-1.544,-2.952,-5.486,-5.227,-5.486,-5.227Z" fill="#ffffff" /><path d="M20.844,12.235C20.844,12.235,28.017,16.376,28.017,16.376C28.017,16.376,29.975,15.246,29.975,15.246C29.975,15.246,22.801,11.105,22.801,11.105C22.801,11.105,20.844,12.235,20.844,12.235Z" fill="#ffffff" /><path d="M-18.203,-1.499C-18.203,-1.499,-7.294,4.8,-7.294,4.8C-7.294,4.8,-5.336,3.67,-5.336,3.67C-5.336,3.67,-16.246,-2.63,-16.246,-2.63C-16.246,-2.63,-18.203,-1.499,-18.203,-1.499Z" fill="#ffffff" /><path d="M-17.863,-3.563C-17.863,-3.563,-28.018,-9.363,-28.018,-9.363C-28.018,-9.363,-29.975,-8.232,-29.975,-8.232C-29.975,-8.232,-19.822,-2.433,-19.822,-2.433C-19.822,-2.433,-17.863,-3.563,-17.863,-3.563Z" fill="#ffffff" /><path d="M-5.677,5.733C-5.677,5.733,-3.253,7.133,-3.253,7.133C-3.253,7.133,-1.294,6.003,-1.294,6.003C-1.294,6.003,-3.72,4.603,-3.72,4.603C-3.72,4.603,-5.677,5.733,-5.677,5.733Z" fill="#ffffff" /></g></g></g></g></g></g></g><g id="i1"><g transform="translate(752.223,815.556)"><animateTransform repeatCount="indefinite" type="translate" attributeName="transform" dur="4.033s" begin="0s" calcMode="spline" values="752.223 815.556; 752.223 777.556; 752.223 815.556; 752.223 815.556" keyTimes="0; 0.495868; 0.991736; 1" keySplines="0.333 0 0.667 1; 0.333 0 0.667 1; 0 0 1 1" fill="freeze" /><g transform="scale(4.248,4.248) translate(-444.917,-226.729)"><g id="i18"><g transform="translate(482.097,191.37)"><animateTransform repeatCount="indefinite" type="translate" attributeName="transform" dur="4.033s" begin="0s" calcMode="spline" values="482.097 191.37; 477.82 195.494; 472.211 192.782; 476.475 187.986; 482.097 191.37; 482.097 191.37" keyTimes="0; 0.247934; 0.495868; 0.743802; 0.991736; 1" keySplines="0 0 1 1; 0 0 1 1; 0 0 1 1; 0 0 1 1; 0 0 1 1" fill="freeze" /><g transform="scale(1,1) translate(-479.692,-174.447)"><g id="i12" transform="matrix(1,0,0,1,479.692,174.447)"><g id="i3" fill="#ffad0f"><path fill-rule="evenodd" d="M-42.163,-30.553C-42.163,-30.553,-49.241,-26.467,-49.241,-26.467C-56.72,-22.149,-57.533,-15.616,-51.055,-11.876C-51.055,-11.876,28.622,34.126,28.622,34.126C28.622,34.126,49.241,22.22,49.241,22.22C56.721,17.901,57.533,11.369,51.056,7.629C51.056,7.629,-16.891,-31.601,-16.891,-31.601C-19.826,-33.296,-23.754,-34.126,-27.868,-34.126C-32.834,-34.126,-38.073,-32.915,-42.163,-30.553Z" /></g></g><g id="i13" transform="matrix(1,0,0,1,479.695,182.196)"><g id="i3" fill="#000000"><path fill-rule="evenodd" d="" /></g><path d="M49.239,13.596C49.239,13.596,28.619,25.501,28.619,25.501C28.619,25.501,-51.058,-20.5,-51.058,-20.5C-53.801,-22.084,-55.223,-24.171,-55.399,-26.376C-55.574,-23.852,-54.162,-21.418,-51.058,-19.625C-51.058,-19.625,28.619,26.376,28.619,26.376C28.619,26.376,49.239,14.471,49.239,14.471C53.551,11.982,55.633,8.758,55.393,5.756C55.203,8.499,53.134,11.347,49.239,13.596Z" fill="#000000" /></g><g id="i14" transform="matrix(1,0,0,1,451.842,155.733)"><g id="i3" fill="#ffffff"><path fill-rule="evenodd" d="M-11.436,-7.062C-17.713,-3.437,-17.682,2.456,-11.366,6.103C-5.05,9.749,5.159,9.768,11.436,6.144C17.713,2.521,17.682,-3.373,11.365,-7.02C8.193,-8.851,4.04,-9.768,-0.103,-9.768C-4.212,-9.768,-8.311,-8.866,-11.436,-7.062Z" /></g></g><g id="i10" transform="matrix(1,0,0,1,451.605,155.879)"><g id="i3" fill="#ffad0f"><path fill-rule="evenodd" d="M1.466,-4.219C1.144,-4.317,0.659,-4.249,0.298,-4.041C-0.055,-3.837,0.035,-3.463,0.255,-3.247C-0.02,-2.854,-0.147,-2.421,-0.148,-2.013C-0.149,-1.696,-0.586,-1.433,-1.134,-1.441C-2.038,-1.454,-2.939,-1.61,-3.743,-1.895C-4.808,-2.274,-6.217,-2.198,-7.135,-1.668C-7.135,-1.668,-8.725,-0.75,-8.725,-0.75C-9.033,-0.573,-9.032,-0.283,-8.721,-0.104C-8.721,-0.104,-0.202,4.816,-0.202,4.816C0.109,4.995,0.61,4.996,0.919,4.818C0.919,4.818,2.509,3.899,2.509,3.899C3.427,3.369,3.557,2.557,2.902,1.941C2.407,1.477,2.139,0.957,2.116,0.435C2.102,0.118,2.557,-0.134,3.105,-0.134C3.812,-0.134,4.562,-0.208,5.243,-0.368C5.617,-0.241,6.267,-0.188,6.621,-0.392C6.981,-0.601,7.097,-0.881,6.927,-1.066C8.361,-1.978,9.033,-3.068,6.983,-4.252C6.063,-4.783,5.175,-4.997,4.333,-4.997C3.299,-4.997,2.335,-4.675,1.466,-4.219Z" /></g></g><g id="i3" transform="matrix(1,0,0,1,490.549,177.131)"><g id="i3" fill="#ffffff"><path fill-rule="evenodd" d="" /></g><path d="M20.754,4.705C20.754,4.705,12.369,-0.136,12.369,-0.136C12.369,-0.136,10.411,0.994,10.411,0.994C10.411,0.994,18.797,5.836,18.797,5.836C18.797,5.836,20.754,4.705,20.754,4.705Z" fill="#ffffff" /><path d="M16.943,7.722C16.943,7.722,6.942,1.947,6.942,1.947C6.942,1.947,4.984,3.078,4.984,3.078C4.984,3.078,14.986,8.852,14.986,8.852C14.986,8.852,16.943,7.722,16.943,7.722Z" fill="#ffffff" /><path d="M29.24,9.605C29.24,9.605,22.371,5.639,22.371,5.639C22.371,5.639,20.413,6.769,20.413,6.769C20.413,6.769,27.283,10.735,27.283,10.735C27.283,10.735,29.24,9.605,29.24,9.605Z" fill="#ffffff" /><path d="M-5.816,-10.635C-5.816,-10.635,-15.869,-16.376,-15.869,-16.376C-15.869,-16.376,-17.826,-15.246,-17.826,-15.246C-17.826,-15.246,-7.774,-9.504,-7.774,-9.504C-7.774,-9.504,-5.816,-10.635,-5.816,-10.635Z" fill="#ffffff" /><path d="M-7.101,-6.16C-7.101,-6.16,-20.387,-13.767,-20.387,-13.767C-20.387,-13.767,-22.345,-12.638,-22.345,-12.638C-22.345,-12.638,-9.058,-5.03,-9.058,-5.03C-9.058,-5.03,-7.101,-6.16,-7.101,-6.16Z" fill="#ffffff" /><path d="M18.56,8.655C18.56,8.655,16.602,9.785,16.602,9.785C16.602,9.785,19.229,11.302,19.229,11.302C19.229,11.302,21.186,10.171,21.186,10.171C21.186,10.171,18.56,8.655,18.56,8.655Z" fill="#ffffff" /><path d="M6.712,-3.402C6.712,-3.402,-4.199,-9.702,-4.199,-9.702C-4.199,-9.702,-6.156,-8.571,-6.156,-8.571C-6.156,-8.571,4.754,-2.272,4.754,-2.272C4.754,-2.272,6.712,-3.402,6.712,-3.402Z" fill="#ffffff" /><path d="M10.753,-1.069C10.753,-1.069,8.328,-2.469,8.328,-2.469C8.328,-2.469,6.37,-1.339,6.37,-1.339C6.37,-1.339,8.795,0.061,8.795,0.061C8.795,0.061,10.753,-1.069,10.753,-1.069Z" fill="#ffffff" /><path d="M5.326,1.014C5.326,1.014,0.072,-2.018,0.072,-2.018C0.072,-2.018,-1.885,-0.889,-1.885,-0.889C-1.885,-0.889,3.368,2.145,3.368,2.145C3.368,2.145,5.326,1.014,5.326,1.014Z" fill="#ffffff" /><path d="M-5.485,-5.227C-5.485,-5.227,-7.442,-4.097,-7.442,-4.097C-7.442,-4.097,-3.502,-1.822,-3.502,-1.822C-3.502,-1.822,-1.544,-2.952,-1.544,-2.952C-1.544,-2.952,-5.485,-5.227,-5.485,-5.227Z" fill="#ffffff" /><path d="M20.845,12.235C20.845,12.235,28.018,16.377,28.018,16.377C28.018,16.377,29.976,15.246,29.976,15.246C29.976,15.246,22.802,11.105,22.802,11.105C22.802,11.105,20.845,12.235,20.845,12.235Z" fill="#ffffff" /><path d="M-18.203,-1.499C-18.203,-1.499,-7.293,4.8,-7.293,4.8C-7.293,4.8,-5.335,3.67,-5.335,3.67C-5.335,3.67,-16.246,-2.63,-16.246,-2.63C-16.246,-2.63,-18.203,-1.499,-18.203,-1.499Z" fill="#ffffff" /><path d="M-17.863,-3.563C-17.863,-3.563,-28.017,-9.363,-28.017,-9.363C-28.017,-9.363,-29.975,-8.232,-29.975,-8.232C-29.975,-8.232,-19.821,-2.433,-19.821,-2.433C-19.821,-2.433,-17.863,-3.563,-17.863,-3.563Z" fill="#ffffff" /><path d="M-5.677,5.733C-5.677,5.733,-3.252,7.133,-3.252,7.133C-3.252,7.133,-1.294,6.003,-1.294,6.003C-1.294,6.003,-3.719,4.603,-3.719,4.603C-3.719,4.603,-5.677,5.733,-5.677,5.733Z" fill="#ffffff" /></g></g></g></g></g></g></g><g id="i1"><g transform="translate(752.223,815.556)"><animateTransform repeatCount="indefinite" type="translate" attributeName="transform" dur="4.033s" begin="0s" calcMode="spline" values="752.223 815.556; 752.223 777.556; 752.223 815.556; 752.223 815.556" keyTimes="0; 0.495868; 0.991736; 1" keySplines="0.333 0 0.667 1; 0.333 0 0.667 1; 0 0 1 1" fill="freeze" /><g transform="scale(4.248,4.248) translate(-444.917,-226.729)"><g id="i19"><g transform="translate(407.051,224.997)"><animateTransform repeatCount="indefinite" type="translate" attributeName="transform" dur="4.033s" begin="0s" calcMode="spline" values="407.051 224.997; 430.589 229.704; 407.051 224.997; 407.051 224.997" keyTimes="0; 0.495868; 0.991736; 1" keySplines="0.167 0.004 0.667 1; 0.178 0 0.577 0.897; 0 0 1 1" fill="freeze" /><g transform="scale(1,1) translate(-406.109,-218.877)"><g id="i12" transform="matrix(1,0,0,1,406.109,218.877)"><g id="i3" fill="#ffad0f"><path fill-rule="evenodd" d="M-42.163,-30.552C-42.163,-30.552,-49.241,-26.466,-49.241,-26.466C-56.72,-22.148,-57.533,-15.616,-51.055,-11.876C-51.055,-11.876,28.622,34.125,28.622,34.125C28.622,34.125,49.241,22.221,49.241,22.221C56.721,17.902,57.533,11.37,51.056,7.629C51.056,7.629,-16.891,-31.6,-16.891,-31.6C-19.826,-33.295,-23.753,-34.125,-27.867,-34.125C-32.834,-34.125,-38.073,-32.914,-42.163,-30.552Z" /></g></g><g id="i13" transform="matrix(1,0,0,1,406.112,226.626)"><g id="i3" fill="#000000"><path fill-rule="evenodd" d="" /></g><path d="M49.239,13.597C49.239,13.597,28.619,25.501,28.619,25.501C28.619,25.501,-51.058,-20.5,-51.058,-20.5C-53.801,-22.084,-55.223,-24.171,-55.399,-26.376C-55.574,-23.852,-54.162,-21.417,-51.058,-19.625C-51.058,-19.625,28.619,26.376,28.619,26.376C28.619,26.376,49.239,14.472,49.239,14.472C53.551,11.982,55.633,8.758,55.393,5.756C55.203,8.499,53.134,11.348,49.239,13.597Z" fill="#000000" /></g><g id="i14" transform="matrix(1,0,0,1,378.259,200.163)"><g id="i3" fill="#ffffff"><path fill-rule="evenodd" d="M-11.436,-7.061C-17.713,-3.437,-17.682,2.456,-11.365,6.103C-5.05,9.75,5.16,9.768,11.436,6.144C17.714,2.521,17.682,-3.373,11.365,-7.02C8.194,-8.851,4.041,-9.768,-0.102,-9.768C-4.211,-9.768,-8.311,-8.865,-11.436,-7.061Z" /></g></g><g id="i10" transform="matrix(1,0,0,1,378.023,200.309)"><g id="i3" fill="#c7a868"><path fill-rule="evenodd" d="M1.466,-4.217C1.144,-4.315,0.659,-4.248,0.298,-4.04C-0.055,-3.837,0.035,-3.461,0.255,-3.245C-0.02,-2.853,-0.148,-2.421,-0.149,-2.012C-0.15,-1.697,-0.586,-1.433,-1.135,-1.441C-2.038,-1.454,-2.94,-1.609,-3.744,-1.895C-4.809,-2.273,-6.218,-2.198,-7.136,-1.669C-7.136,-1.669,-8.726,-0.749,-8.726,-0.749C-9.034,-0.572,-9.033,-0.283,-8.722,-0.104C-8.722,-0.104,-0.202,4.816,-0.202,4.816C0.108,4.996,0.61,4.996,0.918,4.818C0.918,4.818,2.51,3.9,2.51,3.9C3.428,3.369,3.557,2.557,2.902,1.943C2.407,1.479,2.138,0.957,2.114,0.436C2.101,0.12,2.557,-0.133,3.105,-0.133C3.812,-0.135,4.562,-0.208,5.242,-0.367C5.617,-0.239,6.266,-0.187,6.62,-0.391C6.98,-0.599,7.096,-0.88,6.926,-1.066C8.36,-1.977,9.033,-3.067,6.983,-4.251C6.063,-4.782,5.175,-4.997,4.333,-4.997C3.299,-4.997,2.335,-4.674,1.466,-4.217Z" /></g></g><g id="i3" transform="matrix(1,0,0,1,416.965,221.561)"><g id="i3" fill="#ffffff"><path fill-rule="evenodd" d="" /></g><path d="M20.754,4.706C20.754,4.706,12.369,-0.136,12.369,-0.136C12.369,-0.136,10.411,0.995,10.411,0.995C10.411,0.995,18.797,5.836,18.797,5.836C18.797,5.836,20.754,4.706,20.754,4.706Z" fill="#ffffff" /><path d="M16.943,7.722C16.943,7.722,6.942,1.948,6.942,1.948C6.942,1.948,4.984,3.078,4.984,3.078C4.984,3.078,14.986,8.852,14.986,8.852C14.986,8.852,16.943,7.722,16.943,7.722Z" fill="#ffffff" /><path d="M29.24,9.605C29.24,9.605,22.371,5.638,22.371,5.638C22.371,5.638,20.413,6.769,20.413,6.769C20.413,6.769,27.283,10.735,27.283,10.735C27.283,10.735,29.24,9.605,29.24,9.605Z" fill="#ffffff" /><path d="M-5.816,-10.635C-5.816,-10.635,-15.869,-16.376,-15.869,-16.376C-15.869,-16.376,-17.826,-15.246,-17.826,-15.246C-17.826,-15.246,-7.774,-9.504,-7.774,-9.504C-7.774,-9.504,-5.816,-10.635,-5.816,-10.635Z" fill="#ffffff" /><path d="M-7.101,-6.16C-7.101,-6.16,-20.387,-13.768,-20.387,-13.768C-20.387,-13.768,-22.345,-12.637,-22.345,-12.637C-22.345,-12.637,-9.059,-5.03,-9.059,-5.03C-9.059,-5.03,-7.101,-6.16,-7.101,-6.16Z" fill="#ffffff" /><path d="M18.56,8.655C18.56,8.655,16.602,9.786,16.602,9.786C16.602,9.786,19.229,11.302,19.229,11.302C19.229,11.302,21.186,10.171,21.186,10.171C21.186,10.171,18.56,8.655,18.56,8.655Z" fill="#ffffff" /><path d="M6.712,-3.402C6.712,-3.402,-4.199,-9.702,-4.199,-9.702C-4.199,-9.702,-6.156,-8.572,-6.156,-8.572C-6.156,-8.572,4.754,-2.272,4.754,-2.272C4.754,-2.272,6.712,-3.402,6.712,-3.402Z" fill="#ffffff" /><path d="M10.753,-1.069C10.753,-1.069,8.328,-2.469,8.328,-2.469C8.328,-2.469,6.37,-1.338,6.37,-1.338C6.37,-1.338,8.795,0.061,8.795,0.061C8.795,0.061,10.753,-1.069,10.753,-1.069Z" fill="#ffffff" /><path d="M5.326,1.014C5.326,1.014,0.072,-2.019,0.072,-2.019C0.072,-2.019,-1.885,-0.888,-1.885,-0.888C-1.885,-0.888,3.368,2.144,3.368,2.144C3.368,2.144,5.326,1.014,5.326,1.014Z" fill="#ffffff" /><path d="M-5.485,-5.227C-5.485,-5.227,-7.442,-4.096,-7.442,-4.096C-7.442,-4.096,-3.502,-1.822,-3.502,-1.822C-3.502,-1.822,-1.544,-2.952,-1.544,-2.952C-1.544,-2.952,-5.485,-5.227,-5.485,-5.227Z" fill="#ffffff" /><path d="M20.845,12.235C20.845,12.235,28.018,16.377,28.018,16.377C28.018,16.377,29.975,15.246,29.975,15.246C29.975,15.246,22.802,11.105,22.802,11.105C22.802,11.105,20.845,12.235,20.845,12.235Z" fill="#ffffff" /><path d="M-18.203,-1.499C-18.203,-1.499,-7.293,4.8,-7.293,4.8C-7.293,4.8,-5.335,3.67,-5.335,3.67C-5.335,3.67,-16.246,-2.629,-16.246,-2.629C-16.246,-2.629,-18.203,-1.499,-18.203,-1.499Z" fill="#ffffff" /><path d="M-17.863,-3.563C-17.863,-3.563,-28.017,-9.363,-28.017,-9.363C-28.017,-9.363,-29.975,-8.232,-29.975,-8.232C-29.975,-8.232,-19.821,-2.433,-19.821,-2.433C-19.821,-2.433,-17.863,-3.563,-17.863,-3.563Z" fill="#ffffff" /><path d="M-5.677,5.733C-5.677,5.733,-3.252,7.133,-3.252,7.133C-3.252,7.133,-1.294,6.003,-1.294,6.003C-1.294,6.003,-3.719,4.603,-3.719,4.603C-3.719,4.603,-5.677,5.733,-5.677,5.733Z" fill="#ffffff" /></g></g></g></g></g></g></g><g id="i1"><g transform="translate(752.223,815.556)"><animateTransform repeatCount="indefinite" type="translate" attributeName="transform" dur="4.033s" begin="0s" calcMode="spline" values="752.223 815.556; 752.223 777.556; 752.223 815.556; 752.223 815.556" keyTimes="0; 0.495868; 0.991736; 1" keySplines="0.333 0 0.667 1; 0.333 0 0.667 1; 0 0 1 1" fill="freeze" /><g transform="scale(4.248,4.248) translate(-444.917,-226.729)"><g id="i20"><g transform="translate(402.593,206.07)"><animateTransform repeatCount="indefinite" type="translate" attributeName="transform" dur="4.033s" begin="0s" calcMode="spline" values="402.593 206.07; 391.766 194.301; 402.593 206.07; 402.593 206.07" keyTimes="0; 0.495868; 0.991736; 1" keySplines="0.333 0 0.667 1; 0.333 0 0.667 1; 0 0 1 1" fill="freeze" /><g transform="scale(1,1) translate(-401.652,-199.95)"><g id="i21" transform="matrix(1,0,0,1,409.658,190.712)"><g id="i3" fill="#ffd10f"><path fill-rule="evenodd" d="M-31.28,-36.872C-31.28,-36.872,-60.128,-20.148,-60.128,-20.148C-67.608,-15.83,-68.418,-9.298,-61.941,-5.557C-61.941,-5.557,17.736,40.444,17.736,40.444C17.736,40.444,60.125,15.901,60.125,15.901C67.605,11.583,68.418,5.05,61.939,1.31C61.939,1.31,-6.008,-37.92,-6.008,-37.92C-8.943,-39.614,-12.869,-40.444,-16.983,-40.444C-21.95,-40.444,-27.189,-39.234,-31.28,-36.872Z" /></g></g><g id="i2" transform="matrix(1,0,0,1,409.659,204.779)"><g id="i3" fill="#000000"><path fill-rule="evenodd" d="" /></g><path d="M60.124,0.959C60.124,0.959,17.732,25.501,17.732,25.501C17.732,25.501,-61.943,-20.499,-61.943,-20.499C-64.687,-22.084,-66.108,-24.17,-66.284,-26.376C-66.46,-23.852,-65.048,-21.417,-61.943,-19.624C-61.943,-19.624,17.732,26.376,17.732,26.376C17.732,26.376,60.124,1.834,60.124,1.834C64.436,-0.655,66.518,-3.879,66.279,-6.881C66.088,-4.138,64.02,-1.29,60.124,0.959Z" fill="#000000" /></g><g id="i4" transform="matrix(1,0,0,1,366.651,229.712)"><g id="i3" fill="#ffe00f"><path fill-rule="evenodd" d="M-32.94,-21.204C-32.94,-21.204,-33.132,-21.148,-33.132,-21.148C-40.611,-16.83,-41.423,-10.298,-34.945,-6.557C-34.945,-6.557,19.398,24.777,19.398,24.777C19.398,24.777,33.133,16.902,33.133,16.902C40.612,12.584,41.424,6.05,34.947,2.309C34.947,2.309,-7.668,-22.253,-7.668,-22.253C-10.603,-23.947,-14.531,-24.777,-18.645,-24.777C-23.611,-24.777,-28.848,-23.566,-32.94,-21.204Z" /></g></g><g opacity="0.25"><g id="i5" transform="translate(392.692,165.221)"><animateTransform repeatCount="indefinite" type="translate" attributeName="transform" dur="4.033s" begin="0s" calcMode="spline" values="392.692 165.221; 392.692 165.221; 392.692 169.81; 392.692 165.221; 392.692 165.221; 392.692 169.81; 392.692 165.221; 392.692 165.221" keyTimes="0; 0.247934; 0.371901; 0.495868; 0.743802; 0.867768; 0.991736; 1" keySplines="0 0 1 1; 0.167 0.167 0.667 1; 0.333 0 0.833 0.833; 0 0 1 1; 0.167 0.167 0.667 1; 0.333 0 0.833 0.833; 0 0 1 1" fill="freeze" /><g id="i3" fill="#ffffff"><path d="" /></g><path d="M11.437,6.603C5.16,10.227,-5.048,10.208,-11.365,6.561C-17.68,2.915,-17.712,-2.979,-11.436,-6.603C-5.159,-10.227,5.049,-10.208,11.366,-6.562C17.681,-2.915,17.713,2.979,11.437,6.603Z" fill="#ffffff" /></g></g><g id="i6" transform="matrix(1,0,0,1,366.654,235.445)"><g id="i3" fill="#000000"><path fill-rule="evenodd" d="" /></g><path d="M33.129,10.293C33.129,10.293,19.395,18.168,19.395,18.168C19.395,18.168,-34.948,-13.167,-34.948,-13.167C-37.692,-14.751,-39.113,-16.838,-39.288,-19.043C-39.464,-16.519,-38.052,-14.084,-34.948,-12.292C-34.948,-12.292,19.395,19.043,19.395,19.043C19.395,19.043,33.129,11.168,33.129,11.168C37.441,8.679,39.523,5.454,39.284,2.453C39.093,5.195,37.025,8.044,33.129,10.293Z" fill="#000000" /></g><g opacity="0.5"><g id="i7" transform="translate(392.692,159.971)"><animateTransform repeatCount="indefinite" type="translate" attributeName="transform" dur="4.033s" begin="0s" calcMode="spline" values="392.692 159.971; 392.692 159.971; 392.692 162.913; 392.692 159.971; 392.692 159.971; 392.692 162.913; 392.692 159.971; 392.692 159.971" keyTimes="0; 0.123967; 0.247934; 0.371901; 0.619835; 0.743801; 0.867769; 1" keySplines="0 0 1 1; 0.167 0.167 0.667 1; 0.333 0 0.833 0.833; 0 0 1 1; 0.167 0.167 0.667 1; 0.333 0 0.833 0.833; 0 0 1 1" fill="freeze" /><g id="i3" fill="#ffffff"><path d="" /></g><path d="M11.437,6.603C5.16,10.227,-5.048,10.208,-11.365,6.561C-17.68,2.915,-17.712,-2.979,-11.436,-6.603C-5.159,-10.227,5.049,-10.208,11.366,-6.562C17.681,-2.915,17.713,2.979,11.437,6.603Z" fill="#ffffff" /></g></g><g><g id="i8" transform="translate(392.692,154.72)"><animateTransform repeatCount="indefinite" type="translate" attributeName="transform" dur="4.033s" begin="0s" calcMode="spline" values="392.692 154.72; 392.692 157.015; 392.692 154.72; 392.692 154.72; 392.692 157.015; 392.692 154.72; 392.692 154.72" keyTimes="0; 0.123967; 0.247934; 0.495868; 0.619834; 0.743802; 1" keySplines="0.167 0.167 0.667 1; 0.333 0 0.833 0.833; 0 0 1 1; 0.167 0.167 0.667 1; 0.333 0 0.833 0.833; 0 0 1 1" fill="freeze" /><g id="i3" fill="#ffffff"><path fill-rule="evenodd" d="" /></g><path d="M11.437,6.603C5.16,10.227,-5.048,10.208,-11.365,6.561C-17.68,2.915,-17.712,-2.979,-11.436,-6.603C-5.159,-10.227,5.049,-10.208,11.366,-6.562C17.681,-2.915,17.713,2.979,11.437,6.603Z" fill="#ffffff" /></g></g><g><g id="i9" transform="translate(392.455,155.324)"><animateTransform repeatCount="indefinite" type="translate" attributeName="transform" dur="4.033s" begin="0s" calcMode="spline" values="392.455 155.324; 392.455 156.619; 392.455 155.324; 392.455 155.324; 392.455 156.619; 392.455 155.324; 392.455 155.324" keyTimes="0; 0.123967; 0.247934; 0.495868; 0.619834; 0.743802; 1" keySplines="0.167 0.167 0.667 1; 0.333 0 0.833 0.833; 0 0 1 1; 0.167 0.167 0.667 1; 0.333 0 0.833 0.833; 0 0 1 1" fill="freeze" /><g id="i3" fill="#ffad0f"><path fill-rule="evenodd" d="M1.466,-4.218C1.145,-4.316,0.661,-4.249,0.3,-4.041C-0.053,-3.836,0.036,-3.462,0.255,-3.245C-0.018,-2.853,-0.147,-2.42,-0.149,-2.011C-0.15,-1.695,-0.586,-1.432,-1.132,-1.44C-2.037,-1.453,-2.939,-1.609,-3.743,-1.894C-4.808,-2.272,-6.215,-2.198,-7.133,-1.668C-7.133,-1.668,-8.725,-0.749,-8.725,-0.749C-9.033,-0.571,-9.032,-0.282,-8.72,-0.102C-8.72,-0.102,-0.2,4.817,-0.2,4.817C0.11,4.996,0.611,4.997,0.92,4.819C0.92,4.819,2.511,3.901,2.511,3.901C3.428,3.371,3.558,2.557,2.902,1.942C2.408,1.479,2.14,0.958,2.117,0.436C2.102,0.12,2.559,-0.132,3.107,-0.133C3.813,-0.134,4.564,-0.208,5.243,-0.366C5.619,-0.239,6.267,-0.187,6.62,-0.391C6.98,-0.599,7.097,-0.879,6.927,-1.064C8.362,-1.977,9.033,-3.068,6.985,-4.25C6.064,-4.782,5.176,-4.997,4.334,-4.997C3.3,-4.997,2.337,-4.674,1.466,-4.218Z" /></g></g></g><g id="i11" transform="matrix(1,0,0,1,432.054,190.19)" opacity="0.25"><g id="i3" fill="#ffffff"><path d="" /></g><path d="M8.315,2.299C8.315,2.299,2.999,-0.601,2.999,-0.601C2.999,-0.601,1.033,0.534,1.033,0.534C1.033,0.534,6.348,3.433,6.348,3.433C6.348,3.433,8.315,2.299,8.315,2.299Z" fill="#ffffff" /><path d="M10.48,0.58C10.48,0.58,17.683,4.739,17.683,4.739C17.683,4.739,19.649,3.604,19.649,3.604C19.649,3.604,12.446,-0.555,12.446,-0.555C12.446,-0.555,10.48,0.58,10.48,0.58Z" fill="#ffffff" /><path d="M12.741,7.124C12.741,7.124,19.639,11.107,19.639,11.107C19.639,11.107,21.605,9.972,21.605,9.972C21.605,9.972,14.707,5.989,14.707,5.989C14.707,5.989,12.741,7.124,12.741,7.124Z" fill="#ffffff" /><path d="M19.306,5.676C19.306,5.676,22.388,7.455,22.388,7.455C22.388,7.455,24.355,6.32,24.355,6.32C24.355,6.32,21.273,4.541,21.273,4.541C21.273,4.541,19.306,5.676,19.306,5.676Z" fill="#ffffff" /><path d="M-15.036,-13.956C-15.036,-13.956,-11.079,-11.671,-11.079,-11.671C-11.079,-11.671,-9.114,-12.807,-9.114,-12.807C-9.114,-12.807,-13.071,-15.091,-13.071,-15.091C-13.071,-15.091,-15.036,-13.956,-15.036,-13.956Z" fill="#ffffff" /><path d="M-4.417,-4.857C-4.417,-4.857,-6.853,-6.262,-6.853,-6.262C-6.853,-6.262,-8.819,-5.128,-8.819,-5.128C-8.819,-5.128,-6.384,-3.721,-6.384,-3.721C-6.384,-3.721,-4.417,-4.857,-4.417,-4.857Z" fill="#ffffff" /><path d="M-2.214,-8.823C-2.214,-8.823,-7.49,-11.869,-7.49,-11.869C-7.49,-11.869,-9.456,-10.734,-9.456,-10.734C-9.456,-10.734,-4.18,-7.688,-4.18,-7.688C-4.18,-7.688,-2.214,-8.823,-2.214,-8.823Z" fill="#ffffff" /><path d="M5.203,-4.568C5.203,-4.568,-0.591,-7.886,-0.591,-7.886C-0.591,-7.886,-2.557,-6.751,-2.557,-6.751C-2.557,-6.751,3.236,-3.433,3.236,-3.433C3.236,-3.433,5.203,-4.568,5.203,-4.568Z" fill="#ffffff" /><path d="M5.604,5.973C5.604,5.973,-0.016,2.897,-0.016,2.897C-0.016,2.897,-1.983,4.032,-1.983,4.032C-1.983,4.032,3.637,7.108,3.637,7.108C3.637,7.108,5.604,5.973,5.604,5.973Z" fill="#ffffff" /><path d="M-8.064,-15.17C-8.064,-15.17,2.893,-8.843,2.893,-8.843C2.893,-8.843,4.859,-9.979,4.859,-9.979C4.859,-9.979,-6.098,-16.305,-6.098,-16.305C-6.098,-16.305,-8.064,-15.17,-8.064,-15.17Z" fill="#ffffff" /><path d="M5.746,13.564C5.746,13.564,7.713,12.429,7.713,12.429C7.713,12.429,5.023,10.876,5.023,10.876C5.023,10.876,3.057,12.012,3.057,12.012C3.057,12.012,5.746,13.564,5.746,13.564Z" fill="#ffffff" /><path d="M16.493,12.149C16.493,12.149,7.227,6.91,7.227,6.91C7.227,6.91,5.261,8.045,5.261,8.045C5.261,8.045,14.527,13.284,14.527,13.284C14.527,13.284,16.493,12.149,16.493,12.149Z" fill="#ffffff" /><path d="M-6.114,-0.597C-6.114,-0.597,-14.636,-5.517,-14.636,-5.517C-14.636,-5.517,-16.603,-4.382,-16.603,-4.382C-16.603,-4.382,-8.08,0.538,-8.08,0.538C-8.08,0.538,-6.114,-0.597,-6.114,-0.597Z" fill="#ffffff" /><path d="M10.823,-1.492C10.823,-1.492,6.826,-3.631,6.826,-3.631C6.826,-3.631,4.86,-2.496,4.86,-2.496C4.86,-2.496,8.856,-0.357,8.856,-0.357C8.856,-0.357,10.823,-1.492,10.823,-1.492Z" fill="#ffffff" /><path d="M-16.26,-6.455C-16.26,-6.455,-21.536,-9.501,-21.536,-9.501C-21.536,-9.501,-23.501,-8.365,-23.501,-8.365C-23.501,-8.365,-18.226,-5.319,-18.226,-5.319C-18.226,-5.319,-16.26,-6.455,-16.26,-6.455Z" fill="#ffffff" /><path d="M-21.4,-12.391C-21.4,-12.391,-10.442,-6.065,-10.442,-6.065C-10.442,-6.065,-8.476,-7.2,-8.476,-7.2C-8.476,-7.2,-19.434,-13.526,-19.434,-13.526C-19.434,-13.526,-21.4,-12.391,-21.4,-12.391Z" fill="#ffffff" /><path d="M-13.39,0.441C-13.39,0.441,-24.348,-5.885,-24.348,-5.885C-24.348,-5.885,-26.314,-4.75,-26.314,-4.75C-26.314,-4.75,-15.357,1.576,-15.357,1.576C-15.357,1.576,-13.39,0.441,-13.39,0.441Z" fill="#ffffff" /><path d="M1.376,-1.539C1.376,-1.539,-2.794,-3.92,-2.794,-3.92C-2.794,-3.92,-4.76,-2.784,-4.76,-2.784C-4.76,-2.784,-0.59,-0.403,-0.59,-0.403C-0.59,-0.403,1.376,-1.539,1.376,-1.539Z" fill="#ffffff" /><path d="M3.4,9.939C3.4,9.939,-1.915,7.039,-1.915,7.039C-1.915,7.039,-3.882,8.175,-3.882,8.175C-3.882,8.175,1.434,11.075,1.434,11.075C1.434,11.075,3.4,9.939,3.4,9.939Z" fill="#ffffff" /><path d="M-9.675,4.856C-9.675,4.856,-5.505,7.237,-5.505,7.237C-5.505,7.237,-3.539,6.102,-3.539,6.102C-3.539,6.102,-7.708,3.721,-7.708,3.721C-7.708,3.721,-9.675,4.856,-9.675,4.856Z" fill="#ffffff" /><path d="M-1.64,1.96C-1.64,1.96,-4.491,0.34,-4.491,0.34C-4.491,0.34,-6.456,1.475,-6.456,1.475C-6.456,1.475,-3.606,3.095,-3.606,3.095C-3.606,3.095,-1.64,1.96,-1.64,1.96Z" fill="#ffffff" /><path d="M-13.734,2.514C-13.734,2.514,-11.298,3.919,-11.298,3.919C-11.298,3.919,-9.332,2.784,-9.332,2.784C-9.332,2.784,-11.767,1.378,-11.767,1.378C-11.767,1.378,-13.734,2.514,-13.734,2.514Z" fill="#ffffff" /><path d="M25.608,14.443C25.608,14.443,27.738,15.672,27.738,15.672C27.738,15.672,29.705,14.537,29.705,14.537C29.705,14.537,27.574,13.307,27.574,13.307C27.574,13.307,25.608,14.443,25.608,14.443Z" fill="#ffffff" /><path d="M16.302,14.309C16.302,14.309,23.201,18.292,23.201,18.292C23.201,18.292,25.168,17.157,25.168,17.157C25.168,17.157,18.268,13.173,18.268,13.173C18.268,13.173,16.302,14.309,16.302,14.309Z" fill="#ffffff" /><path d="M14.454,18.481C14.454,18.481,18.562,20.853,18.562,20.853C18.562,20.853,20.529,19.718,20.529,19.718C20.529,19.718,16.42,17.345,16.42,17.345C16.42,17.345,14.454,18.481,14.454,18.481Z" fill="#ffffff" /><path d="M7.37,14.501C7.37,14.501,12.831,17.543,12.831,17.543C12.831,17.543,14.797,16.409,14.797,16.409C14.797,16.409,9.336,13.366,9.336,13.366C9.336,13.366,7.37,14.501,7.37,14.501Z" fill="#ffffff" /><path d="M-7.721,-17.242C-7.721,-17.242,-13.973,-20.852,-13.973,-20.852C-13.973,-20.852,-15.94,-19.716,-15.94,-19.716C-15.94,-19.716,-9.688,-16.107,-9.688,-16.107C-9.688,-16.107,-7.721,-17.242,-7.721,-17.242Z" fill="#ffffff" /><path d="M34.089,11.829C34.089,11.829,25.686,7.089,25.686,7.089C25.686,7.089,23.72,8.224,23.72,8.224C23.72,8.224,32.124,12.965,32.124,12.965C32.124,12.965,34.089,11.829,34.089,11.829Z" fill="#ffffff" /><path d="M26.294,12.568C26.294,12.568,23.229,10.91,23.229,10.91C23.229,10.91,21.263,12.044,21.263,12.044C21.263,12.044,24.327,13.703,24.327,13.703C24.327,13.703,26.294,12.568,26.294,12.568Z" fill="#ffffff" /><path d="M13.083,5.052C13.083,5.052,9.938,3.236,9.938,3.236C9.938,3.236,7.972,4.371,7.972,4.371C7.972,4.371,11.117,6.187,11.117,6.187C11.117,6.187,13.083,5.052,13.083,5.052Z" fill="#ffffff" /><path d="M-14.694,-16.028C-14.694,-16.028,-18.51,-18.232,-18.51,-18.232C-18.51,-18.232,-20.477,-17.097,-20.477,-17.097C-20.477,-17.097,-16.66,-14.893,-16.66,-14.893C-16.66,-14.893,-14.694,-16.028,-14.694,-16.028Z" fill="#ffffff" /><path d="M-25.971,-6.822C-25.971,-6.822,-32.121,-10.374,-32.121,-10.374C-32.121,-10.374,-34.088,-9.238,-34.088,-9.238C-34.088,-9.238,-27.937,-5.688,-27.937,-5.688C-27.937,-5.688,-25.971,-6.822,-25.971,-6.822Z" fill="#ffffff" /><path d="M-23.159,-10.438C-23.159,-10.438,-27.584,-12.993,-27.584,-12.993C-27.584,-12.993,-29.551,-11.858,-29.551,-11.858C-29.551,-11.858,-25.125,-9.303,-25.125,-9.303C-25.125,-9.303,-23.159,-10.438,-23.159,-10.438Z" fill="#ffffff" /><path d="M-21.057,-14.463C-21.057,-14.463,-23.047,-15.613,-23.047,-15.613C-23.047,-15.613,-25.014,-14.478,-25.014,-14.478C-25.014,-14.478,-23.023,-13.328,-23.023,-13.328C-23.023,-13.328,-21.057,-14.463,-21.057,-14.463Z" fill="#ffffff" /></g><g id="i12" transform="matrix(1,0,0,1,432.054,186.023)" opacity="0.5"><g id="i3" fill="#ffffff"><path d="" /></g><path d="M8.315,2.298C8.315,2.298,2.999,-0.602,2.999,-0.602C2.999,-0.602,1.033,0.533,1.033,0.533C1.033,0.533,6.348,3.433,6.348,3.433C6.348,3.433,8.315,2.298,8.315,2.298Z" fill="#ffffff" /><path d="M10.48,0.579C10.48,0.579,17.683,4.738,17.683,4.738C17.683,4.738,19.649,3.603,19.649,3.603C19.649,3.603,12.446,-0.556,12.446,-0.556C12.446,-0.556,10.48,0.579,10.48,0.579Z" fill="#ffffff" /><path d="M12.741,7.123C12.741,7.123,19.639,11.107,19.639,11.107C19.639,11.107,21.605,9.972,21.605,9.972C21.605,9.972,14.707,5.988,14.707,5.988C14.707,5.988,12.741,7.123,12.741,7.123Z" fill="#ffffff" /><path d="M19.306,5.676C19.306,5.676,22.388,7.455,22.388,7.455C22.388,7.455,24.355,6.32,24.355,6.32C24.355,6.32,21.273,4.54,21.273,4.54C21.273,4.54,19.306,5.676,19.306,5.676Z" fill="#ffffff" /><path d="M-15.036,-13.957C-15.036,-13.957,-11.079,-11.672,-11.079,-11.672C-11.079,-11.672,-9.114,-12.807,-9.114,-12.807C-9.114,-12.807,-13.071,-15.092,-13.071,-15.092C-13.071,-15.092,-15.036,-13.957,-15.036,-13.957Z" fill="#ffffff" /><path d="M-4.417,-4.857C-4.417,-4.857,-6.853,-6.263,-6.853,-6.263C-6.853,-6.263,-8.819,-5.128,-8.819,-5.128C-8.819,-5.128,-6.384,-3.722,-6.384,-3.722C-6.384,-3.722,-4.417,-4.857,-4.417,-4.857Z" fill="#ffffff" /><path d="M-2.214,-8.824C-2.214,-8.824,-7.49,-11.87,-7.49,-11.87C-7.49,-11.87,-9.456,-10.735,-9.456,-10.735C-9.456,-10.735,-4.18,-7.689,-4.18,-7.689C-4.18,-7.689,-2.214,-8.824,-2.214,-8.824Z" fill="#ffffff" /><path d="M5.203,-4.569C5.203,-4.569,-0.591,-7.887,-0.591,-7.887C-0.591,-7.887,-2.557,-6.752,-2.557,-6.752C-2.557,-6.752,3.236,-3.434,3.236,-3.434C3.236,-3.434,5.203,-4.569,5.203,-4.569Z" fill="#ffffff" /><path d="M5.604,5.972C5.604,5.972,-0.016,2.896,-0.016,2.896C-0.016,2.896,-1.983,4.031,-1.983,4.031C-1.983,4.031,3.637,7.107,3.637,7.107C3.637,7.107,5.604,5.972,5.604,5.972Z" fill="#ffffff" /><path d="M-8.064,-15.171C-8.064,-15.171,2.893,-8.844,2.893,-8.844C2.893,-8.844,4.859,-9.979,4.859,-9.979C4.859,-9.979,-6.098,-16.305,-6.098,-16.305C-6.098,-16.305,-8.064,-15.171,-8.064,-15.171Z" fill="#ffffff" /><path d="M5.746,13.563C5.746,13.563,7.713,12.428,7.713,12.428C7.713,12.428,5.023,10.876,5.023,10.876C5.023,10.876,3.057,12.011,3.057,12.011C3.057,12.011,5.746,13.563,5.746,13.563Z" fill="#ffffff" /><path d="M16.493,12.148C16.493,12.148,7.227,6.909,7.227,6.909C7.227,6.909,5.261,8.044,5.261,8.044C5.261,8.044,14.527,13.283,14.527,13.283C14.527,13.283,16.493,12.148,16.493,12.148Z" fill="#ffffff" /><path d="M-6.114,-0.598C-6.114,-0.598,-14.636,-5.518,-14.636,-5.518C-14.636,-5.518,-16.603,-4.383,-16.603,-4.383C-16.603,-4.383,-8.08,0.537,-8.08,0.537C-8.08,0.537,-6.114,-0.598,-6.114,-0.598Z" fill="#ffffff" /><path d="M10.823,-1.493C10.823,-1.493,6.826,-3.631,6.826,-3.631C6.826,-3.631,4.86,-2.496,4.86,-2.496C4.86,-2.496,8.856,-0.358,8.856,-0.358C8.856,-0.358,10.823,-1.493,10.823,-1.493Z" fill="#ffffff" /><path d="M-16.26,-6.455C-16.26,-6.455,-21.536,-9.502,-21.536,-9.502C-21.536,-9.502,-23.501,-8.366,-23.501,-8.366C-23.501,-8.366,-18.226,-5.32,-18.226,-5.32C-18.226,-5.32,-16.26,-6.455,-16.26,-6.455Z" fill="#ffffff" /><path d="M-21.4,-12.392C-21.4,-12.392,-10.442,-6.065,-10.442,-6.065C-10.442,-6.065,-8.476,-7.2,-8.476,-7.2C-8.476,-7.2,-19.434,-13.527,-19.434,-13.527C-19.434,-13.527,-21.4,-12.392,-21.4,-12.392Z" fill="#ffffff" /><path d="M-13.39,0.44C-13.39,0.44,-24.348,-5.886,-24.348,-5.886C-24.348,-5.886,-26.314,-4.751,-26.314,-4.751C-26.314,-4.751,-15.357,1.576,-15.357,1.576C-15.357,1.576,-13.39,0.44,-13.39,0.44Z" fill="#ffffff" /><path d="M1.376,-1.539C1.376,-1.539,-2.794,-3.92,-2.794,-3.92C-2.794,-3.92,-4.76,-2.785,-4.76,-2.785C-4.76,-2.785,-0.59,-0.404,-0.59,-0.404C-0.59,-0.404,1.376,-1.539,1.376,-1.539Z" fill="#ffffff" /><path d="M3.4,9.938C3.4,9.938,-1.915,7.039,-1.915,7.039C-1.915,7.039,-3.882,8.174,-3.882,8.174C-3.882,8.174,1.434,11.074,1.434,11.074C1.434,11.074,3.4,9.938,3.4,9.938Z" fill="#ffffff" /><path d="M-9.675,4.856C-9.675,4.856,-5.505,7.237,-5.505,7.237C-5.505,7.237,-3.539,6.101,-3.539,6.101C-3.539,6.101,-7.708,3.721,-7.708,3.721C-7.708,3.721,-9.675,4.856,-9.675,4.856Z" fill="#ffffff" /><path d="M-1.64,1.959C-1.64,1.959,-4.491,0.34,-4.491,0.34C-4.491,0.34,-6.456,1.474,-6.456,1.474C-6.456,1.474,-3.606,3.094,-3.606,3.094C-3.606,3.094,-1.64,1.959,-1.64,1.959Z" fill="#ffffff" /><path d="M-13.734,2.513C-13.734,2.513,-11.298,3.918,-11.298,3.918C-11.298,3.918,-9.332,2.784,-9.332,2.784C-9.332,2.784,-11.767,1.377,-11.767,1.377C-11.767,1.377,-13.734,2.513,-13.734,2.513Z" fill="#ffffff" /><path d="M25.608,14.442C25.608,14.442,27.738,15.671,27.738,15.671C27.738,15.671,29.705,14.536,29.705,14.536C29.705,14.536,27.574,13.307,27.574,13.307C27.574,13.307,25.608,14.442,25.608,14.442Z" fill="#ffffff" /><path d="M16.302,14.308C16.302,14.308,23.201,18.291,23.201,18.291C23.201,18.291,25.168,17.157,25.168,17.157C25.168,17.157,18.268,13.173,18.268,13.173C18.268,13.173,16.302,14.308,16.302,14.308Z" fill="#ffffff" /><path d="M14.454,18.48C14.454,18.48,18.562,20.852,18.562,20.852C18.562,20.852,20.529,19.717,20.529,19.717C20.529,19.717,16.42,17.345,16.42,17.345C16.42,17.345,14.454,18.48,14.454,18.48Z" fill="#ffffff" /><path d="M7.37,14.5C7.37,14.5,12.831,17.542,12.831,17.542C12.831,17.542,14.797,16.408,14.797,16.408C14.797,16.408,9.336,13.365,9.336,13.365C9.336,13.365,7.37,14.5,7.37,14.5Z" fill="#ffffff" /><path d="M-7.721,-17.243C-7.721,-17.243,-13.973,-20.852,-13.973,-20.852C-13.973,-20.852,-15.94,-19.717,-15.94,-19.717C-15.94,-19.717,-9.688,-16.108,-9.688,-16.108C-9.688,-16.108,-7.721,-17.243,-7.721,-17.243Z" fill="#ffffff" /><path d="M34.089,11.829C34.089,11.829,25.686,7.088,25.686,7.088C25.686,7.088,23.72,8.223,23.72,8.223C23.72,8.223,32.124,12.964,32.124,12.964C32.124,12.964,34.089,11.829,34.089,11.829Z" fill="#ffffff" /><path d="M26.294,12.567C26.294,12.567,23.229,10.909,23.229,10.909C23.229,10.909,21.263,12.044,21.263,12.044C21.263,12.044,24.327,13.702,24.327,13.702C24.327,13.702,26.294,12.567,26.294,12.567Z" fill="#ffffff" /><path d="M13.083,5.051C13.083,5.051,9.938,3.235,9.938,3.235C9.938,3.235,7.972,4.37,7.972,4.37C7.972,4.37,11.117,6.186,11.117,6.186C11.117,6.186,13.083,5.051,13.083,5.051Z" fill="#ffffff" /><path d="M-14.694,-16.029C-14.694,-16.029,-18.51,-18.233,-18.51,-18.233C-18.51,-18.233,-20.477,-17.098,-20.477,-17.098C-20.477,-17.098,-16.66,-14.894,-16.66,-14.894C-16.66,-14.894,-14.694,-16.029,-14.694,-16.029Z" fill="#ffffff" /><path d="M-25.971,-6.823C-25.971,-6.823,-32.121,-10.374,-32.121,-10.374C-32.121,-10.374,-34.088,-9.239,-34.088,-9.239C-34.088,-9.239,-27.937,-5.688,-27.937,-5.688C-27.937,-5.688,-25.971,-6.823,-25.971,-6.823Z" fill="#ffffff" /><path d="M-23.159,-10.439C-23.159,-10.439,-27.584,-12.994,-27.584,-12.994C-27.584,-12.994,-29.551,-11.859,-29.551,-11.859C-29.551,-11.859,-25.125,-9.303,-25.125,-9.303C-25.125,-9.303,-23.159,-10.439,-23.159,-10.439Z" fill="#ffffff" /><path d="M-21.057,-14.464C-21.057,-14.464,-23.047,-15.613,-23.047,-15.613C-23.047,-15.613,-25.014,-14.478,-25.014,-14.478C-25.014,-14.478,-23.023,-13.329,-23.023,-13.329C-23.023,-13.329,-21.057,-14.464,-21.057,-14.464Z" fill="#ffffff" /></g><g id="i13" transform="matrix(1,0,0,1,388.195,189.179)"><g id="i3" fill="#ffffff"><path fill-rule="evenodd" d="" /></g><path d="M5.508,8.539C5.508,8.539,-1.392,4.556,-1.392,4.556C-1.392,4.556,-3.358,5.691,-3.358,5.691C-3.358,5.691,3.542,9.674,3.542,9.674C3.542,9.674,5.508,8.539,5.508,8.539Z" fill="#ffffff" /><path d="M7.672,6.82C7.672,6.82,14.876,10.98,14.876,10.98C14.876,10.98,16.842,9.844,16.842,9.844C16.842,9.844,9.638,5.685,9.638,5.685C9.638,5.685,7.672,6.82,7.672,6.82Z" fill="#ffffff" /><path d="M18.5,7.833C18.5,7.833,21.646,9.649,21.646,9.649C21.646,9.649,23.612,8.513,23.612,8.513C23.612,8.513,20.466,6.698,20.466,6.698C20.466,6.698,18.5,7.833,18.5,7.833Z" fill="#ffffff" /><path d="M9.934,13.364C9.934,13.364,16.832,17.348,16.832,17.348C16.832,17.348,18.798,16.213,18.798,16.213C18.798,16.213,11.9,12.23,11.9,12.23C11.9,12.23,9.934,13.364,9.934,13.364Z" fill="#ffffff" /><path d="M16.5,11.917C16.5,11.917,19.582,13.696,19.582,13.696C19.582,13.696,21.547,12.561,21.547,12.561C21.547,12.561,18.466,10.781,18.466,10.781C18.466,10.781,16.5,11.917,16.5,11.917Z" fill="#ffffff" /><path d="M-23.677,-11.28C-23.677,-11.28,-19.72,-8.995,-19.72,-8.995C-19.72,-8.995,-17.755,-10.13,-17.755,-10.13C-17.755,-10.13,-21.712,-12.415,-21.712,-12.415C-21.712,-12.415,-23.677,-11.28,-23.677,-11.28Z" fill="#ffffff" /><path d="M-13.059,-2.181C-13.059,-2.181,-15.495,-3.586,-15.495,-3.586C-15.495,-3.586,-17.461,-2.451,-17.461,-2.451C-17.461,-2.451,-15.026,-1.045,-15.026,-1.045C-15.026,-1.045,-13.059,-2.181,-13.059,-2.181Z" fill="#ffffff" /><path d="M-10.855,-6.146C-10.855,-6.146,-16.132,-9.193,-16.132,-9.193C-16.132,-9.193,-18.098,-8.058,-18.098,-8.058C-18.098,-8.058,-12.822,-5.012,-12.822,-5.012C-12.822,-5.012,-10.855,-6.146,-10.855,-6.146Z" fill="#ffffff" /><path d="M0.813,0.589C0.813,0.589,-9.233,-5.21,-9.233,-5.21C-9.233,-5.21,-11.198,-4.075,-11.198,-4.075C-11.198,-4.075,-1.154,1.724,-1.154,1.724C-1.154,1.724,0.813,0.589,0.813,0.589Z" fill="#ffffff" /><path d="M-16.706,-12.493C-16.706,-12.493,-5.749,-6.167,-5.749,-6.167C-5.749,-6.167,-3.783,-7.302,-3.783,-7.302C-3.783,-7.302,-14.74,-13.629,-14.74,-13.629C-14.74,-13.629,-16.706,-12.493,-16.706,-12.493Z" fill="#ffffff" /><path d="M9.978,2.912C9.978,2.912,16.876,6.896,16.876,6.896C16.876,6.896,18.844,5.76,18.844,5.76C18.844,5.76,11.944,1.777,11.944,1.777C11.944,1.777,9.978,2.912,9.978,2.912Z" fill="#ffffff" /><path d="M10.322,0.84C10.322,0.84,1.901,-4.021,1.901,-4.021C1.901,-4.021,-0.066,-2.887,-0.066,-2.887C-0.066,-2.887,8.354,1.975,8.354,1.975C8.354,1.975,10.322,0.84,10.322,0.84Z" fill="#ffffff" /><path d="M8.016,4.748C8.016,4.748,2.435,1.526,2.435,1.526C2.435,1.526,0.47,2.661,0.47,2.661C0.47,2.661,6.049,5.883,6.049,5.883C6.049,5.883,8.016,4.748,8.016,4.748Z" fill="#ffffff" /><path d="M-30.042,-9.715C-30.042,-9.715,-19.083,-3.389,-19.083,-3.389C-19.083,-3.389,-17.117,-4.524,-17.117,-4.524C-17.117,-4.524,-28.076,-10.85,-28.076,-10.85C-28.076,-10.85,-30.042,-9.715,-30.042,-9.715Z" fill="#ffffff" /><path d="M-3.014,3.619C-3.014,3.619,-11.435,-1.243,-11.435,-1.243C-11.435,-1.243,-13.401,-0.108,-13.401,-0.108C-13.401,-0.108,-4.98,4.754,-4.98,4.754C-4.98,4.754,-3.014,3.619,-3.014,3.619Z" fill="#ffffff" /><path d="M-16.362,-14.566C-16.362,-14.566,-22.615,-18.176,-22.615,-18.176C-22.615,-18.176,-24.582,-17.04,-24.582,-17.04C-24.582,-17.04,-18.329,-13.431,-18.329,-13.431C-18.329,-13.431,-16.362,-14.566,-16.362,-14.566Z" fill="#ffffff" /><path d="M23.27,10.586C23.27,10.586,31.69,15.447,31.69,15.447C31.69,15.447,33.655,14.313,33.655,14.313C33.655,14.313,25.236,9.451,25.236,9.451C25.236,9.451,23.27,10.586,23.27,10.586Z" fill="#ffffff" /><path d="M-4.125,-5.23C-4.125,-5.23,-1.69,-3.824,-1.69,-3.824C-1.69,-3.824,0.276,-4.959,0.276,-4.959C0.276,-4.959,-2.159,-6.365,-2.159,-6.365C-2.159,-6.365,-4.125,-5.23,-4.125,-5.23Z" fill="#ffffff" /><path d="M29.388,17.04C29.388,17.04,22.879,13.329,22.879,13.329C22.879,13.329,20.913,14.465,20.913,14.465C20.913,14.465,27.421,18.175,27.421,18.175C27.421,18.175,29.388,17.04,29.388,17.04Z" fill="#ffffff" /><path d="M10.276,11.292C10.276,11.292,7.13,9.476,7.13,9.476C7.13,9.476,5.164,10.611,5.164,10.611C5.164,10.611,8.31,12.427,8.31,12.427C8.31,12.427,10.276,11.292,10.276,11.292Z" fill="#ffffff" /><path d="M-23.336,-13.352C-23.336,-13.352,-27.151,-15.556,-27.151,-15.556C-27.151,-15.556,-29.118,-14.421,-29.118,-14.421C-29.118,-14.421,-25.302,-12.217,-25.302,-12.217C-25.302,-12.217,-23.336,-13.352,-23.336,-13.352Z" fill="#ffffff" /><path d="M-29.698,-11.787C-29.698,-11.787,-31.689,-12.936,-31.689,-12.936C-31.689,-12.936,-33.655,-11.801,-33.655,-11.801C-33.655,-11.801,-31.664,-10.652,-31.664,-10.652C-31.664,-10.652,-29.698,-11.787,-29.698,-11.787Z" fill="#ffffff" /></g><g><animate repeatCount="indefinite" attributeName="opacity" dur="4.033s" begin="0s" fill="freeze" values="1; 0.5; 1; 0.5; 1; 0.5; 1; 0.5; 1; 1" keyTimes="0; 0.123967; 0.247934; 0.371901; 0.495868; 0.619835; 0.743802; 0.867769; 0.991736; 1" keySplines="0.167 0.167 0.667 1; 0.333 0 0.833 0.833; 0.167 0.167 0.667 1; 0.333 0 0.833 0.833; 0.167 0.167 0.667 1; 0.333 0 0.833 0.833; 0.167 0.167 0.667 1; 0.333 0 0.833 0.833; 0 0 1 1" calcMode="spline" /><g id="i14" transform="translate(369.303,227.424)"><g id="i3" fill="#ffffff"><path fill-rule="evenodd" d="" /></g><path d="M-13.849,-9.676C-13.849,-9.676,-12.365,-11.579,-12.365,-11.579C-12.365,-11.579,-15.659,-10.722,-15.659,-10.722C-15.659,-10.722,-18.302,-12.132,-18.302,-12.132C-18.302,-12.132,-17.931,-10.057,-17.931,-10.057C-17.931,-10.057,-21.013,-9.046,-21.013,-9.046C-21.013,-9.046,-17.524,-8.6,-17.524,-8.6C-17.524,-8.6,-16.751,-6.586,-16.751,-6.586C-16.751,-6.586,-15,-8.364,-15,-8.364C-15,-8.364,-11.406,-8.15,-11.406,-8.15C-11.406,-8.15,-13.849,-9.676,-13.849,-9.676Z" fill="#ffffff" /><path d="M-5.743,-4.997C-5.743,-4.997,-4.259,-6.899,-4.259,-6.899C-4.259,-6.899,-7.555,-6.042,-7.555,-6.042C-7.555,-6.042,-10.197,-7.452,-10.197,-7.452C-10.197,-7.452,-9.826,-5.377,-9.826,-5.377C-9.826,-5.377,-12.907,-4.366,-12.907,-4.366C-12.907,-4.366,-9.419,-3.92,-9.419,-3.92C-9.419,-3.92,-8.646,-1.906,-8.646,-1.906C-8.646,-1.906,-6.896,-3.685,-6.896,-3.685C-6.896,-3.685,-3.301,-3.472,-3.301,-3.472C-3.301,-3.472,-5.743,-4.997,-5.743,-4.997Z" fill="#ffffff" /><path d="M2.362,-0.317C2.362,-0.317,3.845,-2.22,3.845,-2.22C3.845,-2.22,0.551,-1.363,0.551,-1.363C0.551,-1.363,-2.092,-2.773,-2.092,-2.773C-2.092,-2.773,-1.721,-0.697,-1.721,-0.697C-1.721,-0.697,-4.803,0.313,-4.803,0.313C-4.803,0.313,-1.314,0.759,-1.314,0.759C-1.314,0.759,-0.541,2.773,-0.541,2.773C-0.541,2.773,1.21,0.994,1.21,0.994C1.21,0.994,4.804,1.208,4.804,1.208C4.804,1.208,2.362,-0.317,2.362,-0.317Z" fill="#ffffff" /><path d="M10.467,4.362C10.467,4.362,11.951,2.46,11.951,2.46C11.951,2.46,8.655,3.316,8.655,3.316C8.655,3.316,6.013,1.906,6.013,1.906C6.013,1.906,6.384,3.981,6.384,3.981C6.384,3.981,3.302,4.992,3.302,4.992C3.302,4.992,6.791,5.438,6.791,5.438C6.791,5.438,7.564,7.453,7.564,7.453C7.564,7.453,9.314,5.674,9.314,5.674C9.314,5.674,12.909,5.888,12.909,5.888C12.909,5.888,10.467,4.362,10.467,4.362Z" fill="#ffffff" /><path d="M18.572,9.042C18.572,9.042,20.055,7.139,20.055,7.139C20.055,7.139,16.76,7.996,16.76,7.996C16.76,7.996,14.119,6.586,14.119,6.586C14.119,6.586,14.489,8.661,14.489,8.661C14.489,8.661,11.407,9.672,11.407,9.672C11.407,9.672,14.896,10.118,14.896,10.118C14.896,10.118,15.67,12.132,15.67,12.132C15.67,12.132,17.42,10.354,17.42,10.354C17.42,10.354,21.014,10.567,21.014,10.567C21.014,10.567,18.572,9.042,18.572,9.042Z" fill="#ffffff" /></g></g><g id="i10" transform="matrix(1,0,0,1,426.534,213.682)"><g id="i3" fill="#ffffff"><path fill-rule="evenodd" d="" /></g><path d="M5.983,-3.454C2.663,-5.37,-2.722,-5.38,-6.02,-3.476C-9.319,-1.572,-9.302,1.537,-5.982,3.454C-2.663,5.37,2.722,5.38,6.021,3.475C9.319,1.571,9.302,-1.538,5.983,-3.454Z" fill="#ffffff" /><path d="M4.053,-0.295C4.536,-0.016,4.538,0.435,4.057,0.713C3.576,0.99,2.796,0.988,2.313,0.71C1.829,0.43,1.826,-0.021,2.307,-0.299C2.787,-0.577,3.569,-0.575,4.053,-0.295Z" fill="#ffffff" /><path d="M0.512,-2.34C0.995,-2.061,0.997,-1.61,0.517,-1.332C0.036,-1.055,-0.745,-1.056,-1.229,-1.335C-1.713,-1.615,-1.715,-2.066,-1.234,-2.343C-0.754,-2.62,0.027,-2.619,0.512,-2.34Z" fill="#ffffff" /><path d="M-4.119,2.361C-5.564,1.526,-5.987,0.244,-5.172,-0.83C-5.172,-0.83,-4.052,-0.543,-4.052,-0.543C-4.667,0.266,-4.348,1.234,-3.258,1.863C-2.135,2.511,-0.421,2.686,1.007,2.296C1.007,2.296,1.534,2.934,1.534,2.934C-0.358,3.451,-2.63,3.22,-4.119,2.361Z" fill="#ffffff" /></g><g id="i3" transform="matrix(1,0,0,1,432.054,181.523)"><g id="i3" fill="#ffffff"><path fill-rule="evenodd" d="" /></g><path d="M8.314,2.298C8.314,2.298,2.999,-0.602,2.999,-0.602C2.999,-0.602,1.033,0.533,1.033,0.533C1.033,0.533,6.348,3.433,6.348,3.433C6.348,3.433,8.314,2.298,8.314,2.298Z" fill="#ffffff" /><path d="M10.479,0.579C10.479,0.579,17.682,4.738,17.682,4.738C17.682,4.738,19.648,3.603,19.648,3.603C19.648,3.603,12.445,-0.556,12.445,-0.556C12.445,-0.556,10.479,0.579,10.479,0.579Z" fill="#ffffff" /><path d="M12.74,7.123C12.74,7.123,19.638,11.107,19.638,11.107C19.638,11.107,21.604,9.972,21.604,9.972C21.604,9.972,14.706,5.988,14.706,5.988C14.706,5.988,12.74,7.123,12.74,7.123Z" fill="#ffffff" /><path d="M19.305,5.676C19.305,5.676,22.387,7.455,22.387,7.455C22.387,7.455,24.354,6.32,24.354,6.32C24.354,6.32,21.272,4.54,21.272,4.54C21.272,4.54,19.305,5.676,19.305,5.676Z" fill="#ffffff" /><path d="M-15.036,-13.957C-15.036,-13.957,-11.079,-11.672,-11.079,-11.672C-11.079,-11.672,-9.115,-12.807,-9.115,-12.807C-9.115,-12.807,-13.072,-15.092,-13.072,-15.092C-13.072,-15.092,-15.036,-13.957,-15.036,-13.957Z" fill="#ffffff" /><path d="M-4.418,-4.857C-4.418,-4.857,-6.854,-6.263,-6.854,-6.263C-6.854,-6.263,-8.82,-5.128,-8.82,-5.128C-8.82,-5.128,-6.385,-3.722,-6.385,-3.722C-6.385,-3.722,-4.418,-4.857,-4.418,-4.857Z" fill="#ffffff" /><path d="M-2.215,-8.824C-2.215,-8.824,-7.491,-11.87,-7.491,-11.87C-7.491,-11.87,-9.457,-10.735,-9.457,-10.735C-9.457,-10.735,-4.181,-7.689,-4.181,-7.689C-4.181,-7.689,-2.215,-8.824,-2.215,-8.824Z" fill="#ffffff" /><path d="M5.202,-4.569C5.202,-4.569,-0.592,-7.887,-0.592,-7.887C-0.592,-7.887,-2.557,-6.752,-2.557,-6.752C-2.557,-6.752,3.236,-3.434,3.236,-3.434C3.236,-3.434,5.202,-4.569,5.202,-4.569Z" fill="#ffffff" /><path d="M5.603,5.972C5.603,5.972,-0.017,2.896,-0.017,2.896C-0.017,2.896,-1.984,4.031,-1.984,4.031C-1.984,4.031,3.637,7.107,3.637,7.107C3.637,7.107,5.603,5.972,5.603,5.972Z" fill="#ffffff" /><path d="M-8.065,-15.171C-8.065,-15.171,2.892,-8.844,2.892,-8.844C2.892,-8.844,4.858,-9.979,4.858,-9.979C4.858,-9.979,-6.099,-16.305,-6.099,-16.305C-6.099,-16.305,-8.065,-15.171,-8.065,-15.171Z" fill="#ffffff" /><path d="M5.745,13.563C5.745,13.563,7.712,12.428,7.712,12.428C7.712,12.428,5.022,10.876,5.022,10.876C5.022,10.876,3.056,12.011,3.056,12.011C3.056,12.011,5.745,13.563,5.745,13.563Z" fill="#ffffff" /><path d="M16.492,12.148C16.492,12.148,7.227,6.909,7.227,6.909C7.227,6.909,5.26,8.044,5.26,8.044C5.26,8.044,14.526,13.283,14.526,13.283C14.526,13.283,16.492,12.148,16.492,12.148Z" fill="#ffffff" /><path d="M-6.115,-0.598C-6.115,-0.598,-14.637,-5.518,-14.637,-5.518C-14.637,-5.518,-16.604,-4.383,-16.604,-4.383C-16.604,-4.383,-8.081,0.537,-8.081,0.537C-8.081,0.537,-6.115,-0.598,-6.115,-0.598Z" fill="#ffffff" /><path d="M10.822,-1.493C10.822,-1.493,6.826,-3.631,6.826,-3.631C6.826,-3.631,4.859,-2.496,4.859,-2.496C4.859,-2.496,8.855,-0.358,8.855,-0.358C8.855,-0.358,10.822,-1.493,10.822,-1.493Z" fill="#ffffff" /><path d="M-16.26,-6.455C-16.26,-6.455,-21.536,-9.502,-21.536,-9.502C-21.536,-9.502,-23.501,-8.366,-23.501,-8.366C-23.501,-8.366,-18.227,-5.32,-18.227,-5.32C-18.227,-5.32,-16.26,-6.455,-16.26,-6.455Z" fill="#ffffff" /><path d="M-21.401,-12.392C-21.401,-12.392,-10.443,-6.065,-10.443,-6.065C-10.443,-6.065,-8.477,-7.2,-8.477,-7.2C-8.477,-7.2,-19.435,-13.527,-19.435,-13.527C-19.435,-13.527,-21.401,-12.392,-21.401,-12.392Z" fill="#ffffff" /><path d="M-13.391,0.44C-13.391,0.44,-24.349,-5.886,-24.349,-5.886C-24.349,-5.886,-26.315,-4.751,-26.315,-4.751C-26.315,-4.751,-15.358,1.576,-15.358,1.576C-15.358,1.576,-13.391,0.44,-13.391,0.44Z" fill="#ffffff" /><path d="M1.375,-1.539C1.375,-1.539,-2.794,-3.92,-2.794,-3.92C-2.794,-3.92,-4.76,-2.785,-4.76,-2.785C-4.76,-2.785,-0.591,-0.404,-0.591,-0.404C-0.591,-0.404,1.375,-1.539,1.375,-1.539Z" fill="#ffffff" /><path d="M3.4,9.938C3.4,9.938,-1.915,7.039,-1.915,7.039C-1.915,7.039,-3.883,8.174,-3.883,8.174C-3.883,8.174,1.434,11.074,1.434,11.074C1.434,11.074,3.4,9.938,3.4,9.938Z" fill="#ffffff" /><path d="M-9.676,4.856C-9.676,4.856,-5.506,7.237,-5.506,7.237C-5.506,7.237,-3.54,6.101,-3.54,6.101C-3.54,6.101,-7.708,3.721,-7.708,3.721C-7.708,3.721,-9.676,4.856,-9.676,4.856Z" fill="#ffffff" /><path d="M-1.641,1.959C-1.641,1.959,-4.492,0.34,-4.492,0.34C-4.492,0.34,-6.457,1.474,-6.457,1.474C-6.457,1.474,-3.607,3.094,-3.607,3.094C-3.607,3.094,-1.641,1.959,-1.641,1.959Z" fill="#ffffff" /><path d="M-13.734,2.513C-13.734,2.513,-11.299,3.918,-11.299,3.918C-11.299,3.918,-9.333,2.784,-9.333,2.784C-9.333,2.784,-11.768,1.377,-11.768,1.377C-11.768,1.377,-13.734,2.513,-13.734,2.513Z" fill="#ffffff" /><path d="M25.607,14.442C25.607,14.442,27.737,15.672,27.737,15.672C27.737,15.672,29.704,14.536,29.704,14.536C29.704,14.536,27.573,13.307,27.573,13.307C27.573,13.307,25.607,14.442,25.607,14.442Z" fill="#ffffff" /><path d="M16.301,14.308C16.301,14.308,23.201,18.291,23.201,18.291C23.201,18.291,25.167,17.156,25.167,17.156C25.167,17.156,18.267,13.173,18.267,13.173C18.267,13.173,16.301,14.308,16.301,14.308Z" fill="#ffffff" /><path d="M14.453,18.48C14.453,18.48,18.561,20.852,18.561,20.852C18.561,20.852,20.529,19.717,20.529,19.717C20.529,19.717,16.419,17.345,16.419,17.345C16.419,17.345,14.453,18.48,14.453,18.48Z" fill="#ffffff" /><path d="M7.369,14.5C7.369,14.5,12.831,17.543,12.831,17.543C12.831,17.543,14.796,16.408,14.796,16.408C14.796,16.408,9.335,13.365,9.335,13.365C9.335,13.365,7.369,14.5,7.369,14.5Z" fill="#ffffff" /><path d="M-7.721,-17.243C-7.721,-17.243,-13.974,-20.852,-13.974,-20.852C-13.974,-20.852,-15.941,-19.717,-15.941,-19.717C-15.941,-19.717,-9.689,-16.108,-9.689,-16.108C-9.689,-16.108,-7.721,-17.243,-7.721,-17.243Z" fill="#ffffff" /><path d="M34.089,11.829C34.089,11.829,25.685,7.088,25.685,7.088C25.685,7.088,23.719,8.223,23.719,8.223C23.719,8.223,32.124,12.964,32.124,12.964C32.124,12.964,34.089,11.829,34.089,11.829Z" fill="#ffffff" /><path d="M26.293,12.567C26.293,12.567,23.228,10.909,23.228,10.909C23.228,10.909,21.262,12.044,21.262,12.044C21.262,12.044,24.326,13.702,24.326,13.702C24.326,13.702,26.293,12.567,26.293,12.567Z" fill="#ffffff" /><path d="M13.082,5.051C13.082,5.051,9.938,3.235,9.938,3.235C9.938,3.235,7.971,4.37,7.971,4.37C7.971,4.37,11.116,6.186,11.116,6.186C11.116,6.186,13.082,5.051,13.082,5.051Z" fill="#ffffff" /><path d="M-14.695,-16.029C-14.695,-16.029,-18.51,-18.233,-18.51,-18.233C-18.51,-18.233,-20.478,-17.098,-20.478,-17.098C-20.478,-17.098,-16.661,-14.894,-16.661,-14.894C-16.661,-14.894,-14.695,-16.029,-14.695,-16.029Z" fill="#ffffff" /><path d="M-25.971,-6.823C-25.971,-6.823,-32.122,-10.374,-32.122,-10.374C-32.122,-10.374,-34.089,-9.239,-34.089,-9.239C-34.089,-9.239,-27.938,-5.688,-27.938,-5.688C-27.938,-5.688,-25.971,-6.823,-25.971,-6.823Z" fill="#ffffff" /><path d="M-23.16,-10.439C-23.16,-10.439,-27.585,-12.994,-27.585,-12.994C-27.585,-12.994,-29.552,-11.859,-29.552,-11.859C-29.552,-11.859,-25.126,-9.303,-25.126,-9.303C-25.126,-9.303,-23.16,-10.439,-23.16,-10.439Z" fill="#ffffff" /><path d="M-21.057,-14.464C-21.057,-14.464,-23.048,-15.613,-23.048,-15.613C-23.048,-15.613,-25.014,-14.478,-25.014,-14.478C-25.014,-14.478,-23.023,-13.329,-23.023,-13.329C-23.023,-13.329,-21.057,-14.464,-21.057,-14.464Z" fill="#ffffff" /></g></g></g></g></g></g></g><g id="i1"><g transform="translate(752.223,815.556)"><animateTransform repeatCount="indefinite" type="translate" attributeName="transform" dur="4.033s" begin="0s" calcMode="spline" values="752.223 815.556; 752.223 777.556; 752.223 815.556; 752.223 815.556" keyTimes="0; 0.495868; 0.991736; 1" keySplines="0.333 0 0.667 1; 0.333 0 0.667 1; 0 0 1 1" fill="freeze" /><g transform="scale(4.248,4.248) translate(-444.917,-226.729)"><g id="i22"><g transform="translate(520.202,181.612)"><animateTransform repeatCount="indefinite" type="translate" attributeName="transform" dur="4.033s" begin="0s" calcMode="spline" values="520.202 181.612; 518.142 179.316; 520.202 176.905; 522.703 179.51; 520.202 181.612; 520.202 181.612" keyTimes="0; 0.247934; 0.495868; 0.743802; 0.991736; 1" keySplines="0 0 1 1; 0 0 1 1; 0 0 1 1; 0 0 1 1; 0 0 1 1" fill="freeze" /><g transform="scale(1,1) translate(-519.26,-175.493)"><g id="i8" transform="matrix(1,0,0,1,519.492,177.892)"><g id="i3" fill="#ffad0f"><path fill-rule="evenodd" d="" /></g><path d="M13.693,20.55C13.693,20.55,-31.194,-5.489,-31.194,-5.489C-35.577,-8.019,-35.586,-14.341,-31.211,-16.885C-31.211,-16.885,-25.295,-20.539,-25.295,-20.539C-23.255,-21.726,-20.736,-21.73,-18.692,-20.55C-18.692,-20.55,31.193,8.05,31.193,8.05C35.575,10.58,35.585,16.902,31.211,19.446C31.211,19.446,20.297,20.54,20.297,20.54C18.255,21.726,15.737,21.73,13.693,20.55Z" fill="#ffad0f" /></g><g id="i9" transform="matrix(1,0,0,1,520.313,176.1)"><g id="i3" fill="#fad343"><path fill-rule="evenodd" d="M-27.113,-21.946C-27.113,-21.946,-47.733,-10.041,-47.733,-10.041C-47.733,-10.041,7.092,21.778,7.092,21.778C13.57,25.518,24.885,25.05,32.364,20.73C32.364,20.73,39.441,16.645,39.441,16.645C46.92,12.326,47.733,5.794,41.255,2.054C41.255,2.054,-1.84,-22.993,-1.84,-22.993C-4.776,-24.688,-8.704,-25.518,-12.818,-25.518C-17.784,-25.518,-23.022,-24.308,-27.113,-21.946Z" /></g></g><g id="i11" transform="matrix(1,0,0,1,519.253,182.982)"><g id="i3" fill="#ffad0f"><path fill-rule="evenodd" d="" /></g><path d="M40.501,8.764C40.501,8.764,33.425,12.849,33.425,12.849C25.944,17.168,14.63,17.637,8.152,13.897C8.152,13.897,-45.81,-17.421,-45.81,-17.421C-45.81,-17.421,-46.673,-16.922,-46.673,-16.922C-46.673,-16.922,8.152,14.897,8.152,14.897C14.63,18.637,25.944,18.168,33.425,13.849C33.425,13.849,40.501,9.764,40.501,9.764C44.828,7.266,46.908,4.029,46.652,1.018C46.421,3.732,44.352,6.54,40.501,8.764Z" fill="#ffad0f" /></g><g id="i12" transform="matrix(1,0,0,1,507.007,166.001)"><g id="i3" fill="#ffffff"><path fill-rule="evenodd" d="" /></g><path d="M11.436,6.603C5.16,10.227,-5.049,10.208,-11.365,6.561C-17.681,2.915,-17.713,-2.979,-11.436,-6.603C-5.16,-10.227,5.049,-10.208,11.365,-6.562C17.681,-2.915,17.713,2.979,11.436,6.603Z" fill="#ffffff" /></g><g id="i13" transform="matrix(1,0,0,1,506.597,165.932)"><g id="i3" fill="#ffad0f"><path d="M1.537,2.926C1.537,2.926,-4.949,-0.818,-4.949,-0.818C-5.895,-1.365,-5.9,-2.25,-4.959,-2.794C-4.018,-3.337,-2.483,-3.334,-1.537,-2.788C-1.537,-2.788,4.949,0.956,4.949,0.956C5.895,1.504,5.9,2.389,4.959,2.933C4.491,3.203,3.875,3.338,3.258,3.338C2.636,3.338,2.012,3.201,1.537,2.926ZM-7.912,-3.697C-11.872,-1.41,-7.87,0.012,-3.885,2.313C0.1,4.613,2.561,6.923,6.521,4.637C10.482,2.35,10.462,-1.37,6.476,-3.671C4.475,-4.826,1.855,-5.403,-0.759,-5.403C-3.352,-5.403,-5.939,-4.836,-7.912,-3.697Z" /></g></g><g id="i14" transform="matrix(1,0,0,1,503.799,164.49)"><g id="i3" fill="#ffad0f"><path fill-rule="evenodd" d="M-0.763,-0.471C-1.182,-0.23,-1.18,0.165,-0.758,0.408C-0.337,0.652,0.345,0.651,0.763,0.41C1.181,0.168,1.18,-0.224,0.759,-0.467C0.548,-0.59,0.271,-0.652,-0.005,-0.652C-0.279,-0.652,-0.554,-0.592,-0.763,-0.471Z" /></g></g><g id="i10" transform="matrix(1,0,0,1,509.363,167.702)"><g id="i3" fill="#ffad0f"><path fill-rule="evenodd" d="M-0.762,-0.472C-1.182,-0.23,-1.18,0.164,-0.758,0.407C-0.337,0.65,0.344,0.652,0.763,0.409C1.182,0.168,1.18,-0.225,0.758,-0.469C0.547,-0.591,0.27,-0.652,-0.006,-0.652C-0.281,-0.652,-0.554,-0.592,-0.762,-0.472Z" /></g></g><g id="i3" transform="matrix(1,0,0,1,536.409,181.552)"><g id="i3" fill="#ffffff"><path fill-rule="evenodd" d="" /></g><path d="M-4.107,0.093C-4.107,0.093,-14.16,-5.648,-14.16,-5.648C-14.16,-5.648,-16.118,-4.518,-16.118,-4.518C-16.118,-4.518,-6.064,1.223,-6.064,1.223C-6.064,1.223,-4.107,0.093,-4.107,0.093Z" fill="#ffffff" /><path d="M3.692,-0.849C3.692,-0.849,-9.594,-8.457,-9.594,-8.457C-9.594,-8.457,-11.552,-7.327,-11.552,-7.327C-11.552,-7.327,1.734,0.281,1.734,0.281C1.734,0.281,3.692,-0.849,3.692,-0.849Z" fill="#ffffff" /><path d="M8.42,7.326C8.42,7.326,-2.491,1.026,-2.491,1.026C-2.491,1.026,-4.448,2.156,-4.448,2.156C-4.448,2.156,6.462,8.456,6.462,8.456C6.462,8.456,8.42,7.326,8.42,7.326Z" fill="#ffffff" /><path d="M16.118,6.326C16.118,6.326,10.865,3.292,10.865,3.292C10.865,3.292,8.907,4.423,8.907,4.423C8.907,4.423,14.16,7.456,14.16,7.456C14.16,7.456,16.118,6.326,16.118,6.326Z" fill="#ffffff" /><path d="M5.308,0.084C5.308,0.084,3.35,1.214,3.35,1.214C3.35,1.214,7.29,3.49,7.29,3.49C7.29,3.49,9.248,2.359,9.248,2.359C9.248,2.359,5.308,0.084,5.308,0.084Z" fill="#ffffff" /></g></g></g></g></g></g></g><g id="i1"><g transform="translate(752.223,815.556)"><animateTransform repeatCount="indefinite" type="translate" attributeName="transform" dur="4.033s" begin="0s" calcMode="spline" values="752.223 815.556; 752.223 777.556; 752.223 815.556; 752.223 815.556" keyTimes="0; 0.495868; 0.991736; 1" keySplines="0.333 0 0.667 1; 0.333 0 0.667 1; 0 0 1 1" fill="freeze" /><g transform="scale(4.248,4.248) translate(-444.917,-226.729)"><g id="i23"><g transform="translate(367.233,259.158)"><animateTransform repeatCount="indefinite" type="translate" attributeName="transform" dur="4.033s" begin="0s" calcMode="spline" values="367.233 259.158; 362.956 263.283; 357.347 260.571; 361.611 255.775; 367.233 259.158; 367.233 259.158" keyTimes="0; 0.247934; 0.495868; 0.743802; 0.991736; 1" keySplines="0 0 1 1; 0 0 1 1; 0 0 1 1; 0 0 1 1; 0 0 1 1" fill="freeze" /><g transform="scale(1,1) translate(-366.291,-253.039)"><g id="i9" transform="matrix(1,0,0,1,367.344,253.646)"><g id="i3" fill="#ffbc0f"><path fill-rule="evenodd" d="M-27.113,-21.946C-27.113,-21.946,-47.733,-10.041,-47.733,-10.041C-47.733,-10.041,7.091,21.779,7.091,21.779C13.569,25.518,24.884,25.049,32.364,20.731C32.364,20.731,39.44,16.645,39.44,16.645C46.921,12.327,47.733,5.795,41.254,2.054C41.254,2.054,-1.841,-22.993,-1.841,-22.993C-4.776,-24.687,-8.704,-25.518,-12.818,-25.518C-17.785,-25.518,-23.023,-24.308,-27.113,-21.946Z" /></g></g><g id="i11" transform="matrix(1,0,0,1,366.284,260.528)"><g id="i3" fill="#000000"><path fill-rule="evenodd" d="" /></g><path d="M40.502,8.763C40.502,8.763,33.425,12.849,33.425,12.849C25.944,17.167,14.63,17.636,8.152,13.897C8.152,13.897,-45.809,-17.422,-45.809,-17.422C-45.809,-17.422,-46.673,-16.923,-46.673,-16.923C-46.673,-16.923,8.152,14.897,8.152,14.897C14.63,18.636,25.944,18.167,33.425,13.849C33.425,13.849,40.502,9.763,40.502,9.763C44.828,7.265,46.908,4.029,46.652,1.018C46.421,3.731,44.353,6.54,40.502,8.763Z" fill="#000000" /></g><g id="i12" transform="matrix(1,0,0,1,354.038,243.548)"><g id="i3" fill="#ffffff"><path fill-rule="evenodd" d="" /></g><path d="M11.437,6.602C5.16,10.226,-5.048,10.208,-11.365,6.562C-17.681,2.915,-17.712,-2.979,-11.436,-6.602C-5.16,-10.226,5.049,-10.208,11.366,-6.561C17.681,-2.915,17.713,2.978,11.437,6.602Z" fill="#ffffff" /></g><g id="i13" transform="matrix(1,0,0,1,353.628,243.479)"><g id="i3" fill="#ffbc0f"><path d="M1.536,2.926C1.536,2.926,-4.948,-0.819,-4.948,-0.819C-5.896,-1.365,-5.899,-2.252,-4.958,-2.794C-4.018,-3.337,-2.482,-3.334,-1.536,-2.789C-1.536,-2.789,4.948,0.956,4.948,0.956C5.894,1.502,5.9,2.389,4.96,2.932C4.492,3.203,3.875,3.338,3.258,3.338C2.635,3.338,2.012,3.2,1.536,2.926ZM-7.91,-3.697C-11.871,-1.41,-7.87,0.011,-3.885,2.312C0.101,4.613,2.562,6.922,6.521,4.636C10.482,2.35,10.462,-1.37,6.475,-3.67C4.475,-4.825,1.855,-5.404,-0.759,-5.404C-3.352,-5.404,-5.938,-4.835,-7.91,-3.697Z" /></g></g><g id="i14" transform="matrix(1,0,0,1,350.831,242.036)"><g id="i3" fill="#ffbc0f"><path fill-rule="evenodd" d="M-0.763,-0.471C-1.182,-0.23,-1.179,0.163,-0.759,0.406C-0.337,0.649,0.344,0.652,0.763,0.41C1.181,0.168,1.179,-0.225,0.758,-0.469C0.546,-0.591,0.269,-0.652,-0.008,-0.652C-0.282,-0.652,-0.555,-0.592,-0.763,-0.471Z" /></g></g><g id="i10" transform="matrix(1,0,0,1,356.393,245.248)"><g id="i3" fill="#ffbc0f"><path fill-rule="evenodd" d="M-0.763,-0.471C-1.181,-0.23,-1.18,0.164,-0.758,0.407C-0.338,0.65,0.345,0.651,0.764,0.41C1.182,0.168,1.181,-0.224,0.759,-0.467C0.547,-0.59,0.269,-0.651,-0.008,-0.651C-0.282,-0.651,-0.554,-0.591,-0.763,-0.471Z" /></g></g><g id="i3" transform="matrix(1,0,0,1,381.582,258.145)"><g id="i3" fill="#ffffff"><path fill-rule="evenodd" d="" /></g><path d="M2.001,-1.536C2.001,-1.536,-8.052,-7.277,-8.052,-7.277C-8.052,-7.277,-10.01,-6.147,-10.01,-6.147C-10.01,-6.147,0.044,-0.405,0.044,-0.405C0.044,-0.405,2.001,-1.536,2.001,-1.536Z" fill="#ffffff" /><path d="M0.716,2.938C0.716,2.938,-12.569,-4.669,-12.569,-4.669C-12.569,-4.669,-14.527,-3.538,-14.527,-3.538C-14.527,-3.538,-1.241,4.069,-1.241,4.069C-1.241,4.069,0.716,2.938,0.716,2.938Z" fill="#ffffff" /><path d="M14.527,5.696C14.527,5.696,3.617,-0.603,3.617,-0.603C3.617,-0.603,1.66,0.527,1.66,0.527C1.66,0.527,12.57,6.827,12.57,6.827C12.57,6.827,14.527,5.696,14.527,5.696Z" fill="#ffffff" /><path d="M2.333,3.872C2.333,3.872,0.375,5.003,0.375,5.003C0.375,5.003,4.315,7.277,4.315,7.277C4.315,7.277,6.272,6.146,6.272,6.146C6.272,6.146,2.333,3.872,2.333,3.872Z" fill="#ffffff" /></g></g></g></g></g></g></g></svg>