<svg fill="none" height="100%" width="100%" viewBox="0 0 700 500" xmlns:xlink="http://www.w3.org/1999/xlink" xmlns="http://www.w3.org/2000/svg"><g transform="matrix(1,0,0,1,350,250)" id="i0"><g id="i1"><path fill="#263238" d="M102.841,-134.038C102.841,-134.038,112.357,-142.176,112.357,-142.176C112.357,-142.176,125.058,-127.325,125.058,-127.325C125.058,-127.325,115.542,-119.187,115.542,-119.187C115.542,-119.187,102.841,-134.038,102.841,-134.038Z" /></g><g id="i2"><path fill="#455a64" d="M120.58,-143.33C120.58,-143.33,101,-126.51,101,-126.51C101,-126.51,87.27,-142.51,87.27,-142.51C92.67,-150.09,99.11,-155.81,106.82,-159.33C106.82,-159.33,120.58,-143.33,120.58,-143.33Z" /></g><g id="i3"><path fill="#263238" d="M104.3,-129.33C104.19,-129.23,100.88,-132.87,96.9,-137.44C92.92,-142.01,89.78,-145.79,89.9,-145.89C90.02,-145.99,93.32,-142.35,97.3,-137.78C101.28,-133.21,104.41,-129.42,104.3,-129.33Z" /></g><g id="i4"><path fill="#263238" d="M108,-132.53C107.209,-133.3,106.473,-134.125,105.8,-135C104.48,-136.55,102.69,-138.7,100.72,-141.1C100.72,-141.1,95.72,-147.26,95.72,-147.26C95.72,-147.26,94.22,-149.13,94.22,-149.13C93.86,-149.59,93.67,-149.8,93.67,-149.83C93.87,-150.01,97.2,-146.22,101.14,-141.43C103.14,-139.03,104.86,-136.84,106.14,-135.23C106.838,-134.387,107.461,-133.483,108,-132.53Z" /></g><g id="i5"><path fill="#263238" d="M113,-136.8C112.197,-137.567,111.452,-138.393,110.77,-139.27C109.44,-140.84,107.64,-143.03,105.66,-145.46C105.66,-145.46,100.66,-151.72,100.66,-151.72C100.66,-151.72,99.16,-153.63,99.16,-153.63C98.966,-153.858,98.792,-154.102,98.64,-154.36C99.499,-153.65,100.271,-152.841,100.94,-151.95C102.29,-150.4,104.11,-148.22,106.08,-145.79C108.05,-143.36,109.82,-141.13,111.08,-139.5C111.795,-138.656,112.437,-137.752,113,-136.8Z" /></g><g id="i6"><path fill="#263238" d="M117.51,-140.8C117.4,-140.71,114.11,-144.38,110.16,-149C106.21,-153.62,103.11,-157.45,103.22,-157.55C103.33,-157.65,106.61,-153.97,110.56,-149.34C114.51,-144.71,117.62,-140.89,117.51,-140.8Z" /></g><g id="i7"><path fill="#263238" d="M271.266,-141.119C271.266,-141.119,279.916,-132.067,279.916,-132.067C279.916,-132.067,265.789,-118.567,265.789,-118.567C265.789,-118.567,257.139,-127.619,257.139,-127.619C257.139,-127.619,271.266,-141.119,271.266,-141.119Z" /></g><g id="i8"><path fill="#455a64" d="M280.33,-123.16C280.33,-123.16,262.51,-141.81,262.51,-141.81C262.51,-141.81,277.74,-156.36,277.74,-156.36C285.58,-151.36,291.64,-145.23,295.55,-137.71C295.55,-137.71,280.33,-123.16,280.33,-123.16Z" /></g><g id="i9"><path fill="#263238" d="M265.49,-138.68C265.39,-138.79,268.84,-142.29,273.2,-146.5C277.56,-150.71,281.2,-154.04,281.27,-153.94C281.34,-153.84,277.92,-150.34,273.56,-146.12C269.2,-141.9,265.59,-138.58,265.49,-138.68Z" /></g><g id="i10"><path fill="#263238" d="M268.89,-135.13C269.601,-135.97,270.376,-136.752,271.21,-137.47C272.68,-138.87,274.74,-140.78,277.03,-142.88C277.03,-142.88,282.92,-148.21,282.92,-148.21C282.92,-148.21,284.71,-149.81,284.71,-149.81C285.14,-150.19,285.35,-150.38,285.38,-150.39C285.57,-150.2,281.96,-146.67,277.38,-142.49C275.09,-140.4,272.99,-138.49,271.45,-137.2C270.652,-136.444,269.796,-135.752,268.89,-135.13Z" /></g><g id="i11"><path fill="#263238" d="M273.41,-130.4C274.13,-131.248,274.915,-132.037,275.76,-132.76C277.25,-134.17,279.34,-136.09,281.67,-138.19C281.67,-138.19,287.67,-143.53,287.67,-143.53C287.67,-143.53,289.5,-145.13,289.5,-145.13C289.723,-145.329,289.957,-145.516,290.2,-145.69C289.539,-144.793,288.773,-143.977,287.92,-143.26C286.44,-141.83,284.35,-139.9,282.03,-137.8C279.71,-135.7,277.57,-133.8,276.03,-132.48C275.211,-131.72,274.335,-131.025,273.41,-130.4Z" /></g><g id="i12"><path fill="#263238" d="M277.64,-126.09C277.54,-126.2,281.04,-129.67,285.45,-133.86C289.86,-138.05,293.52,-141.35,293.62,-141.24C293.72,-141.13,290.22,-137.66,285.81,-133.48C281.4,-129.3,277.74,-126,277.64,-126.09Z" /></g><g id="i13"><path fill="#263238" d="M185.26,-175.28C185.26,-175.28,200.08,-175.28,200.08,-175.28C200.08,-175.28,200.08,-152.15,200.08,-152.15C200.08,-152.15,185.26,-152.15,185.26,-152.15C185.26,-152.15,185.26,-175.28,185.26,-175.28Z" /></g><g id="i14"><path fill="#7239ea" d="M208,-168.36C208,-168.36,177.5,-168.36,177.5,-168.36C177.5,-168.36,177.5,-193.29,177.5,-193.29C188.19,-195.93,198.39,-196.09,208.03,-193.29C208.03,-193.29,208,-168.36,208,-168.36Z" /></g><g id="i15"><path fill="#263238" d="M208.39,-193.19C208.033,-192.966,207.654,-192.779,207.26,-192.63C206.216,-192.17,205.144,-191.776,204.05,-191.45C202.412,-190.945,200.741,-190.551,199.05,-190.27C196.996,-189.944,194.92,-189.77,192.84,-189.75C190.761,-189.747,188.685,-189.901,186.63,-190.21C184.94,-190.472,183.269,-190.85,181.63,-191.34C180.535,-191.66,179.46,-192.044,178.41,-192.49C178.013,-192.628,177.633,-192.812,177.28,-193.04C177.28,-193.13,178.96,-192.44,181.73,-191.7C183.356,-191.27,185.005,-190.936,186.67,-190.7C188.705,-190.425,190.756,-190.284,192.81,-190.28C194.865,-190.303,196.916,-190.464,198.95,-190.76C200.608,-191,202.25,-191.334,203.87,-191.76C206.71,-192.57,208.35,-193.28,208.39,-193.19Z" /></g><g id="i16"><path fill="#263238" d="M187.58,-168.43C187.44,-168.43,187.32,-173.22,187.32,-179.12C187.32,-185.02,187.44,-189.81,187.58,-189.81C187.72,-189.81,187.84,-185.03,187.84,-179.12C187.84,-173.21,187.73,-168.43,187.58,-168.43Z" /></g><g id="i17"><path fill="#263238" d="M193.39,-168.29C193.25,-168.29,193.13,-173.1,193.13,-179.03C193.13,-184.96,193.25,-189.76,193.39,-189.76C193.53,-189.76,193.65,-184.96,193.65,-179.03C193.65,-173.1,193.54,-168.29,193.39,-168.29Z" /></g><g id="i18"><path fill="#263238" d="M199.2,-168.38C199.06,-168.38,198.94,-173.19,198.94,-179.12C198.94,-185.05,199.06,-189.86,199.2,-189.86C199.34,-189.86,199.46,-185.05,199.46,-179.12C199.46,-173.19,199.35,-168.38,199.2,-168.38Z" /></g><g id="i19"><path fill="#263238" d="M204,-168.38C203.85,-168.38,203.74,-173.58,203.74,-179.99C203.74,-186.4,203.85,-191.6,204,-191.6C204.15,-191.6,204.26,-186.4,204.26,-179.99C204.26,-173.58,204.18,-168.38,204,-168.38Z" /></g><g id="i20"><path fill="#263238" d="M182.09,-168.53C181.95,-168.53,181.83,-173.73,181.83,-180.14C181.83,-186.55,181.95,-191.75,182.09,-191.75C182.23,-191.75,182.35,-186.55,182.35,-180.14C182.35,-173.73,182.24,-168.53,182.09,-168.53Z" /></g><g id="i21"><path fill="#7239ea" d="M114.632,-127.723C156.742,-169.833,225.017,-169.833,267.127,-127.723C309.237,-85.613,309.237,-17.338,267.127,24.772C225.017,66.882,156.742,66.882,114.632,24.772C72.522,-17.338,72.522,-85.613,114.632,-127.723Z" /></g><g id="i22"><path fill="#fafafa" d="M190.88,-142.89C240.895,-142.89,281.44,-102.345,281.44,-52.33C281.44,-2.315,240.895,38.23,190.88,38.23C140.865,38.23,100.32,-2.315,100.32,-52.33C100.32,-102.345,140.865,-142.89,190.88,-142.89Z" /></g><g id="i23"><path fill="#263238" d="M281.44,-52.33C281.44,-52.33,281.44,-52.82,281.37,-53.79C281.3,-54.76,281.37,-56.21,281.18,-58.1C280.823,-63.614,279.959,-69.084,278.6,-74.44C277.62,-78.306,276.381,-82.101,274.89,-85.8C273.138,-90.21,271.031,-94.471,268.59,-98.54C262.618,-108.481,254.813,-117.199,245.59,-124.23C234.396,-132.746,221.366,-138.527,207.54,-141.11C195.821,-143.266,183.796,-143.127,172.13,-140.7C168.033,-139.811,163.998,-138.658,160.05,-137.25C143.248,-131.13,128.634,-120.173,118.05,-105.76C115.288,-102.007,112.827,-98.041,110.69,-93.9C109.58,-91.83,108.63,-89.68,107.69,-87.52C106.75,-85.36,105.91,-83.12,105.2,-80.84C103.665,-76.277,102.515,-71.594,101.76,-66.84C101.001,-62.033,100.603,-57.176,100.57,-52.31C100.605,-47.441,101,-42.581,101.75,-37.77C102.516,-33.018,103.666,-28.336,105.19,-23.77C105.91,-21.5,106.81,-19.3,107.68,-17.1C108.55,-14.9,109.6,-12.78,110.68,-10.71C112.817,-6.567,115.281,-2.601,118.05,1.15C128.632,15.568,143.246,26.529,160.05,32.65C163.998,34.058,168.033,35.211,172.13,36.1C176.124,36.935,180.17,37.499,184.24,37.79C192.029,38.379,199.862,37.948,207.54,36.51C221.366,33.927,234.396,28.146,245.59,19.63C254.816,12.602,262.621,3.884,268.59,-6.06C271.029,-10.13,273.136,-14.391,274.89,-18.8C278.442,-27.642,280.565,-36.992,281.18,-46.5C281.35,-48.39,281.32,-49.84,281.37,-50.81C281.42,-51.78,281.44,-52.28,281.44,-52.28C281.44,-52.28,281.44,-51.78,281.44,-50.81C281.44,-49.84,281.44,-48.39,281.3,-46.5C280.753,-36.965,278.669,-27.581,275.13,-18.71C273.388,-14.28,271.288,-9.999,268.85,-5.91C262.892,4.082,255.086,12.848,245.85,19.92C234.617,28.488,221.535,34.31,207.65,36.92C199.937,38.377,192.068,38.821,184.24,38.24C180.15,37.95,176.084,37.385,172.07,36.55C167.949,35.664,163.89,34.508,159.92,33.09C143.019,26.946,128.317,15.933,117.67,1.44C114.891,-2.331,112.417,-6.317,110.27,-10.48C109.15,-12.56,108.19,-14.74,107.21,-16.91C106.23,-19.08,105.43,-21.33,104.71,-23.62C103.176,-28.205,102.019,-32.907,101.25,-37.68C99.663,-47.362,99.663,-57.238,101.25,-66.92C102.023,-71.673,103.18,-76.355,104.71,-80.92C105.44,-83.21,106.34,-85.42,107.22,-87.63C108.1,-89.84,109.15,-91.97,110.27,-94.05C112.424,-98.211,114.901,-102.197,117.68,-105.97C128.322,-120.461,143.021,-131.472,159.92,-137.61C163.887,-139.026,167.942,-140.182,172.06,-141.07C176.078,-141.905,180.147,-142.469,184.24,-142.76C192.064,-143.341,199.931,-142.897,207.64,-141.44C221.528,-138.841,234.613,-133.018,245.84,-124.44C255.076,-117.363,262.881,-108.594,268.84,-98.6C273.319,-91.056,276.687,-82.905,278.84,-74.4C280.174,-69.025,281.008,-63.538,281.33,-58.01C281.48,-56.12,281.43,-54.67,281.47,-53.7C281.51,-52.73,281.44,-52.33,281.44,-52.33Z" /></g><g id="i24"><path fill="#263238" d="M268.15,-55.61C265.28,-55.49,262.94,-55.61,262.93,-55.86C262.92,-56.11,265.23,-56.45,268.1,-56.61C270.97,-56.77,273.31,-56.67,273.33,-56.37C273.35,-56.07,271,-55.73,268.15,-55.61Z" /></g><g id="i25"><path fill="#263238" d="M266.22,-34.76C263.42,-35.42,261.22,-36.15,261.22,-36.4C261.22,-36.65,263.6,-36.35,266.41,-35.74C269.22,-35.13,271.41,-34.39,271.41,-34.1C271.41,-33.81,269,-34.11,266.22,-34.76Z" /></g><g id="i26"><path fill="#263238" d="M258.75,-15.21C256.22,-16.59,254.28,-17.9,254.4,-18.12C254.52,-18.34,256.68,-17.43,259.22,-16.12C261.76,-14.81,263.71,-13.46,263.57,-13.2C263.43,-12.94,261.27,-13.82,258.75,-15.21Z" /></g><g id="i27"><path fill="#263238" d="M246.3,1.63C244.24,-0.37,242.71,-2.15,242.89,-2.37C243.07,-2.59,244.89,-1.1,246.99,0.88C249.09,2.86,250.6,4.63,250.4,4.88C250.2,5.13,248.35,3.64,246.3,1.63Z" /></g><g id="i28"><path fill="#263238" d="M229.8,14.53C228.36,12.04,227.36,9.92,227.58,9.79C227.8,9.66,229.18,11.56,230.66,14.02C232.14,16.48,233.14,18.6,232.89,18.76C232.64,18.92,231.25,17,229.8,14.53Z" /></g><g id="i29"><path fill="#263238" d="M210.45,22.52C209.73,19.73,209.34,17.42,209.59,17.36C209.84,17.3,210.65,19.49,211.42,22.26C212.19,25.03,212.57,27.34,212.28,27.42C211.99,27.5,211.17,25.3,210.45,22.52Z" /></g><g id="i30"><path fill="#263238" d="M189.66,25C189.66,22.12,189.95,19.79,190.2,19.79C190.45,19.79,190.66,22.13,190.66,25C190.66,27.87,190.41,30.21,190.12,30.21C189.83,30.21,189.61,27.89,189.66,25Z" /></g><g id="i31"><path fill="#263238" d="M169,21.87C169.82,19.11,170.68,16.94,170.93,17.01C171.18,17.08,170.74,19.38,169.93,22.15C169.12,24.92,168.29,27.15,168,27.01C167.71,26.87,168.13,24.63,169,21.87Z" /></g><g id="i32"><path fill="#263238" d="M149.87,13.26C151.4,10.83,152.81,8.96,153.03,9.09C153.25,9.22,152.21,11.33,150.72,13.79C149.23,16.25,147.81,18.11,147.56,17.96C147.31,17.81,148.34,15.7,149.87,13.26Z" /></g><g id="i33"><path fill="#263238" d="M133.78,-0.14C135.91,-2.08,137.78,-3.5,137.94,-3.31C138.1,-3.12,136.56,-1.38,134.46,0.59C132.36,2.56,130.51,3.98,130.3,3.77C130.09,3.56,131.66,1.8,133.78,-0.14Z" /></g><g id="i34"><path fill="#263238" d="M121.86,-17.36C124.43,-18.65,126.61,-19.52,126.72,-19.3C126.83,-19.08,124.87,-17.81,122.32,-16.47C119.77,-15.13,117.6,-14.26,117.46,-14.53C117.32,-14.8,119.3,-16.06,121.86,-17.36Z" /></g><g id="i35"><path fill="#263238" d="M115,-37.14C117.83,-37.7,120.16,-37.95,120.21,-37.7C120.26,-37.45,118.02,-36.76,115.21,-36.16C112.4,-35.56,110.06,-35.31,110,-35.6C109.94,-35.89,112.2,-36.58,115,-37.14Z" /></g><g id="i36"><path fill="#263238" d="M113.73,-58C116.6,-57.79,118.91,-57.41,118.9,-57.16C118.89,-56.91,116.54,-56.84,113.67,-57.01C110.8,-57.18,108.48,-57.55,108.5,-57.85C108.52,-58.15,110.86,-58.26,113.73,-58Z" /></g><g id="i37"><path fill="#263238" d="M118.08,-78.53C120.79,-77.53,122.91,-76.53,122.83,-76.32C122.75,-76.11,120.47,-76.65,117.75,-77.59C115.03,-78.53,112.91,-79.51,113,-79.79C113.09,-80.07,115.38,-79.51,118.08,-78.53Z" /></g><g id="i38"><path fill="#263238" d="M127.79,-97.08C130.13,-95.41,131.91,-93.89,131.79,-93.68C131.67,-93.47,129.61,-94.63,127.24,-96.26C124.87,-97.89,123.09,-99.41,123.24,-99.66C123.39,-99.91,125.44,-98.75,127.79,-97.08Z" /></g><g id="i39"><path fill="#263238" d="M142.1,-112.36C143.91,-110.13,145.22,-108.19,145.03,-108.02C144.84,-107.85,143.17,-109.52,141.33,-111.73C139.49,-113.94,138.17,-115.87,138.4,-116.06C138.63,-116.25,140.29,-114.59,142.1,-112.36Z" /></g><g id="i40"><path fill="#263238" d="M160,-123.26C161.14,-120.62,161.89,-118.4,161.65,-118.26C161.41,-118.12,160.27,-120.2,159.09,-122.82C157.91,-125.44,157.16,-127.66,157.43,-127.82C157.7,-127.98,158.83,-125.89,160,-123.26Z" /></g><g id="i41"><path fill="#263238" d="M180.14,-128.93C180.53,-126.08,180.65,-123.74,180.39,-123.7C180.13,-123.66,179.58,-125.94,179.15,-128.78C178.72,-131.62,178.6,-133.97,178.89,-134.01C179.18,-134.05,179.75,-131.78,180.14,-128.93Z" /></g><g id="i42"><path fill="#263238" d="M201.08,-129C200.7,-126.15,200.19,-123.86,199.94,-123.89C199.69,-123.92,199.75,-126.27,200.09,-129.12C200.43,-131.97,200.94,-134.27,201.23,-134.23C201.52,-134.19,201.46,-131.86,201.08,-129Z" /></g><g id="i43"><path fill="#263238" d="M221.27,-123.47C220.14,-120.82,219.03,-118.76,218.79,-118.86C218.55,-118.96,219.26,-121.19,220.35,-123.86C221.44,-126.53,222.56,-128.58,222.83,-128.46C223.1,-128.34,222.41,-126.11,221.27,-123.47Z" /></g><g id="i44"><path fill="#263238" d="M239.23,-112.7C237.43,-110.45,235.81,-108.76,235.61,-108.92C235.41,-109.08,236.68,-111.05,238.45,-113.32C240.22,-115.59,241.83,-117.32,242.07,-117.09C242.31,-116.86,241,-114.94,239.23,-112.7Z" /></g><g id="i45"><path fill="#263238" d="M253.66,-97.52C251.32,-95.84,249.31,-94.64,249.16,-94.85C249.01,-95.06,250.76,-96.61,253.07,-98.33C255.38,-100.05,257.39,-101.24,257.57,-101C257.75,-100.76,256,-99.2,253.66,-97.52Z" /></g><g id="i46"><path fill="#263238" d="M263.49,-79C260.79,-78,258.49,-77.41,258.43,-77.64C258.37,-77.87,260.43,-78.91,263.14,-79.94C265.85,-80.97,268.08,-81.58,268.19,-81.3C268.3,-81.02,266.19,-80,263.49,-79Z" /></g><g id="i47"><path fill="#263238" d="M268,-58.58C265.13,-58.35,262.79,-58.37,262.77,-58.58C262.75,-58.79,265.05,-59.25,267.91,-59.58C270.77,-59.91,273.12,-59.83,273.14,-59.53C273.16,-59.23,270.84,-58.81,268,-58.58Z" /></g><g id="i48"><path fill="#ffffff" d="M155.71,-150.3C155.71,-150.3,155.4,-150.16,155.4,-150.16C155.4,-150.16,154.48,-149.79,154.48,-149.79C153.68,-149.45,152.48,-149.04,150.95,-148.37C146.639,-146.568,142.453,-144.48,138.42,-142.12C135.86,-140.64,133.15,-138.87,130.3,-136.88C127.45,-134.89,124.54,-132.57,121.63,-129.96C108.854,-118.699,99.095,-104.423,93.24,-88.43C91.87,-84.77,90.84,-81.19,89.95,-77.84C89.06,-74.49,88.46,-71.29,88.01,-68.37C87.28,-63.756,86.855,-59.1,86.74,-54.43C86.66,-52.77,86.74,-51.49,86.74,-50.62C86.74,-50.2,86.74,-49.88,86.74,-49.62C86.749,-49.507,86.749,-49.393,86.74,-49.28C86.727,-49.39,86.727,-49.5,86.74,-49.61C86.74,-49.86,86.74,-50.19,86.74,-50.61C86.74,-51.48,86.63,-52.76,86.68,-54.42C86.716,-59.107,87.087,-63.786,87.79,-68.42C88.21,-71.36,88.86,-74.55,89.67,-77.94C90.574,-81.543,91.662,-85.098,92.93,-88.59C98.756,-104.69,108.572,-119.048,121.46,-130.32C124.39,-132.93,127.37,-135.18,130.19,-137.23C133.01,-139.28,135.79,-140.98,138.38,-142.44C142.44,-144.775,146.661,-146.821,151.01,-148.56C152.54,-149.2,153.77,-149.56,154.59,-149.89C154.59,-149.89,155.53,-150.21,155.53,-150.21C155.588,-150.244,155.648,-150.274,155.71,-150.3Z" /></g><g id="i49"><path fill="#ffffff" d="M185.81,-156.14C184.782,-155.926,183.739,-155.789,182.69,-155.73C180.75,-155.53,178.09,-155.24,175.15,-154.86C172.21,-154.48,169.56,-154.08,167.64,-153.78C166.611,-153.569,165.569,-153.435,164.52,-153.38C165.515,-153.727,166.539,-153.981,167.58,-154.14C169.49,-154.53,172.14,-154.99,175.08,-155.37C178.02,-155.75,180.71,-155.99,182.66,-156.1C183.706,-156.212,184.761,-156.225,185.81,-156.14Z" /></g><g id="i50"><g id="i51"><path fill="#000000" d="M118.5,2.11C118.5,2.11,165.43,76.17,238.23,38.24C314.23,-1.36,272.23,-92.13,272.23,-92.13C272.23,-92.13,307.99,-19.79,233.91,27.37C215.46,39.12,195.37,39.13,180.05,37.59C140.9,33.67,118.5,2.11,118.5,2.11Z" /></g></g><g><g transform="translate(191.5,-49.25)"><g transform="rotate(0)"><animateTransform repeatCount="indefinite" type="rotate" attributeName="transform" dur="4s" begin="0s" calcMode="spline" values="0; 720; 720" keyTimes="0; 0.991667; 1" keySplines="0 0 1 1; 0 0 1 1" fill="freeze" /><g id="i52" transform="translate(-191.5,49.25)"><g id="i53"><path fill="#7239ea" d="M188.91,-59.47C188.91,-59.47,221.82,-114.89,221.82,-114.89C221.82,-114.89,201.96,-52.32,201.96,-52.32C201.96,-52.32,191.81,-49.29,191.81,-49.29C191.81,-49.29,188.91,-59.47,188.91,-59.47Z" /></g><path d="M221.82,-114.89C221.82,-114.89,197.41,-58.26,197.41,-58.26C197.41,-58.26,201.96,-52.32,201.96,-52.32C201.96,-52.32,221.82,-114.89,221.82,-114.89Z" fill="#000000" /><g id="i54" fill="#000000"><g id="i55"><path d="" /></g></g><g id="i56" fill="#000000"><path fill="#fafafa" d="M191.81,-59.88C197.659,-59.88,202.4,-55.139,202.4,-49.29C202.4,-43.441,197.659,-38.7,191.81,-38.7C185.961,-38.7,181.22,-43.441,181.22,-49.29C181.22,-55.139,185.961,-59.88,191.81,-59.88Z" /></g><g id="i57" fill="#000000"><path fill="#263238" d="M202.4,-49.29C202.305,-50.151,202.161,-51.005,201.97,-51.85C201.357,-54.131,199.998,-56.141,198.11,-57.56C195.292,-59.68,191.59,-60.226,188.28,-59.01C187.342,-58.678,186.462,-58.202,185.67,-57.6C184.827,-56.989,184.088,-56.246,183.48,-55.4C180.812,-51.763,180.812,-46.817,183.48,-43.18C184.694,-41.533,186.362,-40.275,188.28,-39.56C193.704,-37.571,199.713,-40.355,201.702,-45.779C201.816,-46.091,201.916,-46.408,202,-46.73C202.193,-47.574,202.337,-48.429,202.43,-49.29C202.492,-48.413,202.414,-47.532,202.2,-46.68C201.654,-44.296,200.296,-42.175,198.36,-40.68C197.032,-39.649,195.48,-38.947,193.83,-38.63C191.931,-38.267,189.97,-38.419,188.15,-39.07C187.161,-39.411,186.233,-39.908,185.4,-40.54C184.516,-41.179,183.739,-41.956,183.1,-42.84C180.273,-46.646,180.273,-51.854,183.1,-55.66C183.742,-56.542,184.518,-57.318,185.4,-57.96C186.237,-58.584,187.164,-59.076,188.15,-59.42C189.969,-60.076,191.932,-60.228,193.83,-59.86C197.949,-59.068,201.223,-55.939,202.2,-51.86C202.4,-51.019,202.467,-50.152,202.4,-49.29Z" /></g><g id="i51" fill="#000000"><path fill="#455a64" d="M184.121,-50.826C184.983,-55.092,189.14,-57.85,193.406,-56.988C197.672,-56.126,200.43,-51.968,199.568,-47.702C198.706,-43.436,194.549,-40.678,190.283,-41.54C186.017,-42.402,183.259,-46.56,184.121,-50.826Z" /></g></g></g></g></g></g><g transform="matrix(1,0,0,1,350,250)" id="i58"><g id="i16"><path fill="#e0e0e0" d="M108.32,204.89C108.32,204.89,160.42,204.89,160.42,204.89C160.42,204.89,136.13,-4.45,136.13,-4.45C136.13,-4.45,108.32,204.89,108.32,204.89Z" /></g><g id="i17"><path fill="#fafafa" d="M-148.04,-4.45C-148.04,-4.45,-181.96,207.36,-181.96,207.36C-181.96,207.36,107.49,211.13,107.49,211.13C107.49,211.13,136.13,-4.45,136.13,-4.45C136.13,-4.45,-148.04,-4.45,-148.04,-4.45Z" /></g><g id="i18"><path fill="#ebebeb" d="M123.24,92.58C123.24,92.58,-163.58,92.58,-163.58,92.58C-163.58,92.58,-157.34,53.58,-157.34,53.58C-157.34,53.58,128.42,53.58,128.42,53.58C128.42,53.58,123.24,92.58,123.24,92.58Z" /></g><g id="i19"><path fill="#263238" d="M123.26,92.61C123.26,92.61,-163.61,92.61,-163.61,92.61C-163.61,92.61,-163.61,92.61,-163.61,92.61C-163.61,92.61,-157.36,53.61,-157.36,53.61C-157.36,53.61,128.45,53.61,128.45,53.61C128.45,53.61,128.45,53.61,128.45,53.61C128.45,53.61,123.26,92.61,123.26,92.61ZM-163.55,92.56C-163.55,92.56,123.22,92.56,123.22,92.56C123.22,92.56,128.39,53.56,128.39,53.56C128.39,53.56,-157.31,53.56,-157.31,53.56C-157.31,53.56,-163.55,92.56,-163.55,92.56Z" /></g><g id="i20"><path fill="#7239ea" d="M-148.04,-4.45C-148.04,-4.45,-157.34,53.58,-157.34,53.58C-157.34,53.58,128.42,53.58,128.42,53.58C128.42,53.58,136.13,-4.45,136.13,-4.45C136.13,-4.45,-148.04,-4.45,-148.04,-4.45Z" /></g><g id="i21"><path fill="#263238" d="M-148,-4.45C-148,-4.45,136.17,-4.69,136.17,-4.69C136.17,-4.69,136.44,-4.69,136.44,-4.69C136.44,-4.69,136.44,-4.42,136.44,-4.42C128.07,58.69,118.57,130.26,108.53,205.85C108.53,205.85,108.53,206.08,108.53,206.08C108.53,206.08,105.05,206.08,105.05,206.08C105.05,206.08,-181.72,206,-181.72,206C-181.72,206,-182,206,-182,206C-182,206,-182,205.75,-182,205.75C-182,205.75,-148,-4.45,-148,-4.45C-148.28,-2.71,-161.2,78.5,-181.47,205.85C-181.47,205.85,-181.68,205.6,-181.68,205.6C-181.68,205.6,104.98,205.6,104.98,205.6C104.98,205.6,108.23,205.6,108.23,205.6C108.23,205.6,107.98,205.82,107.98,205.82C118.03,130.23,127.55,58.67,135.98,-4.44C135.98,-4.44,136.21,-4.18,136.21,-4.18C136.21,-4.18,-148,-4.45,-148,-4.45Z" /></g><g id="i22"><path fill="#263238" d="M128.42,53.58C128.42,53.72,64.42,53.84,-14.45,53.84C-93.32,53.84,-157.34,53.72,-157.34,53.58C-157.34,53.44,-93.34,53.32,-14.45,53.32C64.44,53.32,128.42,53.43,128.42,53.58Z" /></g><g id="i23"><path fill="#263238" d="M123.24,92.58C123.24,92.73,58.9,92.84,-20.44,92.84C-99.78,92.84,-164.13,92.73,-164.13,92.58C-164.13,92.43,-99.81,92.32,-20.44,92.32C58.93,92.32,123.24,92.44,123.24,92.58Z" /></g><g id="i24"><path fill="#263238" d="M117.4,128.47C117.4,128.62,53.07,128.73,-26.27,128.73C-105.61,128.73,-170,128.62,-170,128.47C-170,128.32,-105.68,128.21,-26.31,128.21C53.06,128.21,117.4,128.33,117.4,128.47Z" /></g><g id="i25"><path fill="#263238" d="M111.57,164.36C111.57,164.5,47.23,164.62,-32.11,164.62C-111.45,164.62,-175.8,164.5,-175.8,164.36C-175.8,164.22,-111.48,164.1,-32.11,164.1C47.26,164.1,111.57,164.22,111.57,164.36Z" /></g><g id="i26"><path fill="#263238" d="M-141.33,206.14C-141.47,206.14,-136.22,171.94,-129.59,129.82C-122.96,87.7,-117.49,53.55,-117.35,53.58C-117.21,53.61,-122.46,87.76,-129.08,129.9C-135.7,172.04,-141.18,206.16,-141.33,206.14Z" /></g><g id="i27"><path fill="#263238" d="M-97.1,206.14C-97.25,206.14,-91.99,171.94,-85.37,129.82C-78.75,87.7,-73.27,53.55,-73.12,53.58C-72.97,53.61,-78.23,87.76,-84.86,129.9C-91.49,172.04,-97,206.16,-97.1,206.14Z" /></g><g id="i28"><path fill="#263238" d="M-56,204.61C-56.14,204.61,-50.94,170.76,-44.39,129.06C-37.84,87.36,-32.39,53.55,-32.26,53.58C-32.13,53.61,-37.32,87.42,-43.87,129.14C-50.42,170.86,-55.87,204.63,-56,204.61Z" /></g><g id="i29"><path fill="#263238" d="M-15.35,205.82C-15.49,205.82,-10.25,171.69,-3.64,129.66C2.97,87.63,8.44,53.55,8.58,53.58C8.72,53.61,3.48,87.69,-3.13,129.74C-9.74,171.79,-15.21,205.84,-15.35,205.82Z" /></g><g id="i30"><path fill="#263238" d="M25.5,205.82C25.36,205.82,30.6,171.69,37.21,129.66C43.82,87.63,49.29,53.55,49.43,53.58C49.57,53.61,44.34,87.69,37.73,129.74C31.12,171.79,25.65,205.84,25.5,205.82Z" /></g><g id="i31"><path fill="#263238" d="M66.32,206C66.18,206,71.43,171.83,78.05,129.73C84.67,87.63,90.14,53.51,90.29,53.54C90.44,53.57,85.18,87.7,78.56,129.81C71.94,171.92,66.46,206.06,66.32,206Z" /></g><g id="i32"><g id="i51"><path fill="#000000" d="M40.62,56.3C45.54,54.12,48.62,49,49.89,43.77C51.16,38.54,50.96,33.08,51.15,27.69C51.34,22.3,51.98,16.75,54.73,12.12C56.36,9.39,58.65,7.12,60.46,4.49C62.27,1.86,63.61,-1.34,62.94,-4.51C62.94,-4.51,32.16,-4.35,32.16,-4.35C32.16,-4.35,40.62,56.3,40.62,56.3Z" /></g></g><g id="i59" opacity="0"><animate repeatCount="indefinite" attributeName="opacity" dur="4s" begin="0s" fill="freeze" values="0; 1; 1" keyTimes="0; 0.125; 1" keySplines="0 0 1 1; 0 0 1 1" calcMode="spline" /><path fill="#7239ea" d="M-78.63,104.66C-78.63,104.66,-78.53,104.4,-78.32,103.89C-77.988,103.15,-77.587,102.443,-77.12,101.78C-75.281,99.211,-72.688,97.278,-69.7,96.25C-67.56,95.476,-65.277,95.176,-63.01,95.37C-60.31,95.632,-57.708,96.519,-55.41,97.96C-52.757,99.595,-50.515,101.819,-48.86,104.46C-46.945,107.408,-45.991,110.877,-46.13,114.39C-46.245,116.285,-46.833,118.121,-47.84,119.73C-48.896,121.399,-50.301,122.818,-51.96,123.89C-55.492,126.155,-59.651,127.244,-63.84,127C-66.034,126.882,-68.195,126.413,-70.24,125.61C-72.368,124.779,-74.282,123.48,-75.84,121.81C-76.614,120.931,-77.267,119.953,-77.78,118.9C-78.269,117.825,-78.606,116.688,-78.78,115.52C-79.112,113.128,-78.904,110.691,-78.17,108.39C-76.641,103.591,-73.326,99.563,-68.91,97.14C-64.271,94.592,-58.713,94.337,-53.86,96.45C-51.379,97.495,-49.207,99.158,-47.55,101.28C-45.891,103.459,-44.854,106.048,-44.55,108.77C-44.204,111.531,-44.651,114.334,-45.84,116.85C-46.451,118.113,-47.254,119.273,-48.22,120.29C-49.204,121.292,-50.313,122.163,-51.52,122.88C-56.443,125.591,-62.271,126.134,-67.61,124.38C-70.211,123.581,-72.602,122.215,-74.61,120.38C-76.602,118.543,-77.963,116.125,-78.5,113.47C-79.064,110.86,-78.692,108.134,-77.45,105.77C-76.82,104.605,-75.955,103.583,-74.91,102.77C-73.881,101.993,-72.733,101.389,-71.51,100.98C-69.109,100.21,-66.59,99.871,-64.07,99.98C-61.617,99.998,-59.177,100.334,-56.81,100.98C-54.47,101.595,-52.309,102.753,-50.5,104.36C-48.767,105.977,-47.585,108.096,-47.12,110.42C-46.661,112.666,-46.795,114.992,-47.51,117.17C-48.218,119.27,-49.414,121.172,-51,122.72C-54.012,125.665,-58.002,127.402,-62.21,127.6C-64.18,127.704,-66.151,127.419,-68.01,126.76C-69.795,126.12,-71.4,125.06,-72.69,123.67C-73.911,122.344,-74.835,120.772,-75.4,119.06C-75.957,117.454,-76.205,115.758,-76.13,114.06C-75.987,110.916,-74.733,107.925,-72.59,105.62C-70.758,103.615,-68.44,102.117,-65.86,101.27C-63.695,100.564,-61.4,100.346,-59.14,100.63C-56.017,101.018,-53.049,102.214,-50.53,104.1C-49.876,104.581,-49.257,105.109,-48.68,105.68C-48.29,106.07,-48.1,106.28,-48.1,106.28C-48.1,106.28,-48.32,106.09,-48.71,105.72C-49.304,105.168,-49.932,104.654,-50.59,104.18C-53.114,102.35,-56.064,101.197,-59.16,100.83C-64.114,100.257,-69.038,102.12,-72.37,105.83C-74.457,108.085,-75.673,111.01,-75.8,114.08C-75.868,115.745,-75.62,117.407,-75.07,118.98C-74.513,120.641,-73.609,122.164,-72.42,123.45C-71.167,124.797,-69.61,125.825,-67.88,126.45C-66.066,127.08,-64.147,127.352,-62.23,127.25C-58.123,127.047,-54.233,125.343,-51.3,122.46C-49.768,120.962,-48.613,119.121,-47.93,117.09C-47.246,114.985,-47.122,112.738,-47.57,110.57C-48.02,108.339,-49.157,106.304,-50.82,104.75C-52.579,103.203,-54.675,102.087,-56.94,101.49C-59.267,100.853,-61.667,100.517,-64.08,100.49C-66.54,100.397,-68.997,100.736,-71.34,101.49C-73.73,102.222,-75.753,103.834,-77,106C-78.184,108.261,-78.538,110.865,-78,113.36C-77.482,115.911,-76.169,118.232,-74.25,119.99C-72.304,121.788,-69.981,123.127,-67.45,123.91C-62.254,125.62,-56.581,125.091,-51.79,122.45C-50.62,121.763,-49.547,120.922,-48.6,119.95C-47.672,118.974,-46.899,117.861,-46.31,116.65C-45.159,114.222,-44.726,111.516,-45.06,108.85C-45.346,106.222,-46.338,103.72,-47.93,101.61C-49.532,99.559,-51.632,97.951,-54.03,96.94C-58.739,94.883,-64.136,95.126,-68.64,97.6C-72.931,99.963,-76.153,103.882,-77.64,108.55C-78.353,110.783,-78.561,113.147,-78.25,115.47C-78.07,116.598,-77.734,117.695,-77.25,118.73C-76.755,119.741,-76.13,120.682,-75.39,121.53C-73.882,123.147,-72.03,124.405,-69.97,125.21C-67.97,126.001,-65.857,126.467,-63.71,126.59C-59.611,126.841,-55.537,125.791,-52.07,123.59C-48.82,121.601,-46.708,118.186,-46.38,114.39C-46.24,110.954,-47.166,107.559,-49.03,104.67C-50.648,102.062,-52.845,99.862,-55.45,98.24C-57.707,96.812,-60.263,95.925,-62.92,95.65C-65.153,95.438,-67.406,95.718,-69.52,96.47C-72.481,97.471,-75.064,99.356,-76.92,101.87C-77.399,102.522,-77.814,103.219,-78.16,103.95C-78.5,104.41,-78.63,104.66,-78.63,104.66Z" /></g><g id="i60" opacity="0"><animate repeatCount="indefinite" attributeName="opacity" dur="4s" begin="0s" fill="freeze" values="0; 0; 1; 1" keyTimes="0; 0.125; 0.25; 1" keySplines="0 0 1 1; 0 0 1 1; 0 0 1 1" calcMode="spline" /><g id="i47"><path fill="#ebebeb" d="M80,94.77C80,94.77,83.87,118.71,79.95,133.98C79.95,133.98,42.11,133.17,42.11,133.17C42.11,133.17,49.85,108.79,44.94,96.6C44.94,96.6,80,94.77,80,94.77Z" /></g><g id="i48"><path fill="#455a64" d="M79.83,93.87C79.83,93.87,79.58,123.98,78.05,133.17C78.05,133.17,40.28,131.38,40.28,131.38C40.28,131.38,43.59,101.78,42.28,93.87C42.28,93.87,79.83,93.87,79.83,93.87Z" /></g><g id="i49"><path fill="#ffffff" d="M47.64,107.27C47.64,107.41,53.32,107.53,60.33,107.54C67.34,107.55,73.03,107.45,73.03,107.31C73.03,107.17,67.35,107.05,60.33,107.04C53.31,107.03,47.64,107.13,47.64,107.27Z" /></g><g id="i50"><path fill="#ffffff" d="M48,113.64C48,113.78,53.68,113.9,60.69,113.91C67.7,113.92,73.39,113.82,73.39,113.68C73.39,113.54,67.71,113.42,60.69,113.41C53.67,113.4,48,113.5,48,113.64Z" /></g><g id="i61"><path fill="#ffffff" d="M54.77,119.51C55.466,119.659,56.178,119.723,56.89,119.7C58.2,119.7,60.01,119.77,62.01,119.78C64.01,119.79,65.81,119.78,67.12,119.71C67.831,119.739,68.543,119.681,69.24,119.54C68.544,119.391,67.831,119.331,67.12,119.36C65.81,119.31,64.01,119.28,62.01,119.27C60.01,119.26,58.2,119.27,56.89,119.34C56.179,119.311,55.467,119.369,54.77,119.51Z" /></g></g><g id="i62" opacity="0"><animate repeatCount="indefinite" attributeName="opacity" dur="4s" begin="0s" fill="freeze" values="0; 0; 1; 1" keyTimes="0; 0.25; 0.375; 1" keySplines="0 0 1 1; 0 0 1 1; 0 0 1 1" calcMode="spline" /><g id="i42"><path fill="#ebebeb" d="M-98.79,163.76C-98.79,163.76,-98.47,188.33,-104.67,203.04C-104.67,203.04,-142.46,196.6,-142.46,196.6C-142.46,196.6,-131.08,173.32,-134.18,160.38C-134.18,160.38,-98.79,163.76,-98.79,163.76Z" /></g><g id="i43"><path fill="#7239ea" d="M-98.8,162.84C-98.8,162.84,-103.54,193,-106.44,202C-106.44,202,-144,194.54,-144,194.54C-144,194.54,-136.27,165.38,-136.37,157.26C-136.37,157.26,-98.8,162.84,-98.8,162.84Z" /></g><g id="i44"><path fill="#ffffff" d="M-132.56,170.78C-132.56,170.92,-126.98,172.22,-120.03,173.68C-113.08,175.14,-107.43,176.21,-107.4,176.08C-107.37,175.95,-112.98,174.64,-119.93,173.18C-126.88,171.72,-132.53,170.64,-132.56,170.78Z" /></g><g id="i45"><path fill="#ffffff" d="M-133.52,177.17C-133.52,177.31,-127.94,178.6,-120.99,180.07C-114.04,181.54,-108.39,182.6,-108.36,182.47C-108.33,182.34,-113.94,181.03,-120.89,179.57C-127.84,178.11,-133.49,177,-133.52,177.17Z" /></g><g id="i46"><path fill="#ffffff" d="M-128,184.4C-127.359,184.679,-126.688,184.88,-126,185C-124.71,185.31,-122.92,185.72,-120.95,186.14C-118.98,186.56,-117.17,186.9,-115.86,187.14C-115.16,187.316,-114.441,187.403,-113.72,187.4C-114.385,187.12,-115.079,186.915,-115.79,186.79C-117.07,186.47,-118.86,186.06,-120.84,185.65C-122.82,185.24,-124.62,184.88,-125.92,184.65C-126.601,184.483,-127.299,184.399,-128,184.4Z" /></g></g><g id="i63" opacity="0"><animate repeatCount="indefinite" attributeName="opacity" dur="4s" begin="0s" fill="freeze" values="0; 0; 1; 1" keyTimes="0; 0.25; 0.375; 1" keySplines="0 0 1 1; 0 0 1 1; 0 0 1 1" calcMode="spline" /><g id="i40"><path fill="#7239ea" d="M-50.24,205.83C-50.35,205.73,-42.47,197.47,-32.65,187.4C-22.83,177.33,-14.78,169.22,-14.65,169.32C-14.52,169.42,-22.42,177.68,-32.24,187.76C-42.06,197.84,-50.14,205.93,-50.24,205.83Z" /></g><g id="i41"><path fill="#7239ea" d="M-16.93,205.82C-16.93,205.82,-17.06,205.71,-17.26,205.47C-17.26,205.47,-18.1,204.47,-18.1,204.47C-18.88,203.47,-19.92,202.18,-21.19,200.6C-23.8,197.34,-27.5,192.91,-31.79,188.2C-36.08,183.49,-40.15,179.4,-43.15,176.5C-43.15,176.5,-46.71,173,-46.71,173C-46.71,173,-47.71,172.06,-47.71,172.06C-47.826,171.955,-47.929,171.837,-48.02,171.71C-48.02,171.71,-47.87,171.79,-47.64,171.98C-47.64,171.98,-46.64,172.85,-46.64,172.85C-45.75,173.61,-44.49,174.74,-42.95,176.16C-39.89,179,-35.77,183.06,-31.46,187.78C-27.15,192.5,-23.46,196.98,-20.96,200.3C-19.68,201.96,-18.67,203.3,-17.96,204.3C-17.96,204.3,-17.19,205.4,-17.19,205.4C-17.086,205.529,-16.999,205.67,-16.93,205.82Z" /></g></g><g id="i64" opacity="0"><animate repeatCount="indefinite" attributeName="opacity" dur="4s" begin="0s" fill="freeze" values="0; 0; 1; 1" keyTimes="0; 0.375; 0.5; 1" keySplines="0 0 1 1; 0 0 1 1; 0 0 1 1" calcMode="spline" /><g id="i38"><path fill="#263238" d="M31.94,132.66C32.02,132.77,24.44,138.58,14.99,145.66C5.54,152.74,-2.18,158.33,-2.27,158.21C-2.36,158.09,5.23,152.29,14.68,145.21C24.13,138.13,31.85,132.54,31.94,132.66Z" /></g><g id="i39"><path fill="#263238" d="M34.88,157.26C34.81,157.38,26.75,152.39,16.88,146.1C7.01,139.81,-0.9,134.63,-0.83,134.5C-0.76,134.37,7.3,139.38,17.17,145.66C27.04,151.94,35,157.14,34.88,157.26Z" /></g></g><g id="i65" opacity="0"><animate repeatCount="indefinite" attributeName="opacity" dur="4s" begin="0s" fill="freeze" values="0; 0; 1; 1" keyTimes="0; 0.5; 0.625; 1" keySplines="0 0 1 1; 0 0 1 1; 0 0 1 1" calcMode="spline" /><g id="i36"><path fill="#263238" d="M-51.54,132.27C-51.45,132.38,-59.38,139.16,-69.26,147.42C-79.14,155.68,-87.26,162.27,-87.32,162.16C-87.38,162.05,-79.48,155.27,-69.6,147.02C-59.72,138.77,-51.63,132.16,-51.54,132.27Z" /></g><g id="i37"><path fill="#263238" d="M-49.81,161.27C-50.281,160.993,-50.726,160.675,-51.14,160.32C-51.14,160.32,-54.66,157.58,-54.66,157.58C-57.61,155.24,-61.66,151.98,-66.12,148.36C-70.58,144.74,-74.59,141.44,-77.48,139.03C-77.48,139.03,-80.89,136.15,-80.89,136.15C-81.322,135.82,-81.724,135.452,-82.09,135.05C-81.621,135.33,-81.177,135.648,-80.76,136C-80.76,136,-77.25,138.74,-77.25,138.74C-74.3,141.08,-70.25,144.34,-65.79,147.96C-61.33,151.58,-57.32,154.88,-54.42,157.29C-54.42,157.29,-51.02,160.16,-51.02,160.16C-50.59,160.5,-50.186,160.871,-49.81,161.27Z" /></g></g><g id="i66" opacity="0"><animate repeatCount="indefinite" attributeName="opacity" dur="4s" begin="0s" fill="freeze" values="0; 0; 1; 1" keyTimes="0; 0.625; 0.741667; 1" keySplines="0 0 1 1; 0 0 1 1; 0 0 1 1" calcMode="spline" /><g id="i33"><path fill="#263238" d="M-87,95.47C-87.082,95.604,-87.183,95.725,-87.3,95.83C-87.3,95.83,-88.22,96.83,-88.22,96.83C-89.03,97.66,-90.22,98.83,-91.72,100.29C-94.72,103.17,-98.89,107.09,-103.64,111.29C-108.39,115.49,-112.79,119.15,-116.02,121.75C-117.64,123.05,-118.96,124.09,-119.88,124.75C-119.88,124.75,-120.95,125.55,-120.95,125.55C-121.069,125.654,-121.204,125.739,-121.35,125.8C-121.35,125.8,-121.24,125.67,-121.02,125.47C-121.02,125.47,-120.02,124.59,-120.02,124.59C-120.02,124.59,-116.27,121.42,-116.27,121.42C-113.09,118.75,-108.73,115.04,-103.99,110.86C-99.25,106.68,-94.99,102.8,-91.99,99.99C-91.99,99.99,-88.38,96.66,-88.38,96.66C-88.38,96.66,-87.38,95.77,-87.38,95.77C-87.266,95.654,-87.139,95.554,-87,95.47Z" /></g><g id="i34"><path fill="#263238" d="M-89.31,126.2C-89.735,125.829,-90.133,125.428,-90.5,125C-90.5,125,-93.63,121.66,-93.63,121.66C-96.33,118.79,-99.95,114.93,-103.94,110.66C-103.94,110.66,-114.36,99.76,-114.36,99.76C-114.36,99.76,-117.52,96.45,-117.52,96.45C-117.919,96.056,-118.29,95.635,-118.63,95.19C-118.177,95.525,-117.755,95.899,-117.37,96.31C-116.59,97.05,-115.47,98.14,-114.1,99.5C-111.36,102.22,-107.62,106.03,-103.57,110.31C-99.52,114.59,-95.92,118.53,-93.36,121.42C-92.08,122.86,-91.05,124.04,-90.36,124.86C-89.97,125.273,-89.618,125.722,-89.31,126.2Z" /></g></g><g id="i53"><path fill="#263238" d="M88,25.74C80.94,25.74,73.83,21.31,70.09,14.34C66.454,7.399,65.327,-0.584,66.9,-8.26C68.97,-18.26,75.59,-26.46,83.77,-29.08C90.72,-31.31,103.14,-30.08,109,-20.27C111.792,-15.473,113.178,-9.987,113,-4.44C112.89,-2.783,111.457,-1.53,109.8,-1.64C108.143,-1.75,106.89,-3.183,107,-4.84C107.054,-9.171,105.942,-13.437,103.78,-17.19C99.26,-24.74,89.35,-24.59,85.53,-23.37C78.53,-21.13,74.05,-13.56,72.7,-7.05C71.404,-0.747,72.326,5.809,75.31,11.51C78.26,17.01,84.23,20.43,89.52,19.62C91.161,19.392,92.677,20.537,92.905,22.178C93.129,23.787,92.032,25.281,90.43,25.55C89.626,25.675,88.814,25.738,88,25.74Z" /></g><g id="i54"><path fill="#263238" d="M-105.68,25.74C-112.75,25.74,-119.85,21.31,-123.59,14.34C-127.229,7.4,-128.359,-0.583,-126.79,-8.26C-125.04,-16.7,-119.12,-26.42,-109.79,-29.1C-105.292,-30.318,-100.522,-30.077,-96.17,-28.41C-96.17,-28.41,-98.33,-22.81,-98.33,-22.81C-101.462,-24,-104.888,-24.186,-108.13,-23.34C-115.01,-21.34,-119.49,-13.72,-120.87,-7.05C-122.166,-0.747,-121.244,5.809,-118.26,11.51C-115.31,17.02,-109.33,20.43,-104.05,19.62C-104.05,19.62,-103.14,25.55,-103.14,25.55C-103.98,25.68,-104.83,25.743,-105.68,25.74Z" /></g><g id="i56"><path fill="#7239ea" d="M85.53,-4.29C85.53,-4.29,82.77,10.82,82.77,10.82C82.77,10.82,123.38,10.82,123.38,10.82C123.38,10.82,126.99,-4.14,126.99,-4.14C126.99,-4.14,85.53,-4.29,85.53,-4.29Z" /></g><g id="i57"><path fill="#263238" d="M-95.39,23.35C-95.384,26.918,-98.272,29.814,-101.84,29.82C-105.408,29.826,-108.304,26.938,-108.31,23.37C-108.316,19.802,-105.428,16.906,-101.86,16.9C-101.853,16.9,-101.847,16.9,-101.84,16.9C-98.28,16.905,-95.395,19.79,-95.39,23.35Z" /></g><g id="i51"><path fill="#263238" d="M98.12,23.35C98.126,26.918,95.238,29.814,91.67,29.82C88.102,29.826,85.206,26.938,85.2,23.37C85.194,19.802,88.082,16.906,91.65,16.9C91.657,16.9,91.663,16.9,91.67,16.9C95.23,16.905,98.115,19.79,98.12,23.35Z" /></g></g><g transform="matrix(1,0,0,1,350,250)" id="i67"><g><g transform="translate(7,-118.5)"><g transform="rotate(0)"><animateTransform repeatCount="indefinite" type="rotate" attributeName="transform" dur="4s" begin="0s" calcMode="spline" values="0; 6; 0; 6; 0; 0" keyTimes="0; 0.25; 0.5; 0.750001; 0.991667; 1" keySplines="0.333 0 0.667 1; 0.333 0 0.667 1; 0.333 0 0.667 1; 0.333 0 0.667 1; 0 0 1 1" fill="freeze" /><g id="i68" transform="translate(-7,118.5)"><g id="i69"><path fill="#ffbe9d" d="M-8.45,-101.68C-8.45,-101.68,-19.07,-61.4,-19.07,-61.4C-19.07,-61.4,-55.73,-57.46,-55.73,-57.46C-55.73,-57.46,-55.73,-50.96,-55.73,-50.96C-55.73,-50.96,-4.22,-49.15,-4.22,-49.15C-4.22,-49.15,5.46,-94.34,5.46,-94.34C5.46,-94.34,-8.45,-101.68,-8.45,-101.68Z" /></g><g id="i23"><path fill="#d6d6d6" d="M7.68,-122.19C7.68,-122.19,-6.26,-117.28,-9.26,-101.68C-9.26,-101.68,5.46,-94.34,5.46,-94.34C5.46,-94.34,7.68,-122.19,7.68,-122.19Z" /></g></g></g></g></g><g id="i70"><path fill="#263238" d="M7,-48.08C7,-48.08,-50.28,-50.81,-66.59,-38.08C-82.9,-25.35,-75,-4.45,-75,-4.45C-75,-4.45,17.18,-4.69,17.18,-4.69C17.18,-4.69,25.32,-51.42,25.32,-51.42C25.32,-51.42,7,-48.08,7,-48.08Z" /></g><g id="i71"><path fill="#455a64" d="M16.75,-17.25C16.472,-17.243,16.194,-17.263,15.92,-17.31C15.38,-17.37,14.59,-17.45,13.57,-17.58C11.57,-17.83,8.57,-18.25,4.97,-18.86C-4.482,-20.468,-13.831,-22.628,-23.03,-25.33C-28.41,-26.92,-33.5,-28.52,-38.2,-29.69C-42.349,-30.764,-46.592,-31.434,-50.87,-31.69C-53.756,-31.852,-56.652,-31.684,-59.5,-31.19C-60.5,-31.07,-61.27,-30.81,-61.81,-30.72C-62.077,-30.654,-62.347,-30.604,-62.62,-30.57C-62.366,-30.679,-62.101,-30.763,-61.83,-30.82C-61.078,-31.054,-60.314,-31.244,-59.54,-31.39C-56.685,-31.967,-53.77,-32.192,-50.86,-32.06C-46.52,-31.853,-42.212,-31.213,-38,-30.15C-33.27,-29.01,-28.17,-27.41,-22.81,-25.82C-13.661,-23.141,-4.378,-20.941,5,-19.23C8.61,-18.57,11.54,-18.1,13.57,-17.78C13.57,-17.78,15.91,-17.41,15.91,-17.41C16.194,-17.38,16.475,-17.327,16.75,-17.25Z" /></g><g id="i72"><path fill="#455a64" d="M-36.49,-30C-38.081,-31.312,-39.777,-32.493,-41.56,-33.53C-43.429,-34.404,-45.365,-35.127,-47.35,-35.69C-46.734,-35.744,-46.114,-35.683,-45.52,-35.51C-44.058,-35.195,-42.645,-34.684,-41.32,-33.99C-39.997,-33.292,-38.773,-32.421,-37.68,-31.4C-37.2,-31.011,-36.797,-30.536,-36.49,-30Z" /></g><g id="i73"><path fill="#d6d6d6" d="M13.07,76.43C13.07,76.43,13.84,100.5,13.84,100.5C13.84,100.5,9,119.72,9,119.72C8.684,121.041,9.5,122.368,10.821,122.684C10.88,122.698,10.94,122.71,11,122.72C11,122.72,11,122.72,11,122.72C11.784,122.863,12.59,122.617,13.16,122.06C16.8,118.5,30.16,105.34,29.99,103.59C29.81,101.59,30.86,78.13,30.86,78.13C30.86,78.13,13.07,76.43,13.07,76.43Z" /></g><g id="i74"><g id="i51"><path fill="#ffffff" d="M10.91,122.76C10.91,122.76,29.91,102,29.91,102C29.91,102,29.91,103,29.91,103C29.921,103.883,29.616,104.742,29.05,105.42C27.54,107.23,23.25,112.14,13.16,122.08C12.574,122.66,11.737,122.907,10.93,122.74C10.93,122.74,10.91,122.76,10.91,122.76Z" /></g></g><g id="i75"><g id="i51"><path fill="#ffffff" d="M24.87,94.27C24.238,94.733,24.068,95.604,24.48,96.27C24.917,96.892,25.762,97.067,26.41,96.67C27.06,96.188,27.234,95.289,26.81,94.6C26.293,93.991,25.385,93.902,24.76,94.4" /></g></g><g id="i76"><path fill="#263238" d="M16.32,112.18C16.18,112.25,15.62,111,14.19,110.33C13.305,109.982,12.361,109.813,11.41,109.83C11.41,109.77,11.69,109.58,12.25,109.49C13.765,109.306,15.249,110.021,16.05,111.32C16.33,111.81,16.37,112.16,16.32,112.18Z" /></g><g id="i77"><path fill="#263238" d="M14.63,115.43C13.938,115.052,13.223,114.718,12.49,114.43C11.709,114.292,10.921,114.199,10.13,114.15C10.876,113.67,11.809,113.584,12.63,113.92C14.05,114.3,14.75,115.36,14.63,115.43Z" /></g><g id="i78"><path fill="#263238" d="M19.47,108C18.448,107.326,17.379,106.728,16.27,106.21C15.099,105.852,13.902,105.584,12.69,105.41C15.262,104.871,17.912,105.883,19.47,108Z" /></g><g id="i79"><path fill="#263238" d="M19.85,100.68C19.79,100.83,18.45,100.28,16.72,100.24C14.99,100.2,13.62,100.62,13.56,100.47C15.536,99.381,17.951,99.461,19.85,100.68Z" /></g><g id="i80"><path fill="#263238" d="M19.8,93.61C18.747,93.279,17.653,93.094,16.55,93.06C15.456,93.187,14.386,93.466,13.37,93.89C13.37,93.84,13.59,93.53,14.14,93.21C15.633,92.367,17.44,92.289,19,93C19.55,93.27,19.84,93.55,19.8,93.61Z" /></g><g id="i81"><path fill="#263238" d="M16.58,91.71C16.518,91.41,16.518,91.1,16.58,90.8C16.655,89.964,16.896,89.151,17.29,88.41C17.524,87.839,17.943,87.364,18.48,87.06C18.861,86.89,19.307,86.973,19.6,87.27C19.858,87.57,19.996,87.954,19.99,88.35C19.893,90.012,18.638,91.375,16.99,91.61C15.358,91.791,13.779,90.97,12.99,89.53C12.793,89.171,12.764,88.743,12.91,88.36C13.102,87.994,13.499,87.783,13.91,87.83C14.504,87.957,15.056,88.236,15.51,88.64C16.166,89.16,16.728,89.789,17.17,90.5C17.347,90.751,17.475,91.032,17.55,91.33C16.914,90.426,16.15,89.621,15.28,88.94C14.874,88.607,14.394,88.377,13.88,88.27C13.652,88.231,13.426,88.345,13.32,88.55C13.248,88.81,13.284,89.087,13.42,89.32C14.136,90.537,15.496,91.224,16.9,91.08C18.306,90.901,19.394,89.762,19.51,88.35C19.523,88.076,19.438,87.807,19.27,87.59C19.115,87.414,18.863,87.361,18.65,87.46C18.211,87.728,17.863,88.122,17.65,88.59C17.118,89.561,16.756,90.617,16.58,91.71Z" /></g><g id="i82"><path fill="#263238" d="M25.27,-51.42C25.27,-51.42,0.5,-4.59,0.16,3.58C-0.18,11.75,0.16,87.06,0.16,87.06C0.16,87.06,38.5,87.06,38.5,87.06C39.5,87.06,45.25,53.13,44.08,45.32C42.91,37.51,38.78,-4.47,38.78,-4.47C38.78,-4.47,60.84,-4.47,60.84,-4.47C60.84,-4.47,66.89,-10.94,66.67,-19.15C66.54,-23.68,63.58,-32.94,60.67,-37.85C58.78,-41,46.67,-57.49,46.67,-57.49C46.67,-57.49,25.27,-51.42,25.27,-51.42Z" /></g><g id="i83"><path fill="#455a64" d="M23.61,-48.25C23.583,-48.156,23.546,-48.066,23.5,-47.98C23.41,-47.78,23.29,-47.53,23.14,-47.22C23.14,-47.22,21.7,-44.3,21.7,-44.3C21.05,-43.03,20.28,-41.49,19.38,-39.7C19.38,-39.7,17.94,-36.83,17.94,-36.83C17.94,-36.83,16.43,-33.56,16.43,-33.56C16.43,-33.56,9,-17.47,9,-17.47C7.59,-14.47,6.11,-11.26,4.57,-7.97C4.57,-7.97,2.24,-2.97,2.24,-2.97C1.487,-1.241,0.917,0.562,0.54,2.41C0.16,4.263,-0.037,6.149,-0.05,8.04C-0.11,9.91,-0.15,11.76,-0.18,13.57C-0.18,17.21,-0.25,20.71,-0.24,24.05C-0.24,30.73,-0.16,36.75,-0.09,41.8C-0.02,46.85,0.04,50.9,0.09,53.8C0.09,55.18,0.09,56.27,0.09,57.05C0.09,57.4,0.09,57.68,0.09,57.9C0.09,58.12,0.09,58.19,0.09,58.19C0.073,58.094,0.073,57.996,0.09,57.9C0.09,57.68,0.09,57.4,0.09,57.06C0.09,56.27,0.01,55.19,-0.05,53.8C-0.15,50.98,-0.28,46.89,-0.39,41.8C-0.5,36.71,-0.62,30.74,-0.65,24.05C-0.65,20.71,-0.65,17.2,-0.65,13.57C-0.65,11.75,-0.59,9.9,-0.52,8.02C-0.51,6.099,-0.313,4.183,0.07,2.3C0.457,0.418,1.04,-1.419,1.81,-3.18C1.81,-3.18,4.15,-8.18,4.15,-8.18C4.15,-8.18,8.61,-17.66,8.61,-17.66C8.61,-17.66,16.19,-33.71,16.19,-33.71C16.19,-33.71,17.73,-36.97,17.73,-36.97C18.26,-37.97,18.73,-38.97,19.21,-39.82C19.21,-39.82,21.6,-44.38,21.6,-44.38C22.25,-45.61,22.77,-46.57,23.13,-47.26C23.3,-47.56,23.44,-47.8,23.54,-48C23.64,-48.2,23.6,-48.26,23.61,-48.25Z" /></g><g id="i84"><path fill="#455a64" d="M15.59,-32.3C14.795,-34.204,14.127,-36.158,13.59,-38.15C12.888,-40.09,12.317,-42.074,11.88,-44.09C12.812,-42.242,13.55,-40.301,14.08,-38.3C14.788,-36.357,15.294,-34.347,15.59,-32.3Z" /></g><g id="i85"><path fill="#455a64" d="M44.16,43.85C44.096,43.68,44.056,43.501,44.04,43.32C43.993,42.913,43.923,42.403,43.83,41.79C43.65,40.38,43.42,38.46,43.13,36.13C42.58,31.29,41.84,24.72,41.02,17.46C40.2,10.2,39.53,3.55,39.12,-1.24C38.93,-3.58,38.77,-5.5,38.65,-6.91C38.65,-7.54,38.57,-8.05,38.54,-8.46C38.527,-8.64,38.527,-8.82,38.54,-9C38.603,-8.83,38.64,-8.651,38.65,-8.47C38.7,-8.06,38.77,-7.55,38.85,-6.93C39.01,-5.52,39.23,-3.61,39.49,-1.27C40.02,3.57,40.74,10.15,41.49,17.41C42.24,24.67,42.95,31.24,43.49,36.09C43.71,38.43,43.9,40.35,44.03,41.76C44.08,42.38,44.12,42.9,44.15,43.31C44.169,43.489,44.172,43.67,44.16,43.85Z" /></g><g><g transform="translate(26.5,-113.875)"><animateTransform repeatCount="indefinite" type="translate" attributeName="transform" dur="4s" begin="0s" calcMode="spline" values="26.5 -113.875; 27.25 -113.875; 26.5 -113.875; 27.25 -113.875; 26.5 -113.875; 26.5 -113.875" keyTimes="0; 0.25; 0.5; 0.750001; 0.991667; 1" keySplines="0.333 0 0.667 1; 0.333 0 0.667 1; 0.333 0 0.667 1; 0.333 0 0.667 1; 0 0 1 1" fill="freeze" /><g transform="rotate(-8)"><animateTransform repeatCount="indefinite" type="rotate" attributeName="transform" dur="4s" begin="0s" calcMode="spline" values="-8; -6; -8; -6; -8; -8" keyTimes="0; 0.25; 0.5; 0.750001; 0.991667; 1" keySplines="0.333 0 0.667 1; 0.333 0 0.667 1; 0.333 0 0.667 1; 0.333 0 0.667 1; 0 0 1 1" fill="freeze" /><g id="i86" transform="translate(-25,113.875)"><g id="i87"><path fill="#263238" d="M34.42,-176.84C33.83,-180.84,37.26,-184.69,41.22,-185.16C45.18,-185.63,49.17,-183.16,50.99,-179.55C52.702,-175.88,52.811,-171.663,51.29,-167.91C50.29,-165.38,48.44,-162.82,45.75,-162.62C43.06,-162.42,41,-164.47,39.22,-166.36" /></g><g id="i55"><path fill="#263238" d="M6.27,-157C-1.73,-174.53,17.27,-183.34,27.6,-180.42C37.32,-177.67,41.47,-172.83,43.07,-166.33C44.823,-159.809,44.473,-152.901,42.07,-146.59C40.81,-143.53,38.55,-140.43,35.27,-140.05" /></g><g id="i1"><path fill="#ffbe9d" d="M33.8,-170.69C35.506,-170.513,36.79,-169.055,36.75,-167.34C36.75,-167.34,36.75,-167.34,36.75,-167.34C36.75,-167.34,34.88,-122.72,34.88,-122.72C34.81,-117.45,27.12,-114.47,21.47,-114.59C21.47,-114.59,21.47,-114.59,21.47,-114.59C15.78,-114.71,15.59,-117.51,15.47,-122.52C15.34,-130.89,15.34,-134.04,15.34,-133.99C15.34,-133.94,8.14,-135.19,6.65,-144.58C5.9,-149.25,6.14,-156.91,6.53,-163.17C6.89,-168.8,10.62,-175.72,16.24,-175.17C16.24,-175.17,33.8,-170.69,33.8,-170.69Z" /></g><g id="i2"><path fill="#263238" d="M10.21,-157.83C10.199,-157.175,10.715,-156.632,11.37,-156.61C12.003,-156.56,12.558,-157.032,12.608,-157.665C12.609,-157.677,12.609,-157.688,12.61,-157.7C12.616,-158.353,12.103,-158.893,11.45,-158.92C10.817,-158.97,10.262,-158.498,10.212,-157.865C10.211,-157.853,10.211,-157.842,10.21,-157.83Z" /></g><g id="i3"><path fill="#263238" d="M8.22,-159.18C8.37,-159.03,9.29,-159.7,10.58,-159.7C11.87,-159.7,12.83,-159.05,12.97,-159.21C13.11,-159.37,12.89,-159.56,12.47,-159.86C11.909,-160.248,11.242,-160.454,10.56,-160.45C9.887,-160.457,9.23,-160.242,8.69,-159.84C8.29,-159.54,8.15,-159.25,8.22,-159.18Z" /></g><g id="i4"><path fill="#263238" d="M22.88,-157.83C22.873,-157.192,23.363,-156.657,24,-156.61C24.633,-156.56,25.188,-157.032,25.238,-157.665C25.239,-157.677,25.239,-157.688,25.24,-157.7C25.246,-158.353,24.733,-158.893,24.08,-158.92C23.448,-158.948,22.912,-158.461,22.88,-157.83Z" /></g><g id="i5"><path fill="#263238" d="M21,-158.94C21.15,-158.79,22.06,-159.46,23.35,-159.46C24.64,-159.46,25.6,-158.81,25.74,-158.96C25.88,-159.11,25.66,-159.32,25.24,-159.62C24.68,-160.009,24.012,-160.216,23.33,-160.21C22.658,-160.21,22.003,-159.996,21.46,-159.6C21,-159.3,20.89,-159,21,-158.94Z" /></g><g id="i6"><path fill="#263238" d="M16.26,-149.33C15.578,-149.54,14.873,-149.668,14.16,-149.71C13.83,-149.71,13.51,-149.81,13.46,-150.03C13.429,-150.378,13.506,-150.727,13.68,-151.03C13.99,-151.83,14.31,-152.67,14.68,-153.55C15.586,-155.685,16.322,-157.889,16.88,-160.14C15.797,-158.085,14.884,-155.944,14.15,-153.74C14.15,-153.74,13.21,-151.2,13.21,-151.2C13.003,-150.8,12.943,-150.34,13.04,-149.9C13.141,-149.665,13.343,-149.488,13.59,-149.42C13.773,-149.372,13.961,-149.345,14.15,-149.34C14.85,-149.249,15.559,-149.246,16.26,-149.33Z" /></g><g id="i7"><path fill="#eb996e" d="M15.37,-134C19.81,-133.919,24.184,-135.079,28,-137.35C28,-137.35,24.94,-130.89,15.54,-131.77C15.54,-131.77,15.37,-134,15.37,-134Z" /></g><g id="i8"><path fill="#eb996e" d="M16.81,-146.21C17.313,-146.836,18.102,-147.161,18.9,-147.07C19.481,-147.021,20.016,-146.736,20.38,-146.28C20.732,-145.838,20.772,-145.224,20.48,-144.74C20.055,-144.262,19.381,-144.091,18.78,-144.31C18.164,-144.527,17.599,-144.867,17.12,-145.31C16.975,-145.413,16.849,-145.542,16.75,-145.69C16.655,-145.836,16.655,-146.024,16.75,-146.17" /></g><g id="i9"><path fill="#263238" d="M20.08,-148.43C19.87,-148.43,19.86,-147.04,18.66,-146.04C17.46,-145.04,15.96,-145.2,15.95,-145.04C15.94,-144.88,16.28,-144.77,16.95,-144.75C17.776,-144.741,18.579,-145.02,19.22,-145.54C19.829,-146.041,20.223,-146.757,20.32,-147.54C20.33,-148.09,20.17,-148.44,20.08,-148.43Z" /></g><g id="i10"><path fill="#263238" d="M20.38,-161.21C20.51,-160.86,21.81,-161.03,23.33,-160.84C24.85,-160.65,26.08,-160.25,26.28,-160.56C26.37,-160.71,26.15,-161.04,25.66,-161.39C25.001,-161.814,24.25,-162.074,23.47,-162.15C22.693,-162.247,21.904,-162.154,21.17,-161.88C20.61,-161.66,20.33,-161.38,20.38,-161.21Z" /></g><g id="i11"><path fill="#263238" d="M8.7,-162.94C8.93,-162.64,9.82,-162.94,10.9,-162.94C11.98,-162.94,12.9,-162.74,13.09,-163.05C13.18,-163.2,13.09,-163.5,12.64,-163.77C12.113,-164.116,11.49,-164.288,10.86,-164.26C10.23,-164.247,9.619,-164.041,9.11,-163.67C8.73,-163.38,8.6,-163.08,8.7,-162.94Z" /></g><g id="i12"><path fill="#263238" d="M20.93,-178.25C17.742,-178.087,14.647,-177.124,11.93,-175.45C8.853,-173.855,6.537,-171.103,5.49,-167.8C5.224,-167.112,5.253,-166.346,5.57,-165.68C6.183,-164.903,7.262,-164.672,8.14,-165.13C8.988,-165.591,9.709,-166.254,10.24,-167.06C10.755,-164.912,12.914,-163.588,15.062,-164.103C16.558,-164.462,17.716,-165.646,18.04,-167.15C18.189,-165.278,19.784,-163.855,21.66,-163.92C23.502,-164.079,25.073,-165.317,25.66,-167.07C25.88,-165.444,26.443,-163.883,27.31,-162.49C28.219,-161.074,29.918,-160.378,31.56,-160.75C31.224,-159.368,31.245,-157.922,31.62,-156.55C32.12,-155.23,34.11,-132.64,35.45,-133.1C36.79,-133.56,36.74,-156.6,37.04,-157.94C37.705,-160.51,38.041,-163.155,38.04,-165.81C38.225,-171.46,34.286,-176.41,28.74,-177.5C26.059,-178.115,23.308,-178.367,20.56,-178.25" /></g><g id="i13"><path fill="#263238" d="M39.75,-137.11C39.75,-137.11,39.66,-137.05,39.46,-136.98C39.179,-136.877,38.887,-136.807,38.59,-136.77C35.751,-136.41,32.959,-137.718,31.42,-140.13C30.397,-141.91,29.967,-143.969,30.19,-146.01C30.34,-148.16,30.84,-150.12,31.07,-151.92C31.296,-153.518,31.437,-155.127,31.49,-156.74C31.49,-158.12,31.49,-159.23,31.49,-160.01C31.447,-160.409,31.447,-160.811,31.49,-161.21C31.609,-160.817,31.679,-160.41,31.7,-160C31.809,-158.907,31.863,-157.809,31.86,-156.71C31.858,-155.082,31.755,-153.455,31.55,-151.84C31.33,-150,30.86,-148.03,30.71,-145.96C30.496,-144.022,30.887,-142.066,31.83,-140.36C32.652,-139.002,33.916,-137.967,35.41,-137.43C36.414,-137.047,37.488,-136.883,38.56,-136.95C39.33,-137,39.74,-137.16,39.75,-137.11Z" /></g><g id="i14"><path fill="#455a64" d="M17.62,-179.46C17.984,-178.775,18.153,-178.004,18.11,-177.23C18.183,-173.285,15.054,-170.023,11.11,-169.93C10.341,-169.856,9.566,-169.995,8.87,-170.33C8.87,-170.42,9.73,-170.18,11.09,-170.33C14.772,-170.58,17.665,-173.581,17.78,-177.27C17.81,-178.6,17.53,-179.44,17.62,-179.46Z" /></g><g id="i15"><path fill="#455a64" d="M19,-168.4C19.05,-168.4,18.93,-167.76,18.21,-167.06C17.244,-166.191,15.966,-165.754,14.67,-165.85C13.413,-165.962,12.202,-166.377,11.14,-167.06C10.33,-167.57,9.89,-167.96,9.93,-168.06C10.414,-167.908,10.878,-167.696,11.31,-167.43C12.365,-166.882,13.516,-166.542,14.7,-166.43C15.875,-166.361,17.035,-166.716,17.97,-167.43C18.7,-167.89,18.94,-168.44,19,-168.4Z" /></g><g id="i16"><path fill="#455a64" d="M41.65,-171.27C41.717,-170.409,41.656,-169.543,41.47,-168.7C41.187,-166.611,40.397,-164.624,39.17,-162.91C37.875,-161.193,35.928,-160.086,33.79,-159.85C33.147,-159.792,32.499,-159.857,31.88,-160.04C31.45,-160.17,31.24,-160.3,31.25,-160.33C32.075,-160.182,32.915,-160.145,33.75,-160.22C35.739,-160.543,37.529,-161.617,38.75,-163.22C39.922,-164.877,40.723,-166.766,41.1,-168.76C41.231,-169.607,41.415,-170.445,41.65,-171.27Z" /></g><g id="i17"><path fill="#455a64" d="M43.37,-166.72C43.462,-166.463,43.512,-166.193,43.52,-165.92C43.587,-165.192,43.604,-164.46,43.57,-163.73C43.517,-161.269,42.637,-158.898,41.07,-157C40.186,-155.956,39.035,-155.172,37.74,-154.73C36.679,-154.383,35.546,-154.314,34.45,-154.53C33.714,-154.671,33.016,-154.963,32.4,-155.39C31.98,-155.7,31.8,-155.93,31.82,-155.95C32.641,-155.428,33.554,-155.068,34.51,-154.89C35.542,-154.742,36.594,-154.841,37.58,-155.18C38.781,-155.623,39.848,-156.367,40.68,-157.34C42.165,-159.168,43.049,-161.41,43.21,-163.76C43.37,-165.57,43.28,-166.71,43.37,-166.72Z" /></g></g></g></g></g><g id="i18"><path fill="#455a64" d="M-88.44,-45.85C-88.44,-45.85,-106.59,-4.34,-106.59,-4.34C-106.59,-4.34,-81.6,-4.34,-81.6,-4.34C-81.6,-4.34,-63.8,-46.18,-63.8,-46.18C-63.8,-46.18,-88.44,-45.85,-88.44,-45.85Z" /></g><g id="i19"><path fill="#e0e0e0" d="M-101.64,-90C-101.64,-90,-81.17,-49.74,-81.17,-49.74C-81.17,-49.74,-16.61,-49.74,-16.61,-49.74C-16.61,-49.74,-19.22,-55,-19.22,-55C-19.22,-55,-37.92,-55.56,-37.92,-55.56C-37.92,-55.56,-53.17,-89.5,-53.17,-89.5C-54.116,-91.612,-56.215,-92.971,-58.53,-92.97C-58.53,-92.97,-99.82,-92.97,-99.82,-92.97C-100.924,-93.01,-101.85,-92.147,-101.89,-91.043C-101.903,-90.679,-101.817,-90.318,-101.64,-90Z" /></g><g id="i20"><path fill="#263238" d="M-69.31,-71.95C-69.31,-70.586,-70.416,-69.48,-71.78,-69.48C-73.144,-69.48,-74.25,-70.586,-74.25,-71.95C-74.25,-73.314,-73.144,-74.42,-71.78,-74.42C-70.418,-74.415,-69.315,-73.312,-69.31,-71.95Z" /></g><g id="i21"><path fill="#455a64" d="M-88.65,-49.66C-88.65,-49.66,-9.73,-49.66,-9.73,-49.66C-9.73,-49.66,-9.73,-45.81,-9.73,-45.81C-9.73,-45.81,-88.65,-45.81,-88.65,-45.81C-88.65,-45.81,-88.65,-49.66,-88.65,-49.66Z" /></g><g id="i22"><path fill="#455a64" d="M-34.04,-47.73C-34.04,-47.73,-10.03,-4.3,-10.03,-4.3C-10.03,-4.3,1.45,-4.3,1.45,-4.3C1.45,-4.3,3.95,-9.27,3.95,-9.27C3.95,-9.27,6.25,-14.5,6.25,-14.5C6.25,-14.5,-9.73,-45.81,-9.73,-45.81C-9.73,-45.81,-34.04,-47.73,-34.04,-47.73Z" /></g><g id="i24"><path fill="#d6d6d6" d="M7.68,-122.19C7.68,-122.19,-2.07,-100.33,-1.7,-88.39C-1.57,-84.24,1.15,-73.39,1.15,-73.39C1.15,-73.39,6.22,-46.53,6.22,-46.53C6.22,-46.53,45.03,-51.78,45.89,-51.78C46.75,-51.78,44.59,-73.83,44.59,-73.83C44.59,-73.83,50.92,-116.2,50.92,-116.2C50.92,-116.2,48.02,-121.97,34.92,-123.97C27.07,-125.2,7.68,-122.19,7.68,-122.19Z" /></g><g id="i25"><path fill="#263238" d="M4,-109.5C4.09,-109.45,3.07,-107.82,1.84,-105C1.127,-103.349,0.526,-101.652,0.04,-99.92C-0.544,-97.798,-0.969,-95.635,-1.23,-93.45C-1.46,-91.261,-1.53,-89.059,-1.44,-86.86C-1.349,-85.065,-1.139,-83.277,-0.81,-81.51C-0.25,-78.51,0.39,-76.67,0.29,-76.64C0.08,-77.038,-0.087,-77.457,-0.21,-77.89C-0.388,-78.385,-0.542,-78.889,-0.67,-79.4C-0.83,-80,-1.04,-80.67,-1.18,-81.4C-1.555,-83.18,-1.802,-84.985,-1.92,-86.8C-2.04,-89.028,-1.983,-91.261,-1.75,-93.48C-1.484,-95.696,-1.039,-97.886,-0.42,-100.03C0.094,-101.773,0.739,-103.474,1.51,-105.12C1.791,-105.759,2.105,-106.383,2.45,-106.99C2.689,-107.46,2.953,-107.918,3.24,-108.36C3.454,-108.765,3.709,-109.147,4,-109.5Z" /></g><g id="i26"><path fill="#d6d6d6" d="M12.4,-122.39C12.4,-122.39,12.96,-128.39,12.96,-128.39C13.087,-129.681,14.163,-130.671,15.46,-130.69C15.46,-130.69,34.61,-130.98,34.61,-130.98C35.815,-130.994,36.825,-130.072,36.92,-128.87C36.92,-128.87,37.41,-122.4,37.41,-122.4C35.807,-119.002,33.095,-116.251,29.72,-114.6C24.09,-111.87,15.34,-111.78,15.34,-111.78C15.34,-111.78,12.4,-122.39,12.4,-122.39Z" /></g><g id="i27"><path fill="#263238" d="M17.41,-130.64C17.47,-130.64,17.19,-130.25,17.07,-129.64C16.962,-128.757,16.962,-127.863,17.07,-126.98C17.238,-125.692,17.238,-124.388,17.07,-123.1C16.726,-124.354,16.551,-125.649,16.55,-126.95C16.416,-127.876,16.457,-128.819,16.67,-129.73C17,-130.42,17.38,-130.69,17.41,-130.64Z" /></g><g id="i28"><path fill="#263238" d="M22,-123.22C21.666,-124.445,21.504,-125.71,21.52,-126.98C21.446,-127.878,21.446,-128.782,21.52,-129.68C21.62,-130.4,21.91,-130.77,21.97,-130.68C22.03,-130.59,21.88,-130.26,21.89,-129.6C21.9,-128.94,22,-128,22,-127C22.168,-125.746,22.168,-124.474,22,-123.22Z" /></g><g id="i29"><path fill="#263238" d="M27.75,-123.38C27.336,-124.547,27.084,-125.765,27,-127C26.753,-128.224,26.676,-129.475,26.77,-130.72C27.188,-129.544,27.44,-128.316,27.52,-127.07C27.763,-125.856,27.841,-124.615,27.75,-123.38Z" /></g><g id="i30"><path fill="#263238" d="M32.71,-123C32.253,-124.285,32.01,-125.636,31.99,-127C31.798,-128.36,31.832,-129.741,32.09,-131.09C32.352,-129.772,32.492,-128.433,32.51,-127.09C32.704,-125.736,32.771,-124.367,32.71,-123Z" /></g><g id="i31"><g id="i51"><path fill="#000000" d="M36.51,-100.09C35.74,-93.36,36.25,-81.76,38.63,-75.41C38.63,-75.41,49.81,-93.88,49.81,-93.88C49.81,-93.88,36.51,-100.09,36.51,-100.09Z" /></g></g><g id="i34"><path fill="#fafafa" d="M12.29,-110.14C11.17,-110.792,10.141,-111.589,9.23,-112.51C8.203,-113.303,7.288,-114.231,6.51,-115.27C8.657,-113.826,10.601,-112.1,12.29,-110.14C12.29,-110.14,12.29,-110.14,12.29,-110.14Z" /></g><g id="i35"><path fill="#fafafa" d="M9.32,-98.57C8.536,-97.764,7.627,-97.089,6.63,-96.57C5.715,-95.906,4.703,-95.387,3.63,-95.03C5.327,-96.489,7.24,-97.676,9.3,-98.55C9.3,-98.55,9.32,-98.57,9.32,-98.57Z" /></g><g id="i36"><path fill="#fafafa" d="M21.59,-95.72C21.412,-97.141,21.412,-98.579,21.59,-100C21.597,-101.429,21.772,-102.852,22.11,-104.24C22.285,-102.822,22.285,-101.388,22.11,-99.97C22.106,-98.538,21.932,-97.111,21.59,-95.72Z" /></g><g id="i37"><path fill="#fafafa" d="M33.52,-84.15C32.525,-85.084,31.596,-86.087,30.74,-87.15C29.757,-88.087,28.838,-89.089,27.99,-90.15C29.19,-89.454,30.251,-88.542,31.12,-87.46C32.11,-86.507,32.922,-85.387,33.52,-84.15Z" /></g><g id="i38"><path fill="#fafafa" d="M35.2,-108.34C34.342,-107.447,33.362,-106.68,32.29,-106.06C31.308,-105.304,30.228,-104.685,29.08,-104.22C29.941,-105.114,30.924,-105.882,32,-106.5C32.981,-107.252,34.057,-107.871,35.2,-108.34Z" /></g><g id="i39"><path fill="#fafafa" d="M24.42,-117.09C23.471,-116.167,22.401,-115.376,21.24,-114.74C20.175,-113.952,19.012,-113.306,17.78,-112.82C18.73,-113.745,19.8,-114.538,20.96,-115.18C22.029,-115.959,23.191,-116.6,24.42,-117.09Z" /></g><g id="i40"><path fill="#fafafa" d="M34.14,-113.61C33.485,-114.578,32.973,-115.636,32.62,-116.75C32.128,-117.81,31.791,-118.934,31.62,-120.09C32.283,-119.123,32.796,-118.061,33.14,-116.94C33.638,-115.886,33.975,-114.764,34.14,-113.61Z" /></g><g id="i44"><path fill="#fafafa" d="M8.31,-81.34C7.495,-82.469,6.823,-83.695,6.31,-84.99C5.64,-86.212,5.123,-87.512,4.77,-88.86C5.585,-87.731,6.257,-86.505,6.77,-85.21C7.442,-83.989,7.959,-82.689,8.31,-81.34Z" /></g><g id="i45"><path fill="#fafafa" d="M23,-65.56C22.06,-66.414,21.243,-67.393,20.57,-68.47C19.767,-69.452,19.095,-70.535,18.57,-71.69C19.512,-70.835,20.333,-69.856,21.01,-68.78C21.817,-67.802,22.487,-66.719,23,-65.56Z" /></g><g id="i46"><path fill="#fafafa" d="M35.14,-72.18C34.111,-71.509,32.993,-70.984,31.82,-70.62C30.708,-70.095,29.526,-69.735,28.31,-69.55C30.449,-70.749,32.749,-71.635,35.14,-72.18C35.14,-72.18,35.14,-72.18,35.14,-72.18Z" /></g><g id="i47"><path fill="#fafafa" d="M5.23,-59.4C5.71,-61.287,6.519,-63.074,7.62,-64.68C7.451,-63.712,7.112,-62.781,6.62,-61.93C6.309,-61.012,5.838,-60.155,5.23,-59.4Z" /></g><g id="i48"><path fill="#fafafa" d="M-4.18,-104.59C-4.758,-105.322,-5.106,-106.21,-5.18,-107.14C-5.416,-108.041,-5.374,-108.993,-5.06,-109.87C-4.854,-109.003,-4.72,-108.12,-4.66,-107.23C-4.429,-106.364,-4.268,-105.482,-4.18,-104.59Z" /></g><g id="i49"><path fill="#fafafa" d="M12.53,-69.52C11.462,-69.801,10.449,-70.257,9.53,-70.87C8.534,-71.322,7.616,-71.93,6.81,-72.67C7.876,-72.384,8.889,-71.928,9.81,-71.32C10.802,-70.86,11.719,-70.254,12.53,-69.52Z" /></g><g id="i50"><path fill="#fafafa" d="M22.18,-86.18C20.54,-84.216,18.635,-82.49,16.52,-81.05C17.279,-82.085,18.174,-83.013,19.18,-83.81C20.067,-84.733,21.077,-85.53,22.18,-86.18Z" /></g><g id="i61"><g id="i51"><path fill="#000000" d="M16.27,-86.49C16.755,-83.004,18.31,-79.755,20.72,-77.19C23.22,-74.75,27.09,-73.52,30.34,-74.79C31.061,-74.988,31.639,-75.526,31.89,-76.23C32.003,-77.109,31.48,-77.946,30.64,-78.23C29.83,-78.49,28.981,-78.612,28.13,-78.59C23.2,-78.914,18.788,-81.766,16.47,-86.13" /></g></g><g id="i53"><path fill="#263238" d="M29.27,-78.43C29.27,-78.43,29.04,-78.35,28.6,-78.31C27.982,-78.247,27.358,-78.247,26.74,-78.31C25.821,-78.418,24.919,-78.633,24.05,-78.95C21.906,-79.721,20.003,-81.042,18.53,-82.78C17.932,-83.485,17.419,-84.256,17,-85.08C16.705,-85.629,16.474,-86.209,16.31,-86.81C16.23,-87.024,16.186,-87.251,16.18,-87.48C16.28,-87.48,16.55,-86.58,17.32,-85.26C17.771,-84.49,18.297,-83.766,18.89,-83.1C19.625,-82.289,20.447,-81.562,21.34,-80.93C22.242,-80.318,23.208,-79.805,24.22,-79.4C25.05,-79.074,25.911,-78.832,26.79,-78.68C28.3,-78.46,29.27,-78.53,29.27,-78.43Z" /></g><g><g transform="translate(46,-113)"><g transform="rotate(6)"><animateTransform repeatCount="indefinite" type="rotate" attributeName="transform" dur="4s" begin="0s" calcMode="spline" values="6; 0; 6; 0; 6; 6" keyTimes="0; 0.25; 0.5; 0.750001; 0.991667; 1" keySplines="0.333 0 0.667 1; 0.333 0 0.667 1; 0.333 0 0.667 1; 0.333 0 0.667 1; 0 0 1 1" fill="freeze" /><g id="i68" transform="translate(-46,113)"><g id="i32"><path fill="#d6d6d6" d="M49.88,-117.59C49.88,-117.59,49.94,-117.53,49.94,-117.53C53.11,-114.202,55.43,-110.157,56.7,-105.74C56.7,-105.74,58.76,-96.35,58.76,-96.35C58.76,-96.35,36.76,-92.95,36.76,-92.95C35.549,-96.933,35.262,-101.139,35.92,-105.25C37,-112.33,49.88,-117.59,49.88,-117.59Z" /></g><g id="i33"><path fill="#263238" d="M58.76,-96.35C58.617,-96.3,58.47,-96.263,58.32,-96.24C58.32,-96.24,57.06,-96.01,57.06,-96.01C57.06,-96.01,52.35,-95.24,52.35,-95.24C52.35,-95.24,36.41,-92.82,36.41,-92.82C36.41,-92.82,36.13,-92.82,36.13,-92.82C36.13,-92.82,36.13,-93.11,36.13,-93.11C36.08,-94.44,36.04,-95.82,36.01,-97.24C35.96,-100.93,36.01,-104.46,36.23,-107.67C36.382,-110.547,37.263,-113.337,38.79,-115.78C39.816,-117.423,41.222,-118.795,42.89,-119.78C43.34,-120.047,43.816,-120.269,44.31,-120.44C44.475,-120.516,44.65,-120.566,44.83,-120.59C44.83,-120.59,44.13,-120.32,42.99,-119.59C41.403,-118.573,40.072,-117.205,39.1,-115.59C37.651,-113.163,36.827,-110.414,36.7,-107.59C36.47,-104.41,36.48,-100.89,36.54,-97.2C36.54,-95.8,36.61,-94.41,36.64,-93.09C36.64,-93.09,36.35,-93.34,36.35,-93.34C36.35,-93.34,52.35,-95.59,52.35,-95.59C52.35,-95.59,57.08,-96.2,57.08,-96.2C57.08,-96.2,58.36,-96.35,58.36,-96.35C58.493,-96.367,58.627,-96.367,58.76,-96.35Z" /></g><g id="i41"><path fill="#fafafa" d="M47.51,-109.22C45.911,-110.329,44.523,-111.714,43.41,-113.31C44.257,-112.826,45.012,-112.196,45.64,-111.45C46.393,-110.826,47.027,-110.071,47.51,-109.22Z" /></g><g id="i42"><path fill="#fafafa" d="M42,-99.47C41.682,-100.458,41.537,-101.493,41.57,-102.53C41.421,-103.554,41.451,-104.596,41.66,-105.61C42.12,-103.597,42.235,-101.521,42,-99.47Z" /></g><g id="i43"><path fill="#fafafa" d="M53.11,-101.49C51.946,-101.305,50.758,-101.345,49.61,-101.61C48.438,-101.706,47.295,-102.021,46.24,-102.54C47.402,-102.528,48.559,-102.387,49.69,-102.12C50.849,-102.032,51.996,-101.821,53.11,-101.49Z" /></g><g id="i54"><path fill="#ffbe9d" d="M-25.78,-62.31C-25.78,-62.31,-11.3,-64,-11.3,-64C-11.3,-64,-1.09,-57.31,-1.09,-57.31C-1.09,-57.31,37.91,-66.67,37.91,-66.67C37.91,-66.67,38.83,-93.39,38.83,-93.39C38.83,-93.39,56.16,-95.67,56.16,-95.67C56.16,-95.67,56.16,-63.32,56.16,-63.32C55.958,-55.143,49.178,-48.671,41,-48.85C41,-48.85,-16.16,-50.44,-16.16,-50.44C-16.16,-50.44,-18.59,-55.3,-18.59,-55.3C-18.59,-55.3,-30.86,-55.67,-30.86,-55.67C-30.86,-55.67,-25.78,-62.31,-25.78,-62.31Z" /></g><g id="i56"><path fill="#eb996e" d="M37.45,-66.72C37.21,-66.624,36.962,-66.547,36.71,-66.49C36.71,-66.49,34.59,-65.94,34.59,-65.94C34.59,-65.94,26.76,-64,26.76,-64C26.76,-64,0.88,-57.73,0.88,-57.73C0.88,-57.73,-1.53,-57.15,-1.53,-57.15C-1.53,-57.15,-1.63,-57.15,-1.63,-57.15C-1.63,-57.15,-1.71,-57.15,-1.71,-57.15C-1.71,-57.15,-11.91,-63.86,-11.91,-63.86C-11.91,-63.86,-11.77,-63.86,-11.77,-63.86C-11.77,-63.86,-26.26,-62.18,-26.26,-62.18C-26.26,-62.18,-26.16,-62.24,-26.16,-62.24C-26.16,-62.24,-30,-57.37,-30,-57.37C-30,-57.37,-31,-56.09,-31,-56.09C-31.111,-55.937,-31.239,-55.796,-31.38,-55.67C-31.287,-55.833,-31.183,-55.99,-31.07,-56.14C-31.07,-56.14,-30.07,-57.46,-30.07,-57.46C-30.07,-57.46,-26.35,-62.4,-26.35,-62.4C-26.35,-62.4,-26.35,-62.4,-26.35,-62.4C-26.35,-62.4,-26.29,-62.4,-26.29,-62.4C-26.29,-62.4,-11.82,-64.21,-11.82,-64.21C-11.82,-64.21,-11.74,-64.21,-11.74,-64.21C-11.74,-64.21,-11.68,-64.21,-11.68,-64.21C-11.68,-64.21,-1.46,-57.53,-1.46,-57.53C-1.46,-57.53,-1.64,-57.53,-1.64,-57.53C-1.64,-57.53,0.77,-58.11,0.77,-58.11C0.77,-58.11,26.68,-64.25,26.68,-64.25C26.68,-64.25,34.55,-66.06,34.55,-66.06C34.55,-66.06,36.69,-66.53,36.69,-66.53C36.938,-66.613,37.192,-66.677,37.45,-66.72Z" /></g><g id="i57"><path fill="#eb996e" d="M-17.87,-58.16C-19.738,-57.941,-21.62,-57.868,-23.5,-57.94C-23.5,-57.94,-24.5,-57.94,-24.5,-57.94C-24.5,-57.94,-24.36,-57.99,-24.36,-57.99C-25.491,-56.95,-26.713,-56.013,-28.01,-55.19C-26.979,-56.328,-25.855,-57.378,-24.65,-58.33C-24.65,-58.33,-24.59,-58.39,-24.59,-58.39C-24.59,-58.39,-23.48,-58.39,-23.48,-58.39C-21.607,-58.467,-19.731,-58.39,-17.87,-58.16Z" /></g><g id="i51"><path fill="#eb996e" d="M44.64,-62.35C43.895,-63.526,42.927,-64.545,41.79,-65.35C40.584,-66.031,39.255,-66.466,37.88,-66.63C38.285,-66.77,38.718,-66.805,39.14,-66.73C41.21,-66.511,43.059,-65.339,44.14,-63.56C44.41,-63.208,44.582,-62.79,44.64,-62.35Z" /></g></g></g></g></g></g><g transform="matrix(1,0,0,1,350,250)" id="i88"><g><g transform="translate(-233,160)"><g transform="rotate(-5)"><animateTransform repeatCount="indefinite" type="rotate" attributeName="transform" dur="4s" begin="0s" calcMode="spline" values="-5; 6; -5; 6; -5; 6" keyTimes="0; 0.25; 0.500001; 0.75; 0.991667; 1" keySplines="0.333 0 0.667 1; 0.333 0 0.667 1; 0.333 0 0.667 1; 0.333 0 0.667 1; 0.333 0 0.667 1" fill="freeze" /><g id="i60" transform="translate(233,-160)"><g id="i41"><path fill="#0f9d1d" d="M-228.15,88.73C-228.15,88.73,-224.65,88.44,-224.65,88.44C-222.161,88.236,-219.746,87.496,-217.57,86.27C-216.505,85.649,-215.403,85.095,-214.27,84.61C-209.94,82.88,-205.1,83.19,-200.44,82.95C-192.805,82.565,-185.324,80.654,-178.44,77.33C-178.027,77.148,-177.678,76.844,-177.44,76.46C-176.72,75.15,-178.06,73.98,-179.21,73.27C-185.12,69.63,-191.13,65.95,-197.82,64.14C-204.51,62.33,-212.12,62.64,-217.82,66.57C-224.52,71.19,-226.97,80.67,-228.1,88.73" /></g><g id="i42"><path fill="#263238" d="M-177.41,76C-177.612,75.917,-177.809,75.824,-178,75.72C-178,75.72,-179.66,74.85,-179.66,74.85C-181.1,74.09,-183.17,72.97,-185.8,71.72C-188.846,70.215,-192.022,68.99,-195.29,68.06C-199.286,66.911,-203.471,66.571,-207.6,67.06C-211.735,67.52,-215.64,69.197,-218.82,71.88C-221.304,74.188,-223.291,76.978,-224.66,80.08C-225.89,82.71,-226.66,84.95,-227.2,86.47C-227.2,86.47,-227.83,88.24,-227.83,88.24C-227.892,88.45,-227.972,88.654,-228.07,88.85C-228.041,88.632,-227.991,88.418,-227.92,88.21C-227.78,87.76,-227.6,87.16,-227.38,86.42C-226.713,84.235,-225.918,82.092,-225,80C-223.653,76.826,-221.657,73.968,-219.14,71.61C-215.915,68.832,-211.929,67.09,-207.7,66.61C-203.515,66.104,-199.271,66.444,-195.22,67.61C-191.934,68.575,-188.744,69.84,-185.69,71.39C-183.08,72.69,-181.03,73.85,-179.61,74.66C-179.61,74.66,-177.99,75.61,-177.99,75.61C-177.781,75.715,-177.586,75.846,-177.41,76Z" /></g><g id="i43"><path fill="#263238" d="M-185.82,80.55C-185.89,80.65,-190.48,77.69,-196.06,73.93C-201.64,70.17,-206.11,67.03,-206.06,66.93C-206.01,66.83,-201.41,69.79,-195.83,73.55C-190.25,77.31,-185.75,80.44,-185.82,80.55Z" /></g><g id="i44"><path fill="#263238" d="M-190.22,66.48C-192.555,67.214,-195.02,67.442,-197.45,67.15C-196.262,66.903,-195.053,66.762,-193.84,66.73C-192.643,66.542,-191.432,66.459,-190.22,66.48Z" /></g><g id="i45"><path fill="#263238" d="M-210.77,62.8C-211.645,64.87,-212.791,66.814,-214.18,68.58C-213.822,67.515,-213.317,66.505,-212.68,65.58C-212.178,64.567,-211.535,63.631,-210.77,62.8Z" /></g><g id="i46"><path fill="#263238" d="M-206.67,83.25C-207.443,82.928,-208.181,82.526,-208.87,82.05C-210.2,81.25,-211.99,80.05,-213.87,78.68C-215.75,77.31,-217.46,75.98,-218.68,75.02C-219.363,74.537,-219.999,73.992,-220.58,73.39C-219.837,73.777,-219.134,74.236,-218.48,74.76C-218.48,74.76,-213.59,78.31,-213.59,78.31C-211.69,79.69,-209.94,80.9,-208.66,81.78C-207.955,82.211,-207.289,82.703,-206.67,83.25Z" /></g><g id="i47"><path fill="#0f9d1d" d="M-223,103.62C-226.34,102.73,-230.33,105.98,-231,109.37C-231.67,112.76,-230.41,116.22,-228.93,119.37C-225.745,126.364,-221.021,132.548,-215.11,137.46C-209.148,142.349,-201.709,145.08,-194,145.21C-195.41,138.65,-193.63,131.79,-194.41,125.12C-195.845,113.022,-205.447,103.519,-217.56,102.21C-219.69,101.98,-222.16,101.65,-223.01,103.62" /></g><g id="i48"><path fill="#263238" d="M-194,145.21C-194.168,145.154,-194.329,145.081,-194.48,144.99C-194.918,144.743,-195.336,144.462,-195.73,144.15C-197.131,142.931,-198.255,141.428,-199.03,139.74C-199.56,138.74,-200.16,137.58,-200.74,136.33C-201.32,135.08,-201.9,133.76,-202.54,132.33C-203.181,130.866,-203.92,129.446,-204.75,128.08C-205.64,126.624,-206.643,125.24,-207.75,123.94C-210.03,121.26,-212.49,118.94,-214.62,116.71C-216.546,114.769,-218.299,112.665,-219.86,110.42C-220.906,108.898,-221.765,107.256,-222.42,105.53C-222.63,104.92,-222.79,104.43,-222.87,104.1C-222.925,103.935,-222.959,103.764,-222.97,103.59C-222.97,103.59,-222.74,104.27,-222.25,105.47C-221.537,107.151,-220.645,108.75,-219.59,110.24C-217.999,112.436,-216.233,114.499,-214.31,116.41C-212.17,118.61,-209.7,120.93,-207.39,123.64C-206.258,124.957,-205.231,126.362,-204.32,127.84C-203.493,129.229,-202.755,130.668,-202.11,132.15C-202.11,132.15,-200.35,136.15,-200.35,136.15C-199.79,137.39,-199.21,138.53,-198.69,139.56C-197.96,141.232,-196.899,142.739,-195.57,143.99C-194.61,144.85,-193.95,145.17,-194,145.21Z" /></g><g id="i49"><path fill="#263238" d="M-211.27,139.76C-211.25,139.001,-211.146,138.246,-210.96,137.51C-210.7,136.13,-210.27,134.24,-209.69,132.18C-209.11,130.12,-208.49,128.29,-207.99,126.98C-207.771,126.253,-207.466,125.554,-207.08,124.9C-207.215,125.643,-207.416,126.373,-207.68,127.08C-208.1,128.42,-208.68,130.26,-209.24,132.31C-209.8,134.36,-210.24,136.22,-210.64,137.58C-210.778,138.326,-210.989,139.056,-211.27,139.76Z" /></g><g id="i50"><path fill="#263238" d="M-194.61,123.65C-195.411,123.532,-196.2,123.349,-196.97,123.1C-198.41,122.73,-200.4,122.21,-202.61,121.71C-204.82,121.21,-206.84,120.83,-208.3,120.55C-209.101,120.447,-209.89,120.273,-210.66,120.03C-209.852,120.009,-209.044,120.077,-208.25,120.23C-206.77,120.42,-204.73,120.76,-202.51,121.23C-200.29,121.7,-198.3,122.3,-196.88,122.76C-196.095,122.977,-195.334,123.275,-194.61,123.65Z" /></g><g id="i61"><path fill="#263238" d="M-223.67,128.33C-223.632,127.451,-223.512,126.577,-223.31,125.72C-223.01,124.13,-222.55,121.93,-221.92,119.54C-221.29,117.15,-220.63,115,-220.11,113.46C-219.853,112.614,-219.519,111.794,-219.11,111.01C-219.255,111.876,-219.469,112.728,-219.75,113.56C-220.19,115.12,-220.81,117.27,-221.43,119.65C-222.05,122.03,-222.57,124.22,-222.94,125.79C-223.111,126.656,-223.355,127.506,-223.67,128.33Z" /></g><g id="i53"><path fill="#263238" d="M-202.28,109.61C-202.28,109.73,-206.47,109.4,-211.6,108.85C-216.73,108.3,-220.89,107.76,-220.87,107.64C-217.753,107.73,-214.642,107.98,-211.55,108.39C-208.441,108.639,-205.347,109.046,-202.28,109.61Z" /></g><g id="i19"><path fill="#263238" d="M-226,104.85C-226.044,105.022,-226.104,105.19,-226.18,105.35C-226.33,105.72,-226.53,106.18,-226.76,106.74C-226.89,107.05,-227.03,107.38,-227.19,107.74C-227.35,108.1,-227.47,108.53,-227.62,108.96C-227.62,108.96,-228.13,110.36,-228.13,110.36C-228.3,110.86,-228.44,111.36,-228.61,111.96C-229.386,114.586,-229.997,117.258,-230.44,119.96C-230.942,123.274,-231.276,126.612,-231.44,129.96C-231.676,136.051,-231.502,142.152,-230.92,148.22C-230.71,150.56,-230.5,152.44,-230.34,153.74C-230.28,154.35,-230.22,154.85,-230.18,155.24C-230.167,155.416,-230.167,155.594,-230.18,155.77C-230.243,155.603,-230.283,155.428,-230.3,155.25C-230.37,154.86,-230.45,154.37,-230.55,153.77C-230.76,152.47,-231.03,150.59,-231.28,148.26C-231.96,142.179,-232.177,136.054,-231.93,129.94C-231.782,126.574,-231.448,123.219,-230.93,119.89C-230.468,117.182,-229.819,114.509,-228.99,111.89C-228.81,111.33,-228.66,110.79,-228.48,110.3C-228.48,110.3,-227.94,108.9,-227.94,108.9C-227.94,108.9,-227.46,107.69,-227.46,107.69C-227.3,107.32,-227.14,107,-227,106.69C-227,106.69,-226.33,105.33,-226.33,105.33C-226.246,105.153,-226.135,104.991,-226,104.85Z" /></g><g id="i20"><path fill="#263238" d="M-227.67,87.48C-227.725,87.721,-227.795,87.958,-227.88,88.19C-228.05,88.68,-228.28,89.35,-228.56,90.19C-228.56,90.19,-229.06,91.63,-229.06,91.63C-229.22,92.17,-229.4,92.75,-229.59,93.37C-229.97,94.61,-230.41,96.02,-230.8,97.61C-230.8,97.61,-231.46,100.1,-231.46,100.1C-231.66,100.97,-231.86,101.88,-232.07,102.81C-232.53,104.68,-232.86,106.71,-233.28,108.81C-234,113.07,-234.63,117.81,-235.07,122.76C-235.51,127.71,-235.66,132.5,-235.72,136.83C-235.78,141.16,-235.72,145.06,-235.5,148.33C-235.45,149.97,-235.34,151.44,-235.26,152.74C-235.18,154.04,-235.1,155.16,-235.02,156.07C-234.94,156.98,-234.9,157.65,-234.86,158.18C-234.847,158.423,-234.847,158.667,-234.86,158.91C-234.924,158.675,-234.964,158.433,-234.98,158.19C-235.04,157.66,-235.12,156.97,-235.23,156.09C-235.34,155.21,-235.45,154.09,-235.55,152.76C-235.65,151.43,-235.78,149.99,-235.86,148.35C-236.08,145.07,-236.17,141.17,-236.18,136.83C-236.19,132.49,-235.98,127.72,-235.56,122.73C-235.14,117.74,-234.47,113.01,-233.73,108.73C-233.3,106.6,-232.95,104.57,-232.48,102.73C-232.26,101.79,-232.04,100.88,-231.84,100.01C-231.84,100.01,-231.15,97.53,-231.15,97.53C-230.74,95.94,-230.27,94.53,-229.86,93.29C-229.66,92.67,-229.47,92.1,-229.3,91.56C-229.13,91.02,-228.93,90.56,-228.76,90.13C-228.76,90.13,-228,88.13,-228,88.13C-227.915,87.902,-227.804,87.684,-227.67,87.48Z" /></g></g></g></g></g><g><g transform="translate(-246,166)"><g transform="rotate(-5)"><animateTransform repeatCount="indefinite" type="rotate" attributeName="transform" dur="4s" begin="0s" calcMode="spline" values="-5; 6; -5; 6; -5; 6" keyTimes="0; 0.25; 0.500001; 0.75; 0.991667; 1" keySplines="0.333 0 0.667 1; 0.333 0 0.667 1; 0.333 0 0.667 1; 0.333 0 0.667 1; 0.333 0 0.667 1" fill="freeze" /><g id="i62" transform="translate(246,-166)"><g id="i18"><path fill="#263238" d="M-240.55,158.61C-240.68,158.61,-240.84,137.13,-240.92,110.61C-241,84.09,-240.92,62.61,-240.82,62.61C-240.72,62.61,-240.53,84.09,-240.45,110.61C-240.37,137.13,-240.42,158.61,-240.55,158.61Z" /></g><g id="i21"><path fill="#263238" d="M-244.68,162.41C-244.69,162.327,-244.69,162.243,-244.68,162.16C-244.68,161.97,-244.68,161.73,-244.74,161.42C-244.79,160.74,-244.85,159.79,-244.93,158.58C-245.09,156.07,-245.31,152.51,-245.59,148.11C-246.15,139.28,-246.97,127.11,-248.46,113.66C-249.22,106.94,-250.1,100.57,-251.02,94.79C-251.5,91.91,-251.94,89.17,-252.45,86.61C-252.96,84.05,-253.45,81.68,-253.85,79.51C-254.25,77.34,-254.76,75.4,-255.15,73.69C-255.54,71.98,-255.89,70.5,-256.15,69.3C-256.41,68.1,-256.66,67.2,-256.83,66.53C-256.89,66.24,-256.95,66,-256.99,65.81C-257.005,65.727,-257.005,65.643,-256.99,65.56C-256.949,65.635,-256.919,65.716,-256.9,65.8C-256.9,65.8,-256.7,66.51,-256.7,66.51C-256.51,67.17,-256.26,68.09,-255.93,69.26C-255.6,70.43,-255.21,71.91,-254.8,73.63C-254.39,75.35,-253.89,77.28,-253.44,79.45C-252.99,81.62,-252.44,83.98,-251.98,86.54C-251.52,89.1,-250.98,91.84,-250.5,94.73C-249.56,100.51,-248.67,106.89,-247.91,113.6C-246.42,127.04,-245.65,139.25,-245.17,148.09C-244.93,152.52,-244.76,156.09,-244.66,158.57C-244.66,159.78,-244.58,160.73,-244.56,161.42C-244.56,161.72,-244.56,161.97,-244.56,162.16C-244.587,162.249,-244.628,162.333,-244.68,162.41Z" /></g><g id="i22"><path fill="#0f9d1d" d="M-241.08,73C-241.37,70,-244.44,67.66,-247.5,67.63C-250.601,67.767,-253.467,69.323,-255.27,71.85C-257.03,74.36,-258.302,77.179,-259.02,80.16C-261.08,87.33,-262.2,94.86,-261.32,102.27C-260.44,109.68,-257.44,116.97,-252.12,122.2C-251.26,123.06,-250.12,123.91,-248.95,123.65C-248.317,123.465,-247.742,123.121,-247.28,122.65C-236.745,113.005,-230.891,99.279,-231.22,85C-231.3,82.19,-231.67,79.25,-233.22,76.91C-234.77,74.57,-238.42,72.07,-241.07,73.01" /></g><g id="i23"><path fill="#0f9d1d" d="M-263.91,48.6C-263.91,48.6,-268.21,56.4,-268.21,56.4C-268.31,56.58,-268.44,56.79,-268.65,56.8C-268.86,56.81,-269.05,56.61,-269.17,56.42C-269.17,56.42,-280.55,39,-280.55,39C-280.55,39,-277.93,37.51,-277.93,37.51C-277.93,37.51,-263.91,48.6,-263.91,48.6Z" /></g><g id="i24"><g id="i51"><path fill="#000000" d="M-263.91,48.6C-263.91,48.6,-268.21,56.4,-268.21,56.4C-268.31,56.58,-268.44,56.79,-268.65,56.8C-268.86,56.81,-269.05,56.61,-269.17,56.42C-269.17,56.42,-280.55,39,-280.55,39C-280.55,39,-277.93,37.51,-277.93,37.51C-277.93,37.51,-263.91,48.6,-263.91,48.6Z" /></g></g><g id="i25"><path fill="#0f9d1d" d="M-240.82,62.65C-240.82,62.65,-279.64,39.74,-279.64,39.74C-280.086,39.569,-280.446,39.227,-280.64,38.79C-280.79,38.22,-280.36,37.66,-279.95,37.23C-274.545,31.629,-266.972,28.654,-259.2,29.08C-251.406,29.641,-244.388,34.006,-240.44,40.75C-236.7,47.44,-236.57,56.3,-240.87,62.65" /></g><g id="i26"><path fill="#263238" d="M-274,32.43C-273.834,32.384,-273.662,32.364,-273.49,32.37C-273.16,32.37,-272.66,32.29,-272.02,32.3C-270.218,32.276,-268.417,32.416,-266.64,32.72C-263.993,33.174,-261.413,33.956,-258.96,35.05C-250.388,38.907,-243.988,46.393,-241.51,55.46C-241.009,57.198,-240.674,58.979,-240.51,60.78C-240.43,61.41,-240.45,61.91,-240.43,62.25C-240.413,62.42,-240.413,62.59,-240.43,62.76C-240.43,62.76,-240.52,62.06,-240.68,60.76C-240.901,58.984,-241.266,57.228,-241.77,55.51C-245.091,43.881,-254.738,35.154,-266.64,33.01C-268.398,32.676,-270.181,32.485,-271.97,32.44C-273.34,32.45,-274,32.47,-274,32.43Z" /></g><g id="i27"><path fill="#263238" d="M-246.08,46.84C-246.706,47.221,-247.378,47.52,-248.08,47.73C-249.32,48.22,-251.08,48.84,-252.98,49.46C-254.88,50.08,-256.68,50.56,-257.98,50.88C-258.67,51.091,-259.381,51.225,-260.1,51.28C-259.46,50.971,-258.79,50.729,-258.1,50.56C-258.1,50.56,-253.16,49.01,-253.16,49.01C-253.16,49.01,-248.23,47.42,-248.23,47.42C-247.534,47.156,-246.814,46.962,-246.08,46.84Z" /></g><g id="i28"><path fill="#263238" d="M-252.19,30.42C-251.843,31.836,-251.688,33.293,-251.73,34.75C-251.616,36.204,-251.697,37.667,-251.97,39.1C-252.157,37.661,-252.231,36.21,-252.19,34.76C-252.304,33.316,-252.304,31.864,-252.19,30.42Z" /></g><g id="i29"><path fill="#263238" d="M-280,39.31C-279.092,38.893,-278.148,38.558,-277.18,38.31C-275.42,37.76,-272.96,37.07,-270.18,36.41C-267.4,35.75,-264.94,35.25,-263.18,34.93C-262.194,34.71,-261.19,34.576,-260.18,34.53C-261.129,34.835,-262.098,35.076,-263.08,35.25C-264.88,35.65,-267.36,36.25,-270.08,36.87C-272.8,37.49,-275.27,38.16,-277.08,38.62C-278.037,38.914,-279.012,39.145,-280,39.31Z" /></g><g id="i30"><path fill="#0f9d1d" d="M-258.72,65.78C-262.06,63.25,-265.59,62.78,-269.78,62.91C-273.971,63.177,-278.074,64.225,-281.88,66C-288.43,68.86,-294.58,73.09,-298.49,79.07C-302.4,85.05,-303.77,92.97,-300.84,99.49C-300.609,100.172,-300.136,100.745,-299.51,101.1C-298.783,101.303,-298.007,101.242,-297.32,100.93C-289.87,98.5,-282.38,96.05,-275.53,92.25C-268.68,88.45,-262.45,83.16,-258.78,76.25C-257.84,74.637,-257.235,72.852,-257,71C-256.797,69.105,-257.42,67.214,-258.71,65.81" /></g><g id="i31"><path fill="#263238" d="M-258.66,65C-258.827,65.095,-259.005,65.169,-259.19,65.22C-259.19,65.22,-260.75,65.76,-260.75,65.76C-260.75,65.76,-261.88,66.13,-261.88,66.13C-262.29,66.28,-262.73,66.46,-263.2,66.65C-264.14,67.03,-265.2,67.41,-266.39,67.97C-266.39,67.97,-268.21,68.8,-268.21,68.8C-268.85,69.09,-269.48,69.45,-270.15,69.8C-271.5,70.46,-272.86,71.31,-274.32,72.17C-280.556,76.036,-286.105,80.912,-290.74,86.6C-291.74,87.93,-292.79,89.18,-293.62,90.44C-294.05,91.06,-294.48,91.64,-294.86,92.23C-294.86,92.23,-295.86,93.93,-295.86,93.93C-296.56,95,-297.08,96.04,-297.58,96.93C-297.82,97.37,-298.06,97.78,-298.26,98.17C-298.46,98.56,-298.62,98.91,-298.77,99.24C-298.77,99.24,-299.51,100.72,-299.51,100.72C-299.58,100.899,-299.674,101.067,-299.79,101.22C-299.741,101.034,-299.674,100.853,-299.59,100.68C-299.59,100.68,-298.94,99.16,-298.94,99.16C-298.79,98.83,-298.63,98.47,-298.46,98.07C-298.29,97.67,-298.04,97.26,-297.81,96.81C-297.33,95.9,-296.81,94.81,-296.15,93.76C-295.81,93.21,-295.47,92.63,-295.15,92.03C-294.83,91.43,-294.35,90.85,-293.93,90.22C-293.11,88.94,-292.1,87.68,-291.07,86.33C-288.739,83.465,-286.185,80.79,-283.43,78.33C-280.645,75.91,-277.668,73.72,-274.53,71.78C-273.06,70.92,-271.68,70.08,-270.32,69.43C-269.64,69.09,-269,68.74,-268.32,68.43C-268.32,68.43,-266.47,67.63,-266.47,67.63C-265.3,67.08,-264.2,66.72,-263.24,66.36C-262.76,66.19,-262.32,66.02,-261.9,65.88C-261.9,65.88,-260.76,65.54,-260.76,65.54C-260.76,65.54,-259.17,65.09,-259.17,65.09C-259.002,65.047,-258.832,65.017,-258.66,65Z" /></g><g id="i32"><path fill="#263238" d="M-284.74,79.12C-287.399,80.133,-290.109,81.004,-292.86,81.73C-295.569,82.611,-298.327,83.336,-301.12,83.9C-298.461,82.887,-295.751,82.016,-293,81.29C-290.289,80.415,-287.531,79.69,-284.74,79.12Z" /></g><g id="i33"><path fill="#263238" d="M-285.08,97C-285.216,96.164,-285.277,95.317,-285.26,94.47C-285.26,92.91,-285.26,90.74,-285.26,88.36C-285.26,85.98,-285.06,83.81,-284.93,82.25C-284.91,81.401,-284.802,80.557,-284.61,79.73C-284.543,80.575,-284.543,81.425,-284.61,82.27C-284.67,83.98,-284.73,86.06,-284.8,88.37C-284.87,90.68,-284.91,92.76,-284.96,94.47C-284.923,95.315,-284.963,96.162,-285.08,97Z" /></g><g id="i34"><path fill="#263238" d="M-269.72,89.22C-269.85,89.22,-270.26,84.83,-270.63,79.4C-271,73.97,-271.21,69.56,-271.08,69.56C-270.95,69.56,-270.55,73.94,-270.17,79.37C-269.79,84.8,-269.59,89.21,-269.72,89.22Z" /></g><g id="i35"><path fill="#263238" d="M-288.83,69.13C-287.968,69.021,-287.097,68.994,-286.23,69.05C-284.63,69.05,-282.41,69.11,-279.96,69.19C-277.51,69.27,-275.3,69.37,-273.7,69.46C-272.831,69.471,-271.965,69.555,-271.11,69.71C-271.972,69.819,-272.843,69.846,-273.71,69.79C-275.31,69.79,-277.53,69.74,-279.98,69.65C-282.43,69.56,-284.64,69.47,-286.25,69.38C-287.116,69.37,-287.979,69.286,-288.83,69.13Z" /></g><g id="i36"><path fill="#263238" d="M-250.45,124.28C-250.494,124.104,-250.515,123.922,-250.51,123.74C-250.51,123.35,-250.51,122.84,-250.58,122.22C-250.64,120.89,-250.65,118.98,-250.58,116.6C-250.51,114.22,-250.38,111.41,-250.1,108.29C-249.82,105.17,-249.36,101.74,-248.73,98.17C-248.1,94.6,-247.32,91.25,-246.53,88.17C-245.74,85.09,-244.88,82.44,-244.1,80.17C-243.32,77.9,-242.66,76.17,-242.1,74.91C-241.86,74.33,-241.67,73.91,-241.51,73.5C-241.449,73.333,-241.372,73.172,-241.28,73.02C-241.302,73.197,-241.353,73.369,-241.43,73.53C-241.43,73.53,-242,75,-242,75C-242.46,76.24,-243.09,78,-243.82,80.3C-244.55,82.6,-245.35,85.3,-246.14,88.3C-246.93,91.3,-247.67,94.68,-248.31,98.24C-248.95,101.8,-249.38,105.24,-249.7,108.31C-250.02,111.38,-250.2,114.23,-250.28,116.59C-250.36,118.95,-250.41,120.87,-250.41,122.2C-250.41,122.82,-250.41,123.32,-250.41,123.72C-250.41,123.907,-250.424,124.094,-250.45,124.28Z" /></g><g id="i37"><path fill="#263238" d="M-248.41,97.79C-248.864,98.411,-249.384,98.981,-249.96,99.49C-250.96,100.49,-252.39,101.83,-254.01,103.26C-255.63,104.69,-257.16,105.92,-258.29,106.79C-258.868,107.293,-259.498,107.732,-260.17,108.1C-259.661,107.525,-259.099,106.999,-258.49,106.53C-258.49,106.53,-254.32,102.91,-254.32,102.91C-254.32,102.91,-250.18,99.25,-250.18,99.25C-249.638,98.708,-249.045,98.219,-248.41,97.79Z" /></g><g id="i38"><path fill="#263238" d="M-236.12,107.68C-236.728,106.964,-237.28,106.202,-237.77,105.4C-237.77,105.4,-241.6,99.8,-241.6,99.8C-241.6,99.8,-245.52,94.26,-245.52,94.26C-246.101,93.521,-246.626,92.738,-247.09,91.92C-246.413,92.573,-245.8,93.29,-245.26,94.06C-244.18,95.43,-242.74,97.35,-241.26,99.54C-239.78,101.73,-238.44,103.74,-237.53,105.22C-236.984,105.994,-236.512,106.818,-236.12,107.68Z" /></g><g id="i39"><path fill="#263238" d="M-242.56,76.55C-242.49,76.66,-246.56,79.41,-251.67,82.69C-256.78,85.97,-260.97,88.55,-261.04,88.44C-261.11,88.33,-257.04,85.58,-251.92,82.3C-246.8,79.02,-242.62,76.45,-242.56,76.55Z" /></g><g id="i40"><path fill="#263238" d="M-231,89C-233.155,87.206,-235.214,85.3,-237.17,83.29C-239.229,81.399,-241.182,79.396,-243.02,77.29C-240.857,79.079,-238.794,80.985,-236.84,83C-234.78,84.886,-232.83,86.889,-231,89Z" /></g><g id="i54"><path fill="#455a64" d="M-205.34,160.21C-205.34,160.34,-220.01,160.44,-238.1,160.44C-256.19,160.44,-270.86,160.34,-270.86,160.21C-270.86,160.08,-256.19,159.98,-238.1,159.98C-220.01,159.98,-205.34,160.08,-205.34,160.21Z" /></g></g></g></g></g><g id="i14"><path fill="#263238" d="M-270.75,151.27C-270.75,151.27,-205.45,151.27,-205.45,151.27C-205.45,151.27,-205.45,160.24,-205.45,160.24C-205.45,160.24,-270.75,160.24,-270.75,160.24C-270.75,160.24,-270.75,151.27,-270.75,151.27Z" /></g><g id="i15"><path fill="#263238" d="M-205.34,160.36C-205.34,160.36,-270.86,160.36,-270.86,160.36C-270.86,160.36,-270.86,151.16,-270.86,151.16C-270.86,151.16,-205.34,151.16,-205.34,151.16C-205.34,151.16,-205.34,160.36,-205.34,160.36ZM-270.64,160.13C-270.64,160.13,-205.56,160.13,-205.56,160.13C-205.56,160.13,-205.56,151.38,-205.56,151.38C-205.56,151.38,-270.64,151.38,-270.64,151.38C-270.64,151.38,-270.64,160.13,-270.64,160.13Z" /></g><g id="i16"><path fill="#263238" d="M-264.69,157.26C-264.69,157.26,-255.3,203.63,-255.3,203.63C-255.3,203.63,-220.52,203.63,-220.52,203.63C-220.52,203.63,-211.43,160.25,-211.43,160.25C-211.43,160.25,-264.69,157.26,-264.69,157.26Z" /></g><g id="i17"><path fill="#455a64" d="M-264.69,199.24C-264.69,199.24,-259.68,206.14,-259.68,206.14C-259.68,206.14,-217.41,206.14,-217.41,206.14C-217.41,206.14,-211.43,199.24,-211.43,199.24C-211.43,199.24,-264.69,199.24,-264.69,199.24Z" /></g><g id="i56"><path fill="#455a64" d="M-215.54,179.08C-215.54,179.21,-225.43,179.32,-237.62,179.32C-249.81,179.32,-259.69,179.21,-259.69,179.08C-259.69,178.95,-249.81,178.85,-237.62,178.85C-225.43,178.85,-215.54,179,-215.54,179.08Z" /></g><g id="i57"><path fill="#455a64" d="M-215.16,181.78C-215.16,181.91,-225.04,182.01,-237.23,182.01C-249.42,182.01,-259.3,181.91,-259.3,181.78C-259.3,181.65,-249.42,181.55,-237.23,181.55C-225.04,181.55,-215.16,181.65,-215.16,181.78Z" /></g><g id="i51"><path fill="#455a64" d="M-215.16,176.86C-215.16,176.99,-225.38,177.09,-237.99,177.09C-250.6,177.09,-260.82,176.99,-260.82,176.86C-260.82,176.73,-250.6,176.63,-237.99,176.63C-225.38,176.63,-215.16,176.73,-215.16,176.86Z" /></g></g><g opacity="0" visibility="hidden" id="i89"><animate repeatCount="indefinite" begin="0s" calcMode="discrete" dur="4s" values="hidden; visible; visible" keyTimes="0; 0.133; 1" attributeName="visibility" /><animate repeatCount="indefinite" attributeName="opacity" dur="4s" begin="0s" fill="freeze" values="0; 0; 1; 1" keyTimes="0; 0.133333; 0.341667; 1" keySplines="0 0 1 1; 0.333 0 0.667 1; 0 0 1 1" calcMode="spline" /><g transform="translate(289,250)"><animateTransform repeatCount="indefinite" type="translate" attributeName="transform" dur="4s" begin="0s" calcMode="spline" values="289 250; 289 250; 350 250; 350 250" keyTimes="0; 0.133333; 0.341666; 1" keySplines="0 0 1 1; 0.333 0 0.667 1; 0 0 1 1" fill="freeze" /><g transform="scale(1,1) translate(0,0)"><g id="i46"><path fill="#e0e0e0" d="M-278.5,-178.41C-278.5,-178.41,-186.76,-178.41,-186.76,-178.41C-186.76,-178.41,-186.76,-45.43,-186.76,-45.43C-186.76,-45.43,-278.5,-45.43,-278.5,-45.43C-278.5,-45.43,-278.5,-178.41,-278.5,-178.41Z" /></g><g id="i47"><path fill="#f5f5f5" d="M-283.1,-178.41C-283.1,-178.41,-191.36,-178.41,-191.36,-178.41C-191.36,-178.41,-191.36,-45.43,-191.36,-45.43C-191.36,-45.43,-283.1,-45.43,-283.1,-45.43C-283.1,-45.43,-283.1,-178.41,-283.1,-178.41Z" /></g><g id="i48"><path fill="#ffffff" d="M-271.7,-164.01C-271.7,-164.01,-202.75,-164.01,-202.75,-164.01C-202.75,-164.01,-202.75,-59.84,-202.75,-59.84C-202.75,-59.84,-271.7,-59.84,-271.7,-59.84C-271.7,-59.84,-271.7,-164.01,-271.7,-164.01Z" /></g><g id="i49"><path fill="#e0e0e0" d="M-202.75,-59.83C-202.75,-59.83,-202.75,-60.01,-202.75,-60.34C-202.75,-60.67,-202.75,-61.18,-202.75,-61.82C-202.75,-63.13,-202.75,-65.05,-202.75,-67.53C-202.75,-72.53,-202.75,-79.8,-202.82,-88.99C-202.82,-107.36,-202.88,-133.38,-202.93,-163.99C-202.93,-163.99,-202.7,-163.76,-202.7,-163.76C-202.7,-163.76,-271.64,-163.76,-271.64,-163.76C-271.64,-163.76,-271.64,-163.76,-271.64,-163.76C-271.64,-163.76,-271.39,-164.01,-271.39,-164.01C-271.39,-124.71,-271.39,-88.48,-271.39,-59.83C-271.39,-59.83,-271.59,-60.03,-271.59,-60.03C-271.59,-60.03,-221.4,-59.93,-221.4,-59.93C-221.4,-59.93,-207.54,-59.88,-207.54,-59.88C-207.54,-59.88,-203.9,-59.88,-203.9,-59.88C-203.9,-59.88,-202.64,-59.88,-202.64,-59.88C-202.64,-59.88,-203.86,-59.88,-203.86,-59.88C-203.86,-59.88,-207.46,-59.88,-207.46,-59.88C-207.46,-59.88,-221.28,-59.88,-221.28,-59.88C-221.28,-59.88,-271.59,-59.78,-271.59,-59.78C-271.59,-59.78,-271.79,-59.78,-271.79,-59.78C-271.79,-59.78,-271.79,-59.98,-271.79,-59.98C-271.79,-88.63,-271.79,-124.86,-271.79,-164.16C-271.79,-164.16,-271.79,-164.41,-271.79,-164.41C-271.79,-164.41,-271.53,-164.41,-271.53,-164.41C-271.53,-164.41,-202.59,-164.41,-202.59,-164.41C-202.59,-164.41,-202.36,-164.41,-202.36,-164.41C-202.36,-164.41,-202.36,-164,-202.36,-164C-202.36,-133.3,-202.45,-107.24,-202.47,-88.83C-202.47,-79.66,-202.52,-72.41,-202.54,-67.43C-202.54,-64.96,-202.54,-63.06,-202.54,-61.76C-202.54,-61.13,-202.54,-60.64,-202.54,-60.31C-202.54,-59.98,-202.75,-59.83,-202.75,-59.83Z" /></g><g id="i50"><path fill="#e0e0e0" d="M-191.09,-178.41C-191.564,-177.56,-192.113,-176.753,-192.73,-176C-193.79,-174.58,-195.31,-172.64,-197.03,-170.54C-198.75,-168.44,-200.37,-166.59,-201.57,-165.27C-202.173,-164.524,-202.842,-163.835,-203.57,-163.21C-203.052,-164.021,-202.467,-164.787,-201.82,-165.5C-201.82,-165.5,-197.4,-170.86,-197.4,-170.86C-197.4,-170.86,-193,-176.25,-193,-176.25C-192.426,-177.023,-191.787,-177.745,-191.09,-178.41Z" /></g><g id="i61"><path fill="#ffffff" d="M-202.4,-60.17C-198.976,-54.735,-194.951,-49.703,-190.4,-45.17" /></g><g id="i53"><path fill="#e0e0e0" d="M-190.37,-45.13C-191.139,-45.686,-191.844,-46.327,-192.47,-47.04C-194.069,-48.665,-195.584,-50.371,-197.01,-52.15C-198.67,-54.24,-200.06,-56.23,-201.01,-57.7C-201.556,-58.476,-202.025,-59.303,-202.41,-60.17C-201.792,-59.456,-201.227,-58.697,-200.72,-57.9C-199.72,-56.48,-198.28,-54.54,-196.63,-52.47C-194.98,-50.4,-193.38,-48.58,-192.22,-47.28C-191.553,-46.609,-190.934,-45.89,-190.37,-45.13Z" /></g><g id="i54"><path fill="#ffffff" d="M-283.11,-45.54C-283.11,-45.54,-271.11,-60.36,-271.11,-60.36" /></g><g id="i56"><path fill="#e0e0e0" d="M-271.09,-60.36C-272.9,-57.739,-274.843,-55.213,-276.91,-52.79C-278.845,-50.264,-280.914,-47.843,-283.11,-45.54C-281.3,-48.161,-279.357,-50.687,-277.29,-53.11C-275.355,-55.636,-273.286,-58.057,-271.09,-60.36Z" /></g><g id="i57"><path fill="#e0e0e0" d="M-283.1,-178.41C-281.027,-176.185,-279.077,-173.848,-277.26,-171.41C-275.314,-169.082,-273.498,-166.648,-271.82,-164.12C-273.889,-166.345,-275.836,-168.682,-277.65,-171.12C-279.599,-173.448,-281.418,-175.882,-283.1,-178.41Z" /></g><g id="i51"><path fill="#e0e0e0" d="M-247.32,-142.86C-247.32,-142.86,-224.23,-142.86,-224.23,-142.86C-224.23,-142.86,-224.23,-77.31,-224.23,-77.31C-224.23,-77.31,-247.32,-77.31,-247.32,-77.31C-247.32,-77.31,-247.32,-142.86,-247.32,-142.86Z" /></g></g></g></g><g opacity="0" id="i90"><animate repeatCount="indefinite" attributeName="opacity" dur="4s" begin="0s" fill="freeze" values="0; 1; 1" keyTimes="0; 0.2; 1" keySplines="0.333 0 0.667 1; 0.333 0 0.667 1" calcMode="spline" /><g transform="translate(350,201)"><animateTransform repeatCount="indefinite" type="translate" attributeName="transform" dur="4s" begin="0s" calcMode="spline" values="350 201; 350 250; 350 250" keyTimes="0; 0.2; 1" keySplines="0.333 0 0.667 1; 0 0 1 1" fill="freeze" /><g transform="scale(1,1) translate(0,0)"><g id="i48"><path fill="#e0e0e0" d="M-63.07,-197.79C-63.07,-197.79,-63.07,-139.55,-63.07,-139.55C-63.07,-139.55,-146.71,-139.55,-146.71,-139.55C-146.71,-139.55,-149.72,-197.38,-149.72,-197.38C-149.72,-197.38,-63.07,-197.79,-63.07,-197.79Z" /></g><g id="i49"><path fill="#ffffff" d="M-149.73,-139.68C-149.73,-139.68,-149.73,-197.38,-149.73,-197.38C-149.73,-197.38,-66.09,-197.38,-66.09,-197.38C-66.09,-197.38,-66.09,-139.68,-66.09,-139.68C-66.09,-139.68,-149.73,-139.68,-149.73,-139.68Z" /></g><g id="i50"><path fill="#e0e0e0" d="M-65.69,-139.28C-65.69,-139.28,-150.12,-139.28,-150.12,-139.28C-150.12,-139.28,-150.12,-197.78,-150.12,-197.78C-150.12,-197.78,-65.69,-197.78,-65.69,-197.78C-65.69,-197.78,-65.69,-139.28,-65.69,-139.28ZM-149.32,-140.07C-149.32,-140.07,-66.48,-140.07,-66.48,-140.07C-66.48,-140.07,-66.48,-197,-66.48,-197C-66.48,-197,-149.32,-197,-149.32,-197C-149.32,-197,-149.32,-140.07,-149.32,-140.07Z" /></g><g id="i61"><path fill="#ffffff" d="M-140.66,-190.21C-140.66,-190.21,-75.14,-190.21,-75.14,-190.21C-75.14,-190.21,-75.14,-146.85,-75.14,-146.85C-75.14,-146.85,-140.66,-146.85,-140.66,-146.85C-140.66,-146.85,-140.66,-190.21,-140.66,-190.21Z" /></g><g id="i53"><path fill="#e0e0e0" d="M-75.14,-190.21C-75.14,-190.21,-76.4,-190.21,-76.4,-190.21C-76.4,-190.21,-80,-190.21,-80,-190.21C-80,-190.21,-93.5,-190.21,-93.5,-190.21C-93.5,-190.21,-140.66,-190,-140.66,-190C-140.66,-190,-140.47,-190.19,-140.47,-190.19C-140.47,-176.94,-140.47,-162.26,-140.47,-146.83C-140.47,-146.83,-140.47,-146.83,-140.47,-146.83C-140.47,-146.83,-140.67,-147.03,-140.67,-147.03C-140.67,-147.03,-75.15,-147.03,-75.15,-147.03C-75.15,-147.03,-75.32,-146.87,-75.32,-146.87C-75.32,-160.06,-75.25,-170.87,-75.23,-178.42C-75.23,-182.18,-75.23,-185.12,-75.23,-187.14C-75.23,-188.14,-75.23,-188.9,-75.23,-189.43C-75.23,-189.96,-75.23,-190.23,-75.23,-190.23C-75.23,-190.23,-75.23,-189.98,-75.23,-189.47C-75.23,-188.96,-75.23,-188.19,-75.23,-187.21C-75.23,-185.21,-75.23,-182.27,-75.18,-178.52C-75.18,-170.96,-75.13,-160.1,-75.1,-146.87C-75.1,-146.87,-75.1,-146.7,-75.1,-146.7C-75.1,-146.7,-75.26,-146.7,-75.26,-146.7C-75.26,-146.7,-140.78,-146.7,-140.78,-146.7C-140.78,-146.7,-140.99,-146.7,-140.99,-146.7C-140.99,-146.7,-140.99,-146.91,-140.99,-146.91C-140.99,-146.91,-140.99,-146.91,-140.99,-146.91C-140.99,-162.34,-140.99,-177.02,-140.99,-190.27C-140.99,-190.27,-140.99,-190.4,-140.99,-190.4C-140.99,-190.4,-140.8,-190.4,-140.8,-190.4C-140.8,-190.4,-93.51,-190.31,-93.51,-190.31C-93.51,-190.31,-80.05,-190.25,-80.05,-190.25C-80.05,-190.25,-76.49,-190.25,-76.49,-190.25C-76.49,-190.25,-75.28,-190.25,-75.28,-190.25C-75.28,-190.25,-75.14,-190.21,-75.14,-190.21Z" /></g><g id="i54"><path fill="#e0e0e0" d="M-66.08,-197.38C-67.455,-196.027,-68.926,-194.774,-70.48,-193.63C-71.951,-192.382,-73.508,-191.239,-75.14,-190.21C-73.765,-191.563,-72.294,-192.816,-70.74,-193.96C-69.271,-195.211,-67.714,-196.354,-66.08,-197.38Z" /></g><g id="i56"><path fill="#ffffff" d="M-66.15,-139.67C-66.15,-139.67,-75.48,-147.23,-75.48,-147.23" /></g><g id="i57"><path fill="#e0e0e0" d="M-75.48,-147.23C-73.802,-146.13,-72.199,-144.921,-70.68,-143.61C-69.083,-142.4,-67.57,-141.083,-66.15,-139.67C-67.829,-140.764,-69.43,-141.973,-70.94,-143.29C-72.544,-144.495,-74.061,-145.812,-75.48,-147.23Z" /></g><g id="i51"><path fill="#e0e0e0" d="M-127.36,-162.18C-127.36,-162.18,-127.36,-176.7,-127.36,-176.7C-127.36,-176.7,-86.13,-176.7,-86.13,-176.7C-86.13,-176.7,-86.13,-162.18,-86.13,-162.18C-86.13,-162.18,-127.36,-162.18,-127.36,-162.18Z" /></g></g></g></g></svg>